if (_typeface_js && _typeface_js.loadFace) _typeface_js.loadFace({"glyphs":{"S":{"x_min":-23.609375,"x_max":1183.421875,"ha":1039,"o":"m 1098 594 q 1010 573 1047 573 q 973 588 973 573 q 1014 600 973 598 q 1073 609 1055 601 q 1126 691 1126 637 q 1111 750 1126 719 q 895 829 1066 829 q 698 799 797 829 q 533 707 600 769 q 466 593 466 645 q 626 475 466 512 l 790 444 q 937 394 888 426 q 1001 283 1001 355 q 991 220 1001 254 q 762 -8 947 70 q 398 -76 608 -76 q 294 -70 338 -76 q 411 -113 338 -95 q 416 -119 416 -115 q 387 -131 416 -131 q 245 -63 330 -131 q 73 0 130 -45 q 6 86 37 29 q -23 188 -23 143 q -5 265 -23 234 q 100 338 36 338 q 156 256 148 338 q 183 76 176 98 q 254 -38 204 8 q 380 -51 312 -51 q 675 8 530 -51 q 883 177 819 68 q 909 254 909 220 q 794 355 909 319 l 550 411 q 429 470 475 429 q 384 566 384 512 q 488 733 384 650 q 682 832 568 797 q 907 868 797 868 q 1090 836 1018 868 q 1183 710 1183 793 q 1098 594 1183 627 m 204 -25 q 101 218 123 63 q 77 305 88 305 q 56 299 66 305 q 37 272 47 293 q 27 218 27 251 q 102 34 27 111 q 204 -25 140 -4 "},"¦":{"x_min":138.90625,"x_max":219.46875,"ha":304,"o":"m 151 616 q 145 800 151 751 q 140 855 140 848 q 163 869 140 869 q 219 742 219 869 q 212 447 219 615 l 151 450 l 151 616 m 152 86 l 151 384 l 209 386 q 173 -88 191 -18 q 151 -126 163 -126 q 138 -109 138 -126 q 145 -36 138 -93 q 152 86 152 20 "},"/":{"x_min":37.5,"x_max":812.5625,"ha":839,"o":"m 779 969 q 803 960 794 969 q 812 941 812 951 q 800 916 812 932 q 370 375 612 701 q 83 -66 127 50 q 75 -114 75 -91 q 86 -142 75 -137 q 90 -158 97 -147 q 61 -172 80 -172 q 37 -126 37 -172 q 68 2 37 -80 q 430 550 111 120 q 779 969 745 969 "},"y":{"x_min":-77.84375,"x_max":561.15625,"ha":514,"o":"m -77 -161 q 37 -244 -11 -244 q 208 -118 116 -244 q 338 116 275 -25 l 391 244 l 187 84 q 36 11 93 11 q -12 31 5 11 q -30 79 -30 52 q 72 275 -30 138 q 222 412 175 412 q 269 380 269 412 q 146 236 269 368 q 23 59 23 105 q 47 41 23 41 q 225 145 91 41 q 427 318 359 250 q 470 372 443 336 q 529 402 497 402 q 561 372 561 402 q 498 273 561 366 q 433 175 436 180 q 301 -68 390 91 q 31 -284 166 -284 q -45 -246 -12 -284 q -77 -161 -79 -208 "},"≈":{"x_min":31.953125,"x_max":530.59375,"ha":556,"o":"m 38 215 q 150 277 79 277 q 295 261 212 277 q 416 241 398 241 q 456 262 433 241 q 481 283 479 283 q 483 278 483 283 q 480 268 483 273 q 370 198 448 198 q 238 215 330 198 q 121 231 145 231 q 77 218 97 231 q 46 191 58 205 q 37 177 34 177 q 31 191 31 177 q 38 215 31 205 m 86 354 q 197 416 126 416 q 343 400 259 416 q 463 380 445 380 q 503 401 480 380 q 528 422 526 422 q 530 417 530 422 q 527 406 530 412 q 418 337 495 337 q 285 354 377 337 q 168 370 193 370 q 125 357 144 370 q 93 330 105 344 q 84 316 81 316 q 79 330 79 316 q 86 354 79 344 "},"Ž":{"x_min":-112.125,"x_max":1307.4375,"ha":1026,"o":"m 1261 740 q 1112 762 1254 740 q 574 420 878 629 q 83 36 271 212 q 515 79 296 59 q 587 80 540 80 q 861 47 761 80 q 961 -41 961 13 q 921 -115 961 -75 q 849 -163 868 -163 q 842 -152 842 -163 q 858 -125 842 -140 q 874 -98 874 -111 q 744 -19 874 -55 q 492 19 610 19 q 217 -3 374 19 q -28 -26 61 -26 q -38 -26 -34 -26 q -66 -45 -60 -45 q -69 -40 -69 -45 q -60 -22 -69 -36 q -112 6 -112 -19 q -89 50 -112 27 q -51 72 -67 72 q -45 69 -48 72 q 14 50 -38 58 q 1021 776 365 416 l 979 784 q 725 807 881 807 q 454 765 569 807 q 379 734 429 759 q 299 638 299 694 q 302 618 299 630 q 301 600 305 607 q 283 591 296 591 q 258 611 269 591 q 246 652 246 630 q 253 698 246 675 q 424 829 279 787 q 670 850 497 850 q 1012 819 843 850 q 1082 807 1033 818 l 1158 848 q 1207 854 1169 854 q 1244 840 1244 854 q 1232 830 1244 834 q 1161 790 1226 826 q 1238 786 1224 786 q 1265 793 1253 786 q 1273 813 1276 800 q 1275 827 1269 827 q 1295 809 1283 827 q 1307 775 1307 790 q 1261 740 1307 740 m 1175 1118 q 1224 1140 1215 1140 q 1232 1126 1232 1140 q 1149 1041 1232 1112 q 1044 969 1061 970 l 1036 973 q 862 1122 987 1027 q 851 1138 851 1133 q 861 1145 851 1144 q 940 1112 890 1143 q 1005 1068 989 1082 q 1034 1042 1021 1055 q 1051 1026 1047 1029 q 1175 1118 1135 1095 "},"Á":{"x_min":-1.390625,"x_max":1764.03125,"ha":1417,"o":"m 1314 397 l 1448 400 q 1498 393 1498 400 q 1295 361 1498 375 q 1166 16 1166 108 q 1207 -47 1166 -47 q 1245 -28 1222 -47 q 1273 -9 1268 -9 q 1277 -16 1277 -9 q 1235 -58 1270 -41 q 1175 -75 1200 -75 q 1137 -72 1151 -75 q 1104 8 1104 -59 q 1211 365 1104 148 l 1044 361 q 670 41 858 179 q 231 -162 390 -162 q 212 -161 222 -162 q -1 58 -1 -143 q 73 311 -1 177 q 347 614 173 488 q 658 740 520 740 q 795 638 795 740 q 754 487 795 570 q 669 381 712 404 q 660 380 665 380 q 655 383 655 380 l 701 458 q 748 587 748 531 q 724 677 748 643 q 647 711 700 711 q 388 590 538 711 q 159 293 237 469 q 80 18 80 116 q 231 -130 80 -130 q 623 55 376 -130 q 980 365 733 137 q 890 355 932 362 q 807 361 801 338 q 859 412 812 412 q 1013 401 951 401 q 1370 761 1133 511 q 1565 929 1530 929 q 1580 905 1580 929 q 1568 832 1580 882 q 1540 770 1555 782 q 1480 710 1508 748 q 1401 567 1452 672 q 1314 397 1350 462 m 1425 736 l 1069 402 l 1151 402 q 1223 401 1180 401 q 1425 736 1263 480 m 1668 1047 q 1586 1002 1595 1002 q 1576 1009 1576 1002 q 1582 1020 1576 1016 l 1727 1133 q 1752 1145 1741 1145 q 1764 1129 1764 1145 q 1752 1101 1764 1112 q 1668 1047 1740 1091 "},"g":{"x_min":-116.671875,"x_max":522.265625,"ha":514,"o":"m 463 423 l 483 427 q 511 416 501 427 q 522 399 522 405 q 520 385 522 393 q 480 315 519 377 q 400 172 431 230 q 227 -115 287 -37 q -15 -284 100 -284 q -85 -250 -55 -284 q -116 -175 -115 -216 q -104 -158 -112 -158 q -97 -168 -100 -158 q -70 -223 -90 -204 q -31 -243 -51 -243 q 137 -138 47 -243 q 269 63 197 -69 l 338 201 l 234 95 q 97 0 134 0 q 27 25 61 0 q -9 98 -9 52 q 132 340 -9 200 q 391 480 275 480 q 452 450 438 480 q 459 431 456 438 q 463 423 462 423 m 48 81 q 83 31 48 31 q 302 208 163 31 l 450 411 q 415 430 441 430 q 188 297 329 430 q 48 81 48 165 "},"²":{"x_min":0,"x_max":600.046875,"ha":632,"o":"m 600 975 q 522 832 594 907 q 403 729 488 797 q 163 581 318 662 q 295 547 204 577 q 429 516 386 516 q 504 531 472 516 q 537 573 537 545 q 486 625 537 607 q 480 632 480 629 q 494 638 480 643 q 563 572 563 618 q 522 509 563 533 q 432 486 480 486 q 313 509 384 486 l 198 551 q 136 562 158 562 q 20 522 41 522 q 0 537 0 522 q 20 569 0 555 q 111 593 54 593 q 143 591 126 593 q 399 758 344 715 q 486 841 454 801 q 531 950 526 888 q 476 995 531 995 q 342 959 420 995 q 218 883 263 923 q 206 880 212 880 q 201 889 201 880 q 206 900 201 898 q 361 993 266 951 q 527 1034 455 1034 q 600 975 600 1034 "},"–":{"x_min":26.390625,"x_max":551.4375,"ha":564,"o":"m 291 361 l 436 359 q 550 363 515 359 q 551 357 551 361 q 541 347 551 354 q 450 322 518 333 q 328 302 383 311 q 240 293 273 293 q 148 297 208 293 q 26 326 26 305 q 38 350 26 340 q 59 359 50 359 l 80 359 l 115 361 l 226 361 q 291 361 261 361 "},"ë":{"x_min":-45.84375,"x_max":487.53125,"ha":357,"o":"m 70 -18 q 43 -13 55 -18 q -45 86 -45 11 q 76 311 -45 183 q 295 438 198 438 q 347 421 327 438 q 368 379 368 404 q 250 230 368 301 q 59 159 133 159 q 40 162 48 159 q 19 83 19 125 q 88 11 19 11 q 266 104 156 11 q 411 250 348 169 q 432 266 423 266 q 441 258 441 266 q 430 234 441 250 q 248 57 352 133 q 70 -18 144 -18 m 333 381 q 297 398 333 398 q 197 344 262 398 q 61 193 109 272 q 79 190 69 190 q 220 246 131 190 q 330 369 308 302 q 333 381 333 376 m 420 476 q 404 488 412 476 q 397 513 397 500 q 431 551 397 527 q 483 575 466 575 q 487 572 484 575 l 470 552 l 451 506 q 420 476 438 476 m 284 476 q 268 488 276 476 q 261 513 261 500 q 294 550 261 527 q 345 575 327 575 q 350 573 348 575 l 350 572 q 333 552 341 561 q 311 499 322 522 q 284 476 301 476 "},"ƒ":{"x_min":-186.125,"x_max":477.8125,"ha":472,"o":"m 331 76 q 204 -220 331 -37 q -38 -402 76 -402 q -186 -244 -186 -402 q -61 69 -186 -138 q 212 450 62 277 q 444 645 379 645 q 466 636 455 645 q 477 609 477 626 q 463 583 477 593 q 289 441 381 541 q 151 269 197 341 q 287 213 243 269 q 331 76 331 158 m 275 54 q 248 163 275 120 q 138 222 213 222 q -26 9 76 222 q -129 -272 -129 -202 q -41 -368 -129 -368 q 161 -206 48 -368 q 275 54 275 -44 "},"Î":{"x_min":29.171875,"x_max":1257.046875,"ha":800,"o":"m 991 550 l 982 587 q 993 598 982 598 q 1004 594 997 598 q 1036 531 1036 570 q 986 456 1036 493 q 859 419 936 419 q 812 423 836 419 q 579 98 716 247 q 245 -95 395 -95 q 29 159 29 -95 q 141 500 29 370 q 358 611 236 611 q 423 600 390 611 q 505 464 505 568 q 420 248 505 361 q 247 136 336 136 q 147 244 147 136 q 160 308 147 275 q 190 341 173 341 q 202 329 202 341 q 190 294 202 322 q 177 245 177 266 q 200 204 177 223 q 248 186 223 186 q 400 286 330 186 q 470 483 470 387 q 418 580 470 556 q 380 587 400 587 q 183 451 281 587 q 87 150 87 313 q 126 2 87 59 q 237 -55 166 -55 q 715 443 420 -55 q 562 623 562 488 q 744 909 562 802 q 968 976 859 976 q 1120 948 1052 976 q 1216 834 1216 911 q 1209 802 1216 818 q 1193 787 1201 787 q 1150 805 1175 805 q 826 454 1032 805 q 850 452 837 452 q 944 480 897 452 q 991 550 991 508 m 1001 937 q 838 896 930 937 q 691 776 745 855 q 636 597 636 697 q 738 477 636 497 q 936 727 815 602 q 1137 851 1057 851 q 1173 841 1158 851 q 1119 909 1172 880 q 1001 937 1072 937 m 944 993 q 913 1002 913 984 q 927 1019 913 1007 q 1065 1111 1033 1083 q 1115 1145 1107 1145 q 1194 1081 1136 1145 q 1254 1009 1252 1016 q 1257 998 1257 1001 q 1245 984 1257 984 q 1186 1029 1234 984 q 1107 1091 1137 1073 q 1060 1062 1098 1086 q 988 1016 1022 1038 q 944 993 955 994 "},"e":{"x_min":-45.84375,"x_max":441.703125,"ha":357,"o":"m 70 -18 q 43 -13 55 -18 q -45 86 -45 11 q 76 311 -45 183 q 295 438 198 438 q 347 421 327 438 q 368 379 368 404 q 250 230 368 301 q 59 159 133 159 q 40 162 48 159 q 19 83 19 125 q 88 11 19 11 q 266 104 156 11 q 411 248 351 172 q 432 265 423 265 q 441 256 441 265 q 430 233 441 248 q 250 58 355 134 q 70 -18 144 -18 m 333 381 q 297 398 333 398 q 197 344 262 398 q 61 193 109 272 q 79 190 69 190 q 220 246 131 190 q 330 369 308 302 q 333 381 333 376 "},"Ã":{"x_min":-1.390625,"x_max":1775.140625,"ha":1417,"o":"m 1314 397 l 1448 400 q 1498 393 1498 400 q 1295 361 1498 375 q 1166 16 1166 108 q 1207 -47 1166 -47 q 1245 -28 1222 -47 q 1273 -9 1268 -9 q 1277 -16 1277 -9 q 1235 -58 1270 -41 q 1175 -75 1200 -75 q 1137 -72 1151 -75 q 1104 8 1104 -59 q 1211 365 1104 148 l 1044 361 q 670 41 858 179 q 231 -162 390 -162 q 212 -161 222 -162 q -1 58 -1 -143 q 73 311 -1 177 q 347 614 173 488 q 658 740 520 740 q 795 638 795 740 q 754 487 795 570 q 669 381 712 404 q 660 380 665 380 q 655 383 655 380 l 701 458 q 748 587 748 531 q 724 677 748 643 q 647 711 700 711 q 388 590 538 711 q 159 293 237 469 q 80 18 80 116 q 231 -130 80 -130 q 623 55 376 -130 q 980 365 733 137 q 890 355 932 362 q 807 361 801 338 q 859 412 812 412 q 1013 401 951 401 q 1370 761 1133 511 q 1565 929 1530 929 q 1580 905 1580 929 q 1568 832 1580 882 q 1540 770 1555 782 q 1480 710 1508 748 q 1401 567 1452 672 q 1314 397 1350 462 m 1425 736 l 1069 402 l 1151 402 q 1223 401 1180 401 q 1425 736 1263 480 m 1775 1109 q 1719 1051 1775 1088 q 1678 1040 1701 1040 q 1610 1059 1655 1040 q 1542 1077 1565 1077 q 1497 1059 1519 1077 q 1468 1041 1475 1041 q 1466 1044 1466 1043 q 1526 1101 1466 1066 q 1573 1115 1548 1115 q 1641 1100 1597 1115 q 1713 1086 1684 1086 q 1766 1115 1741 1086 q 1775 1109 1775 1115 "},"J":{"x_min":54.171875,"x_max":1548.734375,"ha":1142,"o":"m 950 662 q 921 651 950 651 q 864 679 893 651 q 836 749 836 708 q 861 823 836 790 q 1037 926 913 895 q 1215 948 1126 948 l 1226 948 q 1294 944 1238 948 q 1309 978 1291 962 q 1348 994 1326 994 q 1389 934 1390 994 q 1547 854 1539 908 q 1548 833 1548 841 q 1532 805 1548 805 q 1522 838 1516 805 q 1384 911 1487 890 q 1123 422 1359 798 q 758 8 966 175 q 308 -180 519 -180 q 116 -115 179 -180 q 54 29 54 -50 q 84 166 54 109 q 297 387 158 308 q 487 447 400 447 q 635 401 581 447 q 688 286 688 355 q 633 150 688 211 q 577 111 598 111 q 572 115 572 111 q 576 129 572 120 q 626 265 626 202 q 591 369 626 329 q 482 412 551 412 q 329 356 413 412 q 158 152 225 288 q 123 11 123 84 q 177 -106 123 -61 q 323 -151 231 -151 q 1061 468 676 -151 q 1297 920 1291 837 q 1209 925 1213 925 q 1042 888 1144 925 q 909 800 940 852 q 897 754 897 779 q 923 698 897 729 q 950 662 950 668 "},"ŕ":{"x_min":-6.9375,"x_max":604.21875,"ha":547,"o":"m 283 -6 q 179 108 179 -6 q 209 236 179 166 q 276 352 240 305 q 258 351 269 351 q 202 398 225 351 l 100 265 q 0 158 13 158 q -6 163 -6 158 q 16 204 -6 177 q 187 441 137 344 q 268 562 219 562 q 300 534 300 562 q 265 463 300 506 l 231 419 q 275 390 231 390 q 330 408 300 390 l 366 430 q 380 431 369 431 q 404 418 391 431 q 412 393 416 404 l 316 272 q 227 92 227 158 q 288 26 227 26 q 445 94 352 26 q 547 184 501 134 q 594 234 590 234 q 604 224 604 234 q 591 200 604 213 l 547 150 q 463 75 509 111 q 283 -6 354 -6 m 448 600 q 366 555 376 555 q 356 562 356 555 q 362 573 356 569 l 508 686 q 531 698 523 698 q 544 682 544 698 q 533 654 544 665 q 448 600 520 644 "},"»":{"x_min":118.0625,"x_max":534.765625,"ha":583,"o":"m 472 400 q 336 588 336 573 q 348 604 336 604 q 362 598 351 604 q 530 445 401 544 q 534 434 534 444 q 465 324 534 423 q 376 202 395 225 q 345 179 356 179 q 334 187 334 179 q 472 400 334 208 m 255 400 q 119 588 119 573 q 131 604 119 604 q 145 598 134 604 q 313 445 184 544 q 318 434 318 444 q 248 324 318 423 q 159 202 179 225 q 129 179 140 179 q 118 187 118 179 q 255 400 118 208 "},"∆":{"x_min":34.71875,"x_max":594.484375,"ha":628,"o":"m 594 -2 q 293 0 463 0 q 34 -2 123 0 q 229 327 115 143 q 438 670 425 647 q 461 709 451 694 q 490 743 480 743 q 495 733 495 743 q 534 355 505 575 q 594 -2 562 136 m 319 41 l 533 45 q 493 397 525 136 q 457 659 462 659 q 450 652 452 659 q 97 51 120 122 q 319 41 97 41 "},"©":{"x_min":56.953125,"x_max":807.015625,"ha":886,"o":"m 807 505 q 637 192 807 344 q 301 40 468 40 q 129 99 202 40 q 56 256 56 158 q 229 572 56 420 q 569 725 402 725 q 737 663 668 725 q 807 505 807 602 m 754 494 q 698 640 754 583 q 555 697 643 697 q 253 554 400 697 q 106 255 106 411 q 173 119 106 170 q 320 69 233 69 q 611 208 468 69 q 754 494 754 347 m 654 569 q 629 525 654 527 l 622 530 q 629 565 626 568 q 579 612 626 612 q 350 482 470 612 q 229 243 229 352 q 296 176 229 176 q 469 234 363 176 q 573 297 575 293 q 577 293 577 297 q 466 202 577 245 q 302 159 355 159 q 219 180 250 159 q 181 248 181 202 q 318 500 181 376 q 586 625 455 625 q 654 569 654 625 "},"˘":{"x_min":63.890625,"x_max":322.25,"ha":256,"o":"m 170 508 q 69 580 91 508 q 63 605 63 593 q 70 618 63 618 q 90 597 77 618 q 186 538 120 538 q 302 627 251 538 q 318 640 308 640 q 322 634 322 640 l 319 626 q 170 508 263 508 "},"≥":{"x_min":56.953125,"x_max":345.859375,"ha":442,"o":"m 255 400 q 119 588 119 573 q 131 604 119 604 q 145 598 134 604 q 313 445 184 544 q 318 434 318 444 q 248 324 318 423 q 159 202 179 225 q 129 179 140 179 q 118 187 118 179 q 255 400 118 208 m 56 118 q 193 129 79 129 q 341 112 308 129 q 345 108 345 111 q 337 101 345 101 q 211 93 294 101 q 86 84 127 84 q 68 97 79 84 q 56 118 58 109 "},"ò":{"x_min":-13.890625,"x_max":470.875,"ha":390,"o":"m 362 294 q 269 131 362 245 q 81 -2 159 -2 l 59 -2 q 2 34 23 -2 q -13 93 -13 61 q 107 327 -13 176 q 304 477 229 477 q 375 402 375 477 q 368 352 375 383 q 394 348 369 348 q 470 375 419 348 q 361 306 469 351 q 362 294 362 301 m 272 366 q 138 255 225 366 q 51 91 51 144 q 84 38 51 38 q 236 147 144 38 q 327 302 327 255 q 272 366 305 315 m 391 545 q 384 540 391 540 q 318 575 377 540 q 245 620 259 609 q 234 645 234 632 q 245 658 234 658 q 317 610 255 658 q 385 556 379 562 q 391 545 391 550 "},"^":{"x_min":88.890625,"x_max":466.703125,"ha":514,"o":"m 258 572 q 104 455 119 455 q 88 470 88 455 q 173 552 88 484 q 277 626 259 625 l 286 623 q 459 473 338 565 l 466 459 l 461 450 q 354 501 429 452 q 258 572 279 550 "},"«":{"x_min":118.0625,"x_max":512.546875,"ha":583,"o":"m 375 393 q 511 204 511 220 q 498 188 511 188 q 484 194 495 188 q 406 276 450 240 l 316 347 q 312 359 312 350 q 381 468 312 369 q 470 591 451 568 q 501 613 490 613 q 512 605 512 613 q 375 393 512 584 m 180 393 q 315 206 315 223 q 304 188 315 188 q 290 194 301 188 q 211 276 258 237 l 122 347 q 118 355 118 350 q 188 471 118 372 q 277 592 259 570 q 306 613 294 613 q 318 605 318 613 q 180 393 318 584 "},"D":{"x_min":20.828125,"x_max":1286.21875,"ha":1279,"o":"m 259 34 q 80 -59 137 -59 q 35 -29 50 -59 q 20 34 20 0 q 77 234 20 101 q 184 368 133 368 q 229 263 211 368 q 268 112 248 159 q 541 445 362 212 q 840 769 766 741 q 891 779 865 779 q 935 768 918 779 q 952 740 952 757 q 912 712 952 716 q 762 584 863 686 q 600 400 661 486 q 294 62 451 193 q 538 -52 372 -52 q 593 -50 556 -52 q 1140 284 979 -13 q 1205 520 1205 404 q 1120 730 1205 637 q 972 825 1052 807 q 809 843 893 843 q 415 744 595 843 q 225 511 225 640 q 243 454 225 476 q 269 429 262 431 l 261 429 q 197 465 225 436 q 166 541 166 501 q 341 780 166 680 q 750 880 515 880 q 972 855 858 880 q 1179 736 1086 830 q 1286 484 1286 625 q 1225 269 1286 380 q 909 -11 1119 77 q 547 -81 741 -81 q 259 34 352 -81 m 70 40 q 87 -34 70 -2 q 231 75 147 -8 q 181 179 191 141 q 166 280 170 218 q 70 40 70 143 m 269 429 q 272 430 270 429 q 271 427 272 427 q 269 429 270 427 "},"ł":{"x_min":-43.0625,"x_max":423.640625,"ha":360,"o":"m 155 288 q 255 286 205 286 q 329 288 305 286 q 252 258 338 273 l 123 238 q 54 70 54 130 q 100 27 54 27 q 218 76 145 27 q 358 208 290 125 q 384 230 375 230 q 394 222 394 230 q 337 150 394 213 q 105 -2 198 -2 q 27 18 59 -2 q -4 93 -4 40 q 43 241 -4 147 q -43 262 -43 247 q -34 279 -43 272 q -16 286 -26 286 q 19 287 -6 286 l 66 287 q 148 427 90 331 q 379 691 311 691 q 407 681 393 691 q 423 658 422 670 q 304 497 391 615 q 155 288 216 380 "},"ÿ":{"x_min":-77.84375,"x_max":566.71875,"ha":514,"o":"m -77 -161 q 37 -244 -11 -244 q 208 -118 116 -244 q 338 116 275 -25 l 391 244 l 187 84 q 36 11 93 11 q -12 31 5 11 q -30 79 -30 52 q 72 275 -30 138 q 222 412 175 412 q 269 380 269 412 q 146 236 269 368 q 23 59 23 105 q 47 41 23 41 q 225 145 91 41 q 427 318 359 250 q 470 372 443 336 q 529 402 497 402 q 561 372 561 402 q 498 273 561 366 q 433 175 436 180 q 301 -68 390 91 q 31 -284 166 -284 q -45 -246 -12 -284 q -77 -161 -79 -208 m 318 476 q 298 491 308 476 q 288 521 288 505 q 329 566 288 537 q 393 595 370 595 q 397 594 394 595 q 377 569 395 594 l 355 513 q 318 476 338 476 m 565 594 q 545 569 563 594 l 523 513 q 486 476 506 476 q 466 491 476 476 q 456 521 456 505 q 497 566 456 537 q 561 595 538 595 l 565 594 m 398 593 q 397 594 398 594 l 398 594 l 398 593 m 566 594 l 566 593 l 565 594 l 566 594 "},"Ł":{"x_min":4.171875,"x_max":1193.15625,"ha":914,"o":"m 311 265 l 344 266 l 411 266 q 469 348 425 287 q 355 497 355 400 q 420 627 355 577 q 497 654 456 654 q 559 611 538 654 q 560 600 563 602 q 555 600 556 598 q 495 627 527 627 q 493 627 494 627 q 422 584 452 627 q 393 505 393 541 q 393 497 393 501 q 493 373 393 425 q 546 452 509 397 q 604 537 583 506 q 1063 943 880 943 q 1193 822 1193 943 q 1086 563 1193 712 q 864 376 1002 447 q 609 305 726 305 q 537 315 566 305 l 500 266 l 501 266 q 579 265 541 265 q 641 268 618 265 q 568 238 648 252 l 463 222 l 350 80 q 525 -50 398 11 q 744 -111 652 -111 q 880 -86 836 -111 q 941 5 941 -54 q 938 34 941 20 q 947 48 936 48 q 968 28 959 48 q 977 -6 977 8 q 926 -98 977 -55 q 748 -151 861 -151 q 515 -98 636 -151 q 316 44 394 -45 q 105 -66 205 -66 q 52 -55 75 -66 q 4 50 4 -27 q 68 241 4 127 q 170 362 133 355 q 227 305 195 362 l 315 136 l 379 222 l 368 223 q 284 241 284 230 q 293 259 284 252 q 308 265 301 265 l 311 265 m 1069 919 q 897 802 1000 919 q 731 582 826 720 q 559 345 636 444 q 600 341 577 341 q 822 408 697 341 q 1019 576 947 475 q 1145 844 1145 752 q 1097 915 1145 900 q 1069 919 1084 919 m 280 90 q 211 207 247 136 q 163 293 175 279 q 147 306 151 306 q 141 306 143 306 q 87 218 116 302 q 58 52 58 133 q 108 -29 58 -29 q 195 8 144 -29 q 280 90 245 45 "},"í":{"x_min":-20.828125,"x_max":408.359375,"ha":314,"o":"m 61 -16 q -20 76 -20 -16 q 61 284 -20 151 q 193 418 143 416 q 224 406 206 418 q 241 384 241 395 q 225 363 234 375 q 204 337 215 351 q 173 297 193 323 q 136 248 154 272 q 31 63 31 113 q 69 13 31 13 q 207 87 119 13 q 336 205 295 161 q 354 219 345 219 q 359 211 359 219 q 233 76 359 169 q 61 -16 106 -16 m 397 561 q 310 506 381 550 q 229 462 238 462 q 220 468 220 462 q 225 477 220 473 l 372 593 q 394 605 386 605 q 408 588 408 605 q 397 561 408 572 "},"ˆ":{"x_min":111.125,"x_max":454.203125,"ha":514,"o":"m 141 506 q 111 516 111 498 q 125 533 111 520 q 262 625 230 597 q 312 659 304 659 q 394 593 333 659 q 427 556 400 587 q 454 511 454 525 q 443 498 454 498 q 383 543 431 498 q 304 605 334 587 q 257 576 295 600 q 186 530 219 552 q 141 506 152 508 "},"w":{"x_min":-26.390625,"x_max":622.265625,"ha":624,"o":"m 558 436 q 566 444 558 444 q 605 413 591 444 q 622 322 622 387 q 534 117 622 222 q 345 12 447 12 q 267 59 297 12 q 237 156 237 106 q 259 279 237 206 q 141 140 219 238 q 36 -2 63 43 q -2 12 22 -2 q -26 41 -26 27 q 58 261 -26 75 q 184 448 143 448 q 212 434 200 448 q 225 411 225 419 q 149 268 225 404 q 75 105 73 133 q 215 275 206 265 q 391 430 350 430 q 421 417 406 430 q 436 393 436 404 q 397 331 436 383 q 331 231 358 280 q 304 131 304 181 q 362 44 304 44 l 380 44 q 517 159 455 44 q 579 343 579 273 q 561 429 579 398 q 558 436 558 431 "},"$":{"x_min":9.71875,"x_max":737.5625,"ha":746,"o":"m 255 305 q 429 339 345 305 q 554 440 513 373 q 569 484 569 466 q 529 532 569 515 q 400 566 488 550 q 212 306 283 411 q 255 305 226 305 m 309 686 q 381 623 309 645 q 534 823 445 708 q 351 755 415 812 q 309 686 309 716 m 198 288 q 80 58 80 111 q 95 27 80 34 q 92 13 101 23 q 69 4 83 4 q 48 45 48 4 q 75 159 48 86 q 151 295 88 195 q 18 405 44 322 q 9 447 9 425 q 23 494 9 469 q 87 537 48 537 q 95 534 95 537 q 79 519 95 529 l 55 502 q 40 459 40 487 q 77 368 40 408 q 163 315 115 329 q 348 577 243 434 q 255 670 255 602 q 318 770 255 720 q 556 851 413 845 q 707 1019 691 1019 q 729 1011 722 1019 q 737 995 737 1004 q 726 972 737 986 q 622 847 680 919 q 737 757 737 830 q 683 684 737 705 q 629 672 651 672 q 608 683 608 672 q 627 690 608 688 q 700 744 700 694 q 601 822 700 809 q 434 611 527 732 q 563 581 477 605 q 630 505 630 555 q 584 405 630 455 q 490 333 538 355 q 256 286 387 286 q 198 288 234 286 "},"∫":{"x_min":-695.890625,"x_max":654.21875,"ha":383,"o":"m 654 836 q 643 782 654 808 q 612 755 632 755 q 605 768 601 755 q 618 793 605 769 q 632 841 632 816 q 577 890 632 890 q 458 808 522 890 q 327 595 394 726 q 187 307 261 465 q 29 -7 113 150 q -141 -295 -54 -165 q -335 -508 -229 -426 q -547 -590 -441 -590 q -659 -560 -622 -590 q -695 -455 -695 -530 q -671 -379 -695 -412 q -630 -347 -647 -347 q -618 -352 -626 -347 q -620 -365 -611 -358 q -666 -438 -666 -386 q -631 -518 -666 -490 q -530 -547 -597 -547 q -409 -504 -463 -547 q -176 -240 -294 -416 q 22 103 -58 -65 q 204 477 104 272 q 370 786 304 682 q 568 922 458 922 q 654 836 654 922 "},"\\":{"x_min":41.671875,"x_max":816.734375,"ha":765,"o":"m 75 969 q 423 550 108 969 q 786 2 743 120 q 816 -126 816 -80 q 793 -172 816 -172 q 763 -158 773 -172 q 768 -142 758 -147 q 779 -114 779 -137 q 770 -66 779 -91 q 484 375 726 50 q 54 916 241 701 q 41 941 41 932 q 50 960 41 951 q 75 969 59 969 "},"Ì":{"x_min":29.171875,"x_max":1216.765625,"ha":800,"o":"m 991 550 l 982 587 q 993 598 982 598 q 1004 594 997 598 q 1036 531 1036 570 q 986 456 1036 493 q 859 419 936 419 q 812 423 836 419 q 579 98 716 247 q 245 -95 395 -95 q 29 159 29 -95 q 141 500 29 370 q 358 611 236 611 q 423 600 390 611 q 505 464 505 568 q 420 248 505 361 q 247 136 336 136 q 147 244 147 136 q 160 308 147 275 q 190 341 173 341 q 202 329 202 341 q 190 294 202 322 q 177 245 177 266 q 200 204 177 223 q 248 186 223 186 q 400 286 330 186 q 470 483 470 387 q 418 580 470 556 q 380 587 400 587 q 183 451 281 587 q 87 150 87 313 q 126 2 87 59 q 237 -55 166 -55 q 715 443 420 -55 q 562 623 562 488 q 744 909 562 802 q 968 976 859 976 q 1120 948 1052 976 q 1216 834 1216 911 q 1209 802 1216 818 q 1193 787 1201 787 q 1150 805 1175 805 q 826 454 1032 805 q 850 452 837 452 q 944 480 897 452 q 991 550 991 508 m 1001 937 q 838 896 930 937 q 691 776 745 855 q 636 597 636 697 q 738 477 636 497 q 936 727 815 602 q 1137 851 1057 851 q 1173 841 1158 851 q 1119 909 1172 880 q 1001 937 1072 937 m 1201 1020 q 1207 1010 1207 1016 q 1198 1004 1207 1004 q 1116 1048 1190 1004 q 1030 1102 1043 1093 q 1018 1128 1018 1111 q 1032 1145 1018 1145 q 1201 1020 1048 1145 "},"µ":{"x_min":-109.734375,"x_max":652.828125,"ha":590,"o":"m 12 15 q -56 -177 -56 -105 q -30 -247 -56 -204 q -34 -259 -27 -254 q -45 -263 -41 -263 q -51 -262 -48 -263 q -109 -138 -109 -230 q 47 186 -109 -45 l 65 213 l 2 156 q -12 148 -5 148 q -19 156 -19 148 q -5 177 -19 163 l 177 393 q 252 434 215 434 q 288 409 288 434 q 270 382 288 400 q 216 323 252 365 q 180 275 205 306 q 150 233 154 240 q 56 44 56 101 q 73 19 56 19 q 168 72 100 19 l 243 134 q 384 304 265 151 q 526 438 493 438 q 576 400 576 438 q 518 319 576 386 q 397 163 438 223 q 355 65 355 102 q 376 27 355 27 q 398 33 386 27 q 627 225 498 77 q 644 234 636 234 q 652 227 652 234 q 512 76 652 200 q 388 -8 422 -1 q 359 -9 381 -9 q 313 8 336 -9 q 290 54 290 26 q 300 118 290 83 q 315 170 311 152 l 193 48 q 73 -15 120 -15 q 12 15 26 -15 "},"Ç":{"x_min":43.0625,"x_max":1107.03125,"ha":1008,"o":"m 316 -294 q 249 -394 316 -358 q 109 -430 181 -430 q 97 -416 97 -430 q 109 -405 97 -408 q 209 -390 176 -394 q 258 -309 258 -375 q 222 -238 258 -290 q 186 -161 186 -187 q 220 -66 186 -101 q 43 215 43 2 q 251 647 43 427 q 525 835 366 768 q 825 902 683 902 q 955 884 900 902 q 1107 694 1107 837 q 1055 543 1107 607 q 751 386 927 386 q 611 424 668 386 q 554 520 554 462 q 650 668 554 594 q 675 680 666 680 q 683 675 683 680 q 661 652 683 661 q 583 526 583 590 q 625 449 583 480 q 729 418 666 418 q 986 548 865 418 q 1048 705 1048 616 q 982 837 1048 794 q 832 876 926 876 q 558 808 695 876 q 252 553 388 726 q 115 220 115 380 q 201 25 115 94 q 415 -43 287 -43 q 701 27 561 -43 q 886 169 808 83 q 920 194 908 194 q 929 179 929 194 q 913 150 929 165 q 701 0 840 72 q 366 -90 530 -90 q 255 -77 308 -90 q 236 -136 236 -104 q 276 -204 236 -151 q 316 -294 316 -256 "},"’":{"x_min":73.609375,"x_max":195.84375,"ha":193,"o":"m 195 559 q 150 453 195 500 q 84 406 105 406 q 73 411 73 406 q 88 427 79 418 q 105 447 97 437 q 134 500 134 479 q 115 538 134 522 q 97 563 97 555 q 137 605 97 605 q 177 592 158 605 q 195 559 195 579 "},"-":{"x_min":26.390625,"x_max":397.25,"ha":413,"o":"m 145 361 l 280 359 q 395 363 361 359 q 397 359 397 362 q 287 319 397 338 q 175 302 227 311 q 109 293 123 293 q 60 299 94 293 q 26 326 26 305 q 38 350 26 340 q 58 359 50 359 q 75 361 66 359 l 111 361 q 145 361 126 361 "},"Q":{"x_min":33.34375,"x_max":1155.640625,"ha":1107,"o":"m 134 -113 q 119 -61 119 -113 q 122 -26 119 -41 q 33 173 33 41 q 90 400 33 273 q 372 711 162 559 q 872 883 613 883 q 1083 829 1011 883 q 1155 694 1155 775 q 1116 570 1155 644 q 1127 494 1127 533 q 950 162 1127 320 q 615 -37 791 20 q 995 -240 897 -240 q 1036 -228 1018 -240 q 1054 -200 1054 -216 q 1044 -170 1054 -184 q 1040 -155 1040 -161 q 1064 -162 1040 -136 q 1088 -218 1088 -188 q 1061 -266 1088 -247 q 988 -286 1033 -286 q 529 -62 844 -286 q 336 -81 443 -81 q 163 -51 229 -81 q 134 -113 144 -113 m 1098 612 q 1112 686 1112 645 q 1082 770 1112 727 q 870 854 1022 854 q 475 724 661 854 q 184 397 288 594 q 108 140 108 254 q 138 23 108 68 q 176 91 154 61 q 266 141 211 141 q 379 109 322 141 q 570 -6 454 69 q 852 166 719 48 q 1044 468 1029 322 q 794 279 972 388 l 783 276 q 782 277 782 276 q 819 315 782 283 l 897 379 q 1043 522 997 466 q 973 652 1033 600 q 834 727 912 704 q 714 740 795 737 q 633 745 633 743 q 636 751 633 748 q 759 772 700 772 q 894 754 818 772 q 1098 612 1040 719 m 486 -33 q 268 63 326 63 q 188 19 209 63 l 175 -13 q 293 -52 222 -51 q 320 -52 306 -52 q 486 -33 401 -52 "},"M":{"x_min":22.21875,"x_max":1795.984375,"ha":1578,"o":"m 587 56 q 554 -9 554 5 q 566 -31 554 -25 q 541 -52 566 -33 q 491 -63 519 -63 q 451 -57 463 -63 q 443 -37 438 -51 q 588 213 462 25 q 758 479 715 401 q 851 747 851 647 q 837 818 851 788 q 705 875 809 875 q 369 734 543 875 q 156 496 230 622 q 83 272 83 370 q 208 127 83 130 q 219 127 213 127 q 466 243 379 127 q 500 320 500 288 q 486 361 500 352 q 484 366 484 362 q 493 370 484 370 q 529 323 529 370 q 500 244 529 294 q 400 150 472 194 q 231 105 327 105 q 79 165 136 105 q 22 322 22 225 q 308 770 22 541 q 502 866 381 829 q 732 904 622 904 q 881 866 841 904 q 920 763 920 827 q 841 501 920 666 q 729 313 816 450 l 836 450 q 1105 738 913 551 q 1198 806 1147 779 q 1284 833 1248 833 q 1334 780 1334 833 q 1291 642 1334 734 q 1202 467 1247 550 q 1148 359 1158 384 q 1134 318 1138 333 q 1129 301 1130 302 q 1220 407 1133 308 q 1479 655 1308 506 l 1701 838 q 1748 861 1727 861 q 1782 826 1769 861 q 1795 770 1795 791 q 1729 680 1795 748 q 1434 291 1555 502 q 1314 -9 1314 80 q 1322 -42 1314 -33 q 1348 -47 1330 -51 q 1424 -19 1366 -44 q 1500 9 1482 5 q 1507 2 1507 6 q 1434 -55 1507 -18 q 1324 -93 1361 -93 q 1279 -80 1287 -93 q 1254 6 1254 -44 q 1382 350 1254 126 q 1634 727 1464 490 q 1273 395 1501 619 q 975 45 1045 172 q 887 -19 938 -19 q 863 -2 863 -19 q 892 47 863 2 q 1018 255 920 91 q 1257 755 1257 670 q 1241 777 1257 777 q 1176 740 1219 777 q 848 402 1022 611 q 587 56 675 194 "},"C":{"x_min":43.0625,"x_max":1107.03125,"ha":1008,"o":"m 751 386 q 611 424 668 386 q 554 520 554 462 q 650 668 554 594 q 675 680 666 680 q 683 675 683 680 q 661 652 683 661 q 583 526 583 590 q 625 449 583 480 q 729 418 666 418 q 986 548 865 418 q 1048 705 1048 616 q 982 837 1048 794 q 832 876 926 876 q 558 808 695 876 q 252 553 388 726 q 115 220 115 380 q 201 25 115 94 q 415 -43 287 -43 q 701 27 561 -43 q 886 169 808 83 q 920 194 908 194 q 929 179 929 194 q 913 150 929 165 q 701 0 840 72 q 357 -90 530 -90 q 100 23 184 -90 q 43 202 43 98 q 54 301 43 248 q 251 647 91 479 q 525 835 366 768 q 825 902 683 902 q 955 884 900 902 q 1107 694 1107 837 q 1055 543 1107 607 q 751 386 927 386 "},"œ":{"x_min":-13.890625,"x_max":729.21875,"ha":645,"o":"m 358 -18 q 330 -13 343 -18 q 241 86 241 11 l 241 100 q 81 -2 151 -2 l 59 -2 q 2 34 23 -2 q -13 93 -13 61 q 107 327 -13 176 q 304 477 229 477 q 375 402 375 477 q 378 381 375 400 q 380 350 381 362 q 378 333 379 338 q 377 326 377 327 q 583 438 493 438 q 635 421 615 438 q 655 379 655 404 q 538 230 655 301 q 347 159 422 159 q 327 162 336 159 q 306 83 306 125 q 375 11 306 11 q 554 104 444 11 q 698 250 636 169 q 720 266 711 266 q 729 258 729 266 q 718 234 729 250 q 536 57 641 133 q 358 -18 431 -18 m 327 315 q 291 369 327 369 q 272 366 283 369 q 138 255 225 366 q 51 91 51 144 q 84 38 51 38 q 237 148 144 38 l 270 190 q 311 252 280 208 q 327 295 327 281 q 327 315 327 309 m 620 381 q 585 398 620 398 q 484 344 550 398 q 348 193 397 272 q 366 190 356 190 q 507 246 419 190 q 618 369 595 302 q 620 381 620 376 "},"!":{"x_min":106.953125,"x_max":526.4375,"ha":360,"o":"m 193 162 q 187 188 183 162 q 316 453 204 284 q 469 622 429 622 q 506 616 486 622 q 526 598 526 609 q 520 588 526 594 q 349 378 462 527 q 221 195 236 229 q 193 162 206 162 m 161 91 q 200 78 181 91 q 218 47 218 65 q 200 15 218 29 q 162 2 183 2 q 124 18 141 2 q 106 52 106 33 q 161 91 106 91 "},"ç":{"x_min":-108.34375,"x_max":472.265625,"ha":393,"o":"m 111 -251 q 43 -352 111 -316 q -95 -388 -23 -388 q -108 -373 -108 -388 q -95 -362 -108 -366 q 4 -347 -29 -351 q 52 -266 52 -331 q 16 -196 52 -248 q -19 -111 -19 -144 q -2 -45 -19 -77 q 45 -1 15 -13 q -11 86 -11 26 q 111 311 -11 183 q 330 438 233 438 q 382 421 362 438 q 402 374 402 404 q 384 311 402 344 q 330 279 366 279 q 294 301 294 279 q 313 347 294 316 q 331 381 331 379 q 327 383 331 383 q 221 327 288 379 q 129 241 154 276 l 75 162 q 54 109 61 140 q 48 63 48 79 q 65 29 48 48 q 115 9 83 9 q 287 90 184 9 q 445 245 390 172 q 462 254 452 254 q 472 248 472 254 q 465 234 472 243 q 282 57 388 133 q 105 -18 176 -18 q 80 -15 86 -18 q 73 -12 75 -12 q 29 -94 29 -34 q 70 -161 29 -109 q 111 -251 111 -213 "},"È":{"x_min":4.171875,"x_max":1077.859375,"ha":960,"o":"m 700 565 q 836 513 836 565 q 827 488 836 502 q 707 437 794 437 q 590 457 650 437 q 500 500 530 477 q 270 384 370 462 q 119 208 169 306 q 93 105 93 155 q 157 -20 93 27 q 347 -69 222 -69 q 419 -65 381 -69 q 770 76 640 -41 q 880 280 880 173 q 798 365 880 365 q 572 259 700 365 q 518 193 540 233 q 495 113 495 152 q 534 65 495 75 q 548 51 548 59 q 520 40 548 37 q 454 127 454 41 q 541 288 454 213 q 794 391 661 391 q 920 329 894 391 q 932 270 932 300 q 788 27 932 141 q 355 -111 618 -111 q 98 -50 193 -111 q 4 106 4 9 q 40 220 4 163 q 476 522 168 423 q 430 634 430 575 q 459 734 430 694 q 630 862 516 812 q 902 922 766 922 q 1029 896 982 922 q 1077 817 1077 870 q 1038 727 1077 763 q 955 690 998 690 q 912 711 912 690 q 930 723 912 723 l 958 719 q 1009 749 986 719 q 1032 811 1032 779 q 977 880 1032 858 q 912 894 943 894 q 869 893 882 894 q 636 809 750 886 q 502 612 502 722 q 530 537 502 572 q 700 565 619 565 m 554 515 q 691 468 613 468 q 769 511 769 468 q 700 530 769 530 q 554 515 630 530 m 984 1005 q 990 995 990 1001 q 982 988 990 988 q 900 1033 973 988 q 814 1086 826 1077 q 802 1113 802 1095 q 815 1130 802 1130 q 984 1005 834 1130 "},"ﬁ":{"x_min":-337.53125,"x_max":709.78125,"ha":650,"o":"m 566 679 q 541 636 566 636 q 527 647 534 636 q 486 669 515 669 q 366 577 422 669 q 297 447 355 559 l 313 447 q 515 451 465 447 q 520 445 520 450 q 422 415 520 434 q 269 388 329 400 q 165 177 226 300 q 0 -112 40 -55 q -236 -284 -120 -284 q -306 -250 -276 -284 q -337 -175 -336 -216 q -325 -158 -333 -158 q -319 -168 -320 -158 q -291 -223 -311 -204 q -251 -243 -272 -243 q -36 -97 -133 -243 q 115 202 19 -13 l 190 383 q 51 416 51 384 q 64 440 51 430 q 87 450 77 450 l 218 447 q 468 750 354 750 q 555 708 511 750 q 566 679 566 697 m 637 566 q 677 553 658 566 q 695 522 695 540 q 678 491 695 504 q 640 477 661 477 q 602 493 619 477 q 584 527 584 508 q 637 566 584 566 m 386 -15 q 315 76 315 -15 q 397 284 315 151 q 529 418 479 416 q 560 406 543 418 q 577 384 577 395 q 561 363 570 375 q 540 337 551 351 q 509 297 529 323 q 472 248 490 272 q 368 63 368 113 q 402 12 368 12 q 481 44 431 12 q 666 202 598 116 q 700 234 691 234 q 709 223 709 234 q 677 179 709 212 q 627 126 645 145 q 601 100 608 106 q 575 77 594 94 q 547 52 556 59 q 519 31 537 45 q 487 11 501 18 q 455 -2 473 5 q 386 -15 426 -15 "},"{":{"x_min":12.5,"x_max":523.65625,"ha":449,"o":"m 212 241 q 189 97 212 195 q 166 -58 166 0 q 205 -133 166 -116 l 295 -150 l 308 -161 q 281 -169 288 -169 q 165 -150 204 -169 q 111 -47 111 -122 q 136 99 111 1 q 161 248 161 197 q 12 359 161 356 l 27 381 q 163 422 126 393 q 229 545 211 456 l 259 716 q 333 845 280 802 q 498 888 386 888 q 505 888 502 888 l 508 888 q 523 876 516 888 l 505 869 q 355 809 398 869 q 306 658 326 769 q 281 543 301 622 q 120 368 236 395 q 212 241 212 334 "},"X":{"x_min":-231.96875,"x_max":1434.84375,"ha":889,"o":"m 1397 894 q 1061 697 1305 894 q 775 441 902 569 q 745 345 763 412 q 686 51 686 129 q 709 11 686 11 q 909 152 766 11 q 933 161 933 176 q 833 45 933 119 q 657 -47 708 -47 q 611 15 611 -47 q 675 315 611 77 l 690 376 q 152 -18 383 106 q -101 -105 -8 -105 q -123 -104 -112 -105 q -231 29 -231 -88 q -152 277 -231 147 q -105 326 -123 326 q -100 317 -100 326 q -109 294 -100 308 q -186 68 -186 172 q -161 -29 -186 11 q -76 -73 -129 -73 q 291 111 34 -73 q 687 434 479 245 l 709 454 q 741 701 741 593 q 691 843 741 809 q 615 863 661 863 q 526 850 569 863 q 272 672 368 801 q 177 437 177 544 q 258 330 177 330 q 368 370 302 330 q 384 384 384 383 q 375 366 388 380 q 229 311 319 311 q 143 338 175 311 q 111 413 111 365 q 112 431 111 422 q 290 748 129 616 q 616 880 452 880 q 694 870 661 880 q 805 666 805 834 q 790 529 805 609 q 1095 779 934 657 q 1309 916 1255 901 q 1382 932 1364 932 q 1408 929 1401 932 q 1434 906 1434 919 q 1400 894 1434 893 q 1397 894 1398 894 "},"ô":{"x_min":-13.890625,"x_max":477.8125,"ha":390,"o":"m 362 294 q 269 131 362 245 q 81 -2 159 -2 l 59 -2 q 2 34 23 -2 q -13 93 -13 61 q 107 327 -13 176 q 304 477 229 477 q 375 402 375 477 q 368 352 375 383 q 394 348 369 348 q 470 375 419 348 q 361 306 469 351 q 362 294 362 301 m 272 366 q 138 255 225 366 q 51 91 51 144 q 84 38 51 38 q 236 147 144 38 q 327 302 327 255 q 272 366 305 315 m 358 593 q 270 526 279 526 q 262 534 262 526 q 309 581 262 543 q 369 623 356 620 l 375 622 q 473 536 405 587 l 477 529 l 473 523 q 416 550 458 523 q 358 593 375 576 "},"¼":{"x_min":-1.390625,"x_max":998.6875,"ha":1107,"o":"m 711 -95 q 687 -31 687 -95 q 723 127 687 31 q 611 145 658 145 q 463 104 563 145 q 447 109 454 101 q 440 134 440 116 q 458 157 440 151 q 505 169 476 163 q 642 259 550 193 q 759 341 734 326 q 948 487 929 447 l 957 498 q 970 504 961 504 q 998 488 998 504 q 997 486 998 486 l 851 275 q 768 141 802 202 q 858 122 829 122 q 908 136 887 122 q 932 176 932 156 q 929 205 932 195 q 934 215 926 215 q 948 206 943 215 q 963 155 963 180 q 862 98 963 98 q 754 119 819 98 q 715 -15 715 44 q 719 -58 715 -43 q 725 -80 723 -73 q 711 -95 725 -95 m 251 580 q 259 572 259 580 q 247 559 259 559 q 140 544 187 559 q 15 497 93 529 q 3 501 8 494 q -1 519 -1 508 q 13 536 -1 530 q 90 563 27 541 l 300 945 q 183 890 256 918 q 170 898 170 886 q 177 909 170 905 q 336 1009 233 930 l 340 1018 q 376 1033 350 1033 q 402 1020 402 1033 q 131 570 402 1018 q 251 580 184 580 m 291 191 q 286 161 286 172 q 293 146 286 150 q 295 136 300 143 q 277 129 290 129 q 263 156 263 129 q 286 245 263 184 q 500 562 309 305 q 709 813 690 813 q 726 806 718 813 q 722 782 734 798 q 464 459 608 651 q 291 191 320 266 m 563 177 q 635 181 605 181 q 736 154 665 181 q 893 406 769 230 q 720 289 837 373 q 563 177 604 205 "},"#":{"x_min":-13.5,"x_max":1081.03125,"ha":1099,"o":"m 801 658 l 1032 663 q 1081 653 1081 663 q 1049 632 1081 643 q 911 601 971 601 l 781 601 l 689 358 l 889 359 q 958 344 958 359 q 928 323 958 333 q 790 297 853 297 l 665 295 l 617 162 q 544 52 579 52 q 528 75 528 52 q 535 127 528 97 q 597 295 560 190 l 324 294 l 275 162 q 204 52 237 52 q 186 76 186 52 q 194 127 186 100 q 262 294 224 194 l 117 293 q -13 329 -13 293 q 57 356 -13 352 l 287 358 q 375 600 322 452 q 229 598 233 598 q 110 629 118 598 q 178 662 99 657 q 397 659 208 662 l 461 840 q 496 901 483 901 q 508 863 508 901 q 486 727 505 782 l 461 659 q 726 657 678 657 q 840 898 815 894 q 854 862 854 901 q 828 727 850 786 l 801 658 m 439 600 l 347 358 l 619 358 q 706 601 635 402 l 439 600 "},"":{"x_min":25,"x_max":561.15625,"ha":585,"o":"m 500 163 q 413 100 445 100 q 356 114 380 100 q 301 129 333 129 q 247 114 269 129 q 190 100 225 100 q 102 163 156 100 q 25 391 25 258 q 52 511 25 459 q 184 598 100 598 q 273 572 197 598 q 300 569 286 569 q 347 579 313 569 q 393 594 380 588 q 425 600 405 600 q 544 531 502 600 q 477 452 495 511 q 470 399 470 427 q 483 338 470 370 q 561 270 506 284 q 500 163 544 219 m 301 613 q 331 693 301 650 q 376 734 348 719 q 413 750 404 750 q 425 748 422 750 q 429 729 429 741 q 395 636 429 683 q 308 588 362 588 q 305 588 306 588 q 301 613 301 601 "},"Ĳ":{"x_min":29.171875,"x_max":2236.296875,"ha":1908,"o":"m 991 550 l 982 587 q 993 598 982 598 q 1004 594 997 598 q 1036 531 1036 570 q 986 456 1036 493 q 859 419 936 419 q 812 423 836 419 q 579 98 716 247 q 245 -95 395 -95 q 29 159 29 -95 q 141 500 29 370 q 358 611 236 611 q 423 600 390 611 q 505 464 505 568 q 420 248 505 361 q 247 136 336 136 q 147 244 147 136 q 160 308 147 275 q 190 341 173 341 q 202 329 202 341 q 190 294 202 322 q 177 245 177 266 q 200 204 177 223 q 248 186 223 186 q 400 286 330 186 q 470 483 470 387 q 418 580 470 556 q 380 587 400 587 q 183 451 281 587 q 87 150 87 313 q 126 2 87 59 q 237 -55 166 -55 q 715 443 420 -55 q 562 623 562 488 q 744 909 562 802 q 968 976 859 976 q 1120 948 1052 976 q 1216 834 1216 911 q 1209 802 1216 818 q 1193 787 1201 787 q 1150 805 1175 805 q 826 454 1032 805 q 850 452 837 452 q 944 480 897 452 q 991 550 991 508 m 1001 937 q 838 896 930 937 q 691 776 745 855 q 636 597 636 697 q 738 477 636 497 q 936 727 815 602 q 1137 851 1057 851 q 1173 841 1158 851 q 1119 909 1172 880 q 1001 937 1072 937 m 1637 662 q 1609 651 1637 651 q 1552 679 1580 651 q 1523 749 1523 708 q 1548 823 1523 790 q 1725 926 1601 895 q 1902 948 1814 948 l 1914 948 q 1982 944 1925 948 q 1996 978 1979 962 q 2036 994 2014 994 q 2076 934 2077 994 q 2234 854 2226 908 q 2236 833 2236 841 q 2219 805 2236 805 q 2209 838 2202 805 q 2072 911 2175 890 q 1811 422 2047 798 q 1445 8 1654 175 q 995 -180 1207 -180 q 804 -115 866 -180 q 741 29 741 -50 q 772 166 741 109 q 984 387 844 308 q 1175 447 1087 447 q 1323 401 1269 447 q 1376 286 1376 355 q 1320 150 1376 211 q 1265 111 1286 111 q 1259 115 1259 111 q 1263 129 1259 120 q 1314 265 1314 202 q 1277 369 1314 329 q 1169 412 1238 412 q 1016 356 1100 412 q 845 152 912 288 q 811 11 811 84 q 865 -106 811 -61 q 1011 -151 919 -151 q 1748 468 1364 -151 q 1984 920 1979 837 q 1897 925 1901 925 q 1730 888 1832 925 q 1597 800 1627 852 q 1584 754 1584 779 q 1611 698 1584 729 q 1637 662 1637 668 "},"Ê":{"x_min":4.171875,"x_max":1144.53125,"ha":960,"o":"m 700 565 q 836 513 836 565 q 827 488 836 502 q 707 437 794 437 q 590 457 650 437 q 500 500 530 477 q 270 384 370 462 q 119 208 169 306 q 93 105 93 155 q 157 -20 93 27 q 347 -69 222 -69 q 419 -65 381 -69 q 770 76 640 -41 q 880 280 880 173 q 798 365 880 365 q 572 259 700 365 q 518 193 540 233 q 495 113 495 152 q 534 65 495 75 q 548 51 548 59 q 520 40 548 37 q 454 127 454 41 q 541 288 454 213 q 794 391 661 391 q 920 329 894 391 q 932 270 932 300 q 788 27 932 141 q 355 -111 618 -111 q 98 -50 193 -111 q 4 106 4 9 q 40 220 4 163 q 476 522 168 423 q 430 634 430 575 q 459 734 430 694 q 630 862 516 812 q 902 922 766 922 q 1029 896 982 922 q 1077 817 1077 870 q 1038 727 1077 763 q 955 690 998 690 q 912 711 912 690 q 930 723 912 723 l 958 719 q 1009 749 986 719 q 1032 811 1032 779 q 977 880 1032 858 q 912 894 943 894 q 869 893 882 894 q 636 809 750 886 q 502 612 502 722 q 530 537 502 572 q 700 565 619 565 m 554 515 q 691 468 613 468 q 769 511 769 468 q 700 530 769 530 q 554 515 630 530 m 832 993 q 801 1002 801 984 q 815 1019 801 1007 q 952 1111 920 1083 q 1002 1145 994 1145 q 1082 1081 1023 1145 q 1142 1009 1140 1016 q 1144 998 1144 1001 q 1133 984 1144 984 q 1073 1029 1122 984 q 994 1091 1025 1073 q 947 1062 986 1086 q 876 1016 909 1038 q 832 993 843 994 "},")":{"x_min":12.5,"x_max":901.46875,"ha":904,"o":"m 41 -48 q 12 -31 12 -44 q 47 -16 12 -18 q 497 186 290 6 q 737 482 651 319 q 823 765 823 645 q 615 1019 823 1002 q 584 1034 584 1020 q 616 1054 584 1054 q 629 1054 622 1054 q 820 953 740 1043 q 901 722 901 863 q 844 484 901 611 q 543 148 762 305 q 41 -48 298 -27 "},"Å":{"x_min":-1.390625,"x_max":1704.296875,"ha":1417,"o":"m 980 365 q 890 355 932 362 q 807 361 801 338 q 859 412 812 412 q 1013 401 951 401 q 1370 761 1133 511 q 1541 919 1491 888 q 1519 964 1519 932 q 1534 1030 1519 997 q 1573 1070 1550 1063 q 1644 1115 1597 1115 q 1686 1093 1669 1115 q 1704 1032 1704 1072 q 1664 952 1704 993 q 1579 912 1625 912 q 1580 895 1580 908 q 1568 832 1580 882 q 1540 770 1555 782 q 1480 710 1508 748 q 1401 567 1452 672 q 1314 397 1350 462 l 1448 400 q 1498 393 1498 400 q 1295 361 1498 375 q 1166 16 1166 108 q 1207 -47 1166 -47 q 1245 -28 1222 -47 q 1273 -9 1268 -9 q 1277 -16 1277 -9 q 1235 -58 1270 -41 q 1175 -75 1200 -75 q 1137 -72 1151 -75 q 1104 8 1104 -59 q 1211 365 1104 148 l 1044 361 q 670 41 858 179 q 231 -162 390 -162 q 212 -161 222 -162 q -1 58 -1 -143 q 73 311 -1 177 q 347 614 173 488 q 658 740 520 740 q 795 638 795 740 q 754 487 795 570 q 669 381 712 404 q 660 380 665 380 q 655 383 655 380 l 701 458 q 748 587 748 531 q 724 677 748 643 q 647 711 700 711 q 388 590 538 711 q 159 293 237 469 q 80 18 80 116 q 231 -130 80 -130 q 623 55 376 -130 q 980 365 733 137 m 1425 736 l 1069 402 l 1151 402 q 1223 401 1180 401 q 1425 736 1263 480 m 1591 938 q 1647 971 1623 938 q 1670 1047 1670 1004 q 1640 1090 1670 1090 q 1600 1072 1623 1090 l 1615 1063 q 1592 1027 1614 1059 q 1570 966 1570 994 q 1591 938 1570 938 "},"ø":{"x_min":-55.5625,"x_max":538.9375,"ha":390,"o":"m 22 9 q -13 93 -13 45 q 107 327 -13 176 q 304 477 229 477 q 348 465 331 477 q 512 650 491 650 q 531 643 525 650 q 538 628 538 636 q 495 571 538 620 q 373 422 452 522 l 375 402 q 368 352 375 383 q 394 348 369 348 q 470 375 419 348 q 361 306 469 351 q 362 294 362 301 q 269 131 362 245 q 81 -2 159 -2 l 58 -2 q -27 -177 -27 -133 q -15 -204 -27 -197 q -16 -215 -11 -206 q -38 -225 -22 -225 q -55 -194 -55 -225 q 22 9 -55 -108 m 327 302 q 300 327 313 309 q 86 38 133 106 q 236 147 144 40 q 327 302 327 255 m 272 366 q 138 255 225 366 q 51 86 51 144 q 54 61 51 72 q 272 365 94 122 l 272 366 "},"â":{"x_min":-12.109375,"x_max":662.9375,"ha":572,"o":"m 461 415 l 480 419 q 510 406 496 419 q 524 386 524 393 q 437 253 524 380 q 351 76 351 126 q 353 68 351 72 q 383 36 360 36 q 647 275 455 36 q 657 280 651 280 q 662 270 662 280 q 650 243 662 259 q 379 5 472 5 q 355 9 367 5 q 294 101 294 33 q 300 148 294 125 l 212 65 q 95 -6 132 -6 q 25 16 58 -6 q -12 90 -12 44 q 129 332 -12 191 q 389 473 271 473 q 450 441 435 473 q 457 422 454 430 q 461 415 460 415 m 46 73 q 80 23 46 23 q 299 200 160 23 q 447 402 435 384 q 411 422 436 422 q 186 290 326 422 q 46 73 46 159 m 367 526 q 361 534 361 526 q 408 581 361 543 q 468 623 455 620 l 474 622 q 572 537 505 586 l 576 529 l 572 523 q 515 550 557 523 q 457 593 474 576 q 367 526 378 526 "},"}":{"x_min":20.828125,"x_max":584.765625,"ha":590,"o":"m 37 -166 l 36 -166 q 20 -154 27 -166 q 91 -141 36 -147 q 225 -41 186 -136 l 279 127 q 359 279 313 237 q 495 356 415 333 q 394 466 394 381 q 429 627 394 525 q 463 784 463 730 q 426 851 463 838 l 344 863 l 333 873 l 352 884 q 461 872 425 884 q 522 789 522 851 q 484 620 522 727 q 445 462 445 513 q 487 387 445 411 q 584 365 522 370 l 566 341 q 393 268 445 338 q 326 91 362 225 q 251 -84 295 -31 q 37 -166 181 -166 "},"‰":{"x_min":131.953125,"x_max":1168.15625,"ha":1201,"o":"m 895 979 q 909 982 901 982 q 927 972 918 982 q 936 954 936 963 q 923 929 936 944 q 493 388 736 713 q 206 -54 251 62 q 198 -102 198 -79 q 209 -130 198 -125 q 213 -145 219 -136 q 184 -159 204 -159 q 161 -113 161 -159 q 193 21 161 -68 q 460 434 226 111 q 841 923 694 757 q 672 861 772 890 q 506 829 573 832 q 508 816 508 823 q 415 654 508 768 q 227 519 305 519 l 205 519 q 148 556 169 519 q 131 615 131 583 q 253 849 131 698 q 450 1000 375 1000 q 520 925 520 1000 q 513 875 520 905 q 527 872 515 872 q 570 876 540 872 q 895 979 711 893 m 816 226 q 784 195 816 208 q 786 183 786 190 q 693 20 786 134 q 505 -113 583 -113 l 483 -113 q 426 -76 447 -113 q 409 -18 409 -50 q 531 215 409 65 q 727 366 652 366 q 798 291 798 366 q 791 241 798 272 q 804 236 791 240 q 816 226 816 233 m 418 888 q 284 777 370 888 q 197 613 197 666 q 230 561 197 561 q 381 669 290 561 q 473 825 473 777 q 418 888 451 837 m 695 255 q 561 144 648 255 q 475 -19 475 33 q 508 -72 475 -72 q 659 36 568 -72 q 751 191 751 144 q 695 255 729 204 m 1168 226 q 1136 195 1168 208 q 1137 183 1137 190 q 1044 20 1137 134 q 857 -113 934 -113 l 834 -113 q 777 -76 798 -113 q 761 -18 761 -50 q 882 215 761 65 q 1079 366 1004 366 q 1150 291 1150 366 q 1143 241 1150 272 q 1155 236 1143 240 q 1168 226 1168 233 m 1047 255 q 913 144 1000 255 q 826 -19 826 33 q 859 -72 826 -72 q 1011 36 919 -72 q 1102 191 1102 144 q 1047 255 1080 204 "},"Ä":{"x_min":-1.390625,"x_max":1769.578125,"ha":1417,"o":"m 1314 397 l 1448 400 q 1498 393 1498 400 q 1295 361 1498 375 q 1166 16 1166 108 q 1207 -47 1166 -47 q 1245 -28 1222 -47 q 1273 -9 1268 -9 q 1277 -16 1277 -9 q 1235 -58 1270 -41 q 1175 -75 1200 -75 q 1137 -72 1151 -75 q 1104 8 1104 -59 q 1211 365 1104 148 l 1044 361 q 670 41 858 179 q 231 -162 390 -162 q 212 -161 222 -162 q -1 58 -1 -143 q 73 311 -1 177 q 347 614 173 488 q 658 740 520 740 q 795 638 795 740 q 754 487 795 570 q 669 381 712 404 q 660 380 665 380 q 655 383 655 380 l 701 458 q 748 587 748 531 q 724 677 748 643 q 647 711 700 711 q 388 590 538 711 q 159 293 237 469 q 80 18 80 116 q 231 -130 80 -130 q 623 55 376 -130 q 980 365 733 137 q 890 355 932 362 q 807 361 801 338 q 859 412 812 412 q 1013 401 951 401 q 1370 761 1133 511 q 1565 929 1530 929 q 1580 905 1580 929 q 1568 832 1580 882 q 1540 770 1555 782 q 1480 710 1508 748 q 1401 567 1452 672 q 1314 397 1350 462 m 1425 736 l 1069 402 l 1151 402 q 1223 401 1180 401 q 1425 736 1263 480 m 1768 1141 q 1748 1116 1766 1141 l 1726 1061 q 1689 1023 1709 1023 q 1669 1038 1679 1023 q 1659 1068 1659 1052 q 1700 1113 1659 1084 q 1764 1143 1741 1143 l 1768 1141 m 1520 1023 q 1501 1038 1511 1023 q 1491 1068 1491 1052 q 1532 1113 1491 1084 q 1595 1143 1573 1143 q 1600 1141 1597 1143 q 1580 1116 1598 1141 l 1558 1061 q 1520 1023 1541 1023 m 1769 1141 l 1769 1140 l 1768 1141 l 1769 1141 m 1601 1141 l 1601 1140 l 1600 1141 l 1601 1141 "},"¸":{"x_min":20.828125,"x_max":240.296875,"ha":311,"o":"m 240 -251 q 172 -352 240 -316 q 33 -388 105 -388 q 20 -373 20 -388 q 33 -362 20 -366 q 133 -347 100 -351 q 181 -266 181 -331 q 145 -196 181 -248 q 109 -118 109 -144 q 136 -33 109 -69 q 206 2 163 2 q 223 -6 222 2 q 177 -36 194 -12 q 159 -94 159 -61 q 200 -161 159 -109 q 240 -251 240 -213 "},"a":{"x_min":-12.109375,"x_max":662.9375,"ha":572,"o":"m 461 415 l 480 419 q 510 406 496 419 q 524 387 524 394 q 437 253 524 380 q 351 76 351 126 q 353 68 351 72 q 383 36 360 36 q 647 275 455 36 q 657 280 651 280 q 662 270 662 280 q 650 243 662 259 q 379 5 472 5 q 355 9 367 5 q 294 101 294 33 q 300 148 294 125 l 214 65 q 95 -6 132 -6 q 25 16 58 -6 q -12 90 -12 44 q 129 332 -12 191 q 389 473 271 473 q 450 441 435 473 q 457 422 454 430 q 461 415 460 415 m 46 73 q 80 23 46 23 q 300 200 161 23 l 447 402 q 411 422 436 422 q 186 290 326 422 q 46 73 46 159 "},"—":{"x_min":26.390625,"x_max":844.953125,"ha":840,"o":"m 397 361 l 657 358 q 844 363 784 358 q 647 319 854 341 q 401 295 565 312 q 196 286 366 286 q 26 306 26 286 q 39 341 26 322 q 61 359 52 359 q 88 359 75 359 l 145 361 l 309 361 q 397 361 361 361 "},"=":{"x_min":26.390625,"x_max":597.265625,"ha":564,"o":"m 270 529 l 452 527 q 595 530 540 527 q 597 526 597 529 q 487 487 597 506 l 333 462 q 291 459 323 459 q 165 466 259 459 q 72 493 72 472 q 84 517 72 508 q 105 526 95 526 l 125 526 q 270 529 200 529 m 291 361 l 436 359 q 550 363 515 359 q 551 357 551 361 q 541 347 551 354 q 450 322 518 333 q 328 302 383 311 q 240 293 273 293 q 148 297 208 293 q 26 326 26 305 q 38 350 26 340 q 59 359 50 359 l 80 359 l 115 361 l 226 361 q 291 361 261 361 "},"N":{"x_min":2.78125,"x_max":1529.875,"ha":1285,"o":"m 558 16 q 525 -50 525 -34 q 537 -72 525 -66 q 514 -89 537 -75 q 451 -104 491 -104 q 411 -83 411 -104 q 547 156 411 -47 q 727 437 684 359 q 822 705 822 607 q 807 777 822 744 q 693 827 783 827 q 341 676 527 827 q 123 434 200 559 q 54 223 54 316 q 177 87 54 90 q 188 87 183 87 q 437 202 352 87 q 470 280 470 248 q 455 320 470 312 q 454 326 454 322 q 462 330 454 330 q 498 283 498 330 q 470 204 498 254 q 370 109 443 154 q 204 65 297 65 q 56 119 111 65 q 2 265 2 173 q 300 720 2 481 q 495 820 375 780 q 713 861 615 861 q 851 824 811 861 q 891 722 891 787 q 700 273 891 563 q 840 411 743 327 q 1434 793 1186 701 q 1462 798 1447 798 q 1529 738 1515 798 q 1462 640 1536 715 q 1168 251 1288 462 q 1047 -51 1047 40 q 1055 -82 1047 -73 q 1082 -88 1063 -91 q 1157 -59 1100 -84 q 1233 -30 1215 -34 q 1240 -37 1240 -33 q 1167 -95 1240 -58 q 1058 -133 1094 -133 q 1012 -120 1022 -133 q 987 -33 987 -86 q 1115 309 987 86 q 1368 687 1197 450 q 890 395 1183 670 q 558 16 657 175 "},"˚":{"x_min":59.734375,"x_max":244.46875,"ha":318,"o":"m 184 804 q 227 782 209 804 q 244 721 244 761 q 204 641 244 682 q 116 601 165 601 q 59 654 59 601 q 75 719 59 686 q 113 759 90 752 q 184 804 137 804 m 131 627 q 187 660 163 627 q 211 736 211 693 q 180 779 211 779 q 140 761 163 779 l 155 752 q 132 716 154 748 q 111 655 111 683 q 131 627 111 627 "},"ú":{"x_min":-19.453125,"x_max":652.828125,"ha":590,"o":"m 388 -8 q 359 -9 381 -9 q 313 8 336 -9 q 290 54 290 26 q 300 118 290 83 q 315 170 311 152 l 193 48 q 64 -15 120 -15 q 2 55 8 -15 q 2 63 2 59 q 70 218 2 120 l 2 156 q -12 148 -5 148 q -19 156 -19 148 q -5 177 -19 163 l 177 393 q 252 434 215 434 q 288 409 288 434 q 280 391 288 400 q 140 220 225 340 q 56 44 56 101 q 73 19 56 19 q 168 72 100 19 l 243 134 q 384 304 265 151 q 526 438 493 438 q 576 400 576 438 q 518 319 576 386 q 397 163 438 223 q 355 65 355 102 q 376 27 355 27 q 398 33 386 27 q 627 225 498 77 q 644 234 636 234 q 652 227 652 234 q 512 76 652 200 q 388 -8 422 -1 m 458 551 q 376 506 386 506 q 366 513 366 506 q 370 525 366 520 q 518 637 413 555 q 541 650 533 650 q 554 633 554 650 q 543 605 554 616 q 458 551 530 595 "},"⁄":{"x_min":-8.328125,"x_max":547.265625,"ha":279,"o":"m 25 158 q 37 140 25 151 q 14 130 37 130 q -8 151 -8 130 q 120 326 -8 200 q 380 556 250 452 q 522 659 511 659 q 543 655 534 659 l 547 647 q 538 636 547 641 q 206 359 387 522 q 25 158 25 195 "},"2":{"x_min":0,"x_max":1000.078125,"ha":900,"o":"m 733 -15 q 834 5 786 -15 q 895 79 895 30 q 811 165 895 134 q 800 176 800 169 q 823 187 800 194 q 938 76 938 154 q 868 -28 938 11 q 718 -68 797 -68 q 523 -27 640 -68 l 330 41 q 226 61 265 61 q 62 -2 176 37 q 33 -6 45 -6 q 0 18 0 -6 q 36 76 0 48 q 190 111 88 111 q 237 109 213 111 q 659 381 562 305 q 804 516 757 458 q 883 683 869 594 q 886 707 886 700 q 793 782 886 782 q 568 722 700 782 q 362 595 437 662 q 350 590 356 590 q 336 607 336 590 q 344 623 336 616 q 599 776 440 705 q 879 847 758 847 q 1000 748 1000 847 q 870 509 1000 640 q 673 339 815 451 q 273 93 531 227 q 486 35 333 86 q 733 -15 638 -15 "},"ü":{"x_min":-19.453125,"x_max":652.828125,"ha":590,"o":"m 388 -8 q 359 -9 381 -9 q 313 8 336 -9 q 290 54 290 26 q 300 118 290 83 q 315 170 311 152 l 193 48 q 64 -15 120 -15 q 2 55 8 -15 q 2 63 2 59 q 70 218 2 120 l 2 156 q -12 148 -5 148 q -19 156 -19 148 q -5 177 -19 163 l 177 393 q 252 434 215 434 q 288 409 288 434 q 280 391 288 400 q 140 220 225 340 q 56 44 56 101 q 73 19 56 19 q 168 72 100 19 l 243 134 q 384 304 265 151 q 526 438 493 438 q 576 400 576 438 q 518 319 576 386 q 397 163 438 223 q 355 65 355 102 q 376 27 355 27 q 398 33 386 27 q 627 225 498 77 q 644 234 636 234 q 652 227 652 234 q 512 76 652 200 q 388 -8 422 -1 m 376 520 q 359 532 368 520 q 351 556 351 544 q 385 593 351 569 q 437 618 419 618 q 440 616 438 618 l 440 618 q 441 615 441 616 q 425 595 433 604 l 405 551 q 376 520 393 520 m 512 520 q 496 532 504 520 q 488 556 488 544 q 522 593 488 569 q 566 618 555 618 q 577 616 576 618 l 577 615 q 561 595 569 604 l 543 551 q 512 520 529 520 "},"¯":{"x_min":305.578125,"x_max":594.484375,"ha":695,"o":"m 305 855 q 442 866 327 866 q 590 850 556 866 q 594 845 594 847 q 586 838 594 838 q 459 830 543 838 q 334 822 376 822 q 317 834 327 822 q 305 855 306 847 "},"Z":{"x_min":-112.125,"x_max":1307.4375,"ha":1026,"o":"m 1261 740 q 1112 762 1254 740 q 574 420 878 629 q 83 36 271 212 q 515 79 296 59 q 587 80 540 80 q 861 47 761 80 q 961 -41 961 13 q 921 -115 961 -75 q 849 -163 868 -163 q 842 -152 842 -163 q 858 -125 842 -140 q 874 -98 874 -111 q 744 -19 874 -55 q 492 19 610 19 q 217 -3 374 19 q -28 -26 61 -26 q -38 -26 -34 -26 q -66 -45 -60 -45 q -69 -40 -69 -45 q -60 -22 -69 -36 q -112 6 -112 -19 q -89 50 -112 27 q -51 72 -67 72 q -45 69 -48 72 q 14 50 -38 58 q 1021 776 365 416 l 979 784 q 725 807 881 807 q 454 765 569 807 q 379 734 429 759 q 299 638 299 694 q 302 618 299 630 q 301 600 305 607 q 283 591 296 591 q 258 611 269 591 q 246 652 246 630 q 253 698 246 675 q 424 829 279 787 q 670 850 497 850 q 1012 819 843 850 q 1082 807 1033 818 l 1158 848 q 1207 854 1169 854 q 1244 840 1244 854 q 1232 830 1244 834 q 1161 790 1226 826 q 1238 786 1224 786 q 1265 793 1253 786 q 1273 813 1276 800 q 1275 827 1269 827 q 1295 809 1283 827 q 1307 775 1307 790 q 1261 740 1307 740 "},"u":{"x_min":-26.390625,"x_max":652.828125,"ha":590,"o":"m 388 -8 q 359 -9 381 -9 q 313 8 336 -9 q 290 54 290 26 q 300 118 290 83 q 315 170 311 152 q 65 -15 155 -15 q 2 55 8 -15 q 2 65 2 61 q 75 226 2 125 q -6 143 34 190 q -20 137 -12 137 q -26 144 -26 137 q -13 168 -26 151 l 177 393 q 251 434 213 434 q 288 409 288 434 q 280 391 288 400 q 140 220 225 340 q 56 44 56 101 q 73 19 56 19 q 243 134 131 19 q 387 306 281 173 q 526 438 493 438 q 576 400 576 438 q 518 319 576 386 q 397 163 438 223 q 355 65 355 102 q 376 27 355 27 q 398 33 386 27 q 627 227 494 75 q 644 237 636 237 q 652 228 652 237 q 643 208 652 219 q 502 68 583 138 q 388 -8 422 -1 "},"˜":{"x_min":40.28125,"x_max":348.640625,"ha":378,"o":"m 348 676 q 293 618 348 655 q 252 607 275 607 q 184 625 229 607 q 115 644 138 644 q 70 626 93 644 q 41 608 48 608 q 40 611 40 609 q 100 668 40 633 q 146 682 122 682 q 214 667 170 682 q 286 652 258 652 q 340 682 315 652 q 348 676 348 682 "},"Ó":{"x_min":33.34375,"x_max":1155.640625,"ha":1089,"o":"m 1127 494 q 950 162 1127 320 q 337 -81 676 -81 q 279 -80 300 -81 q 100 -7 168 -75 q 33 166 33 59 q 90 400 33 273 q 372 711 162 559 q 872 883 613 883 q 1083 829 1011 883 q 1155 694 1155 775 q 1116 570 1155 644 q 1127 494 1127 533 m 1098 612 q 1112 686 1112 645 q 1082 770 1112 727 q 870 854 1022 854 q 475 724 661 854 q 184 397 288 594 q 108 140 108 254 q 293 -52 108 -43 q 331 -54 312 -54 q 852 166 605 -54 q 1044 468 1030 325 q 794 279 972 388 l 783 276 q 782 277 782 276 q 819 315 782 283 l 897 379 q 1043 522 997 466 q 973 652 1033 600 q 834 727 912 704 q 714 740 795 737 q 633 745 633 743 q 636 751 633 748 q 759 772 700 772 q 894 754 818 772 q 1098 612 1040 719 m 1016 1019 q 934 975 944 975 q 925 982 925 975 q 930 993 925 988 l 1076 1105 q 1100 1118 1091 1118 q 1112 1101 1112 1118 q 1101 1073 1112 1084 q 1016 1019 1088 1063 "},"k":{"x_min":-38.890625,"x_max":608.375,"ha":547,"o":"m 284 -16 q 98 156 175 -16 q 11 -6 79 127 q -38 45 -38 12 q 140 373 -38 105 q 386 688 319 641 q 408 693 391 693 q 451 670 451 693 q 354 545 451 659 q 247 408 258 431 q 448 473 373 473 q 522 438 491 473 q 551 379 551 409 q 551 370 551 375 q 440 240 540 291 q 290 197 359 197 q 193 215 220 197 q 179 211 184 216 q 177 197 175 205 q 306 25 216 25 q 428 77 354 25 q 583 226 502 130 q 600 236 593 236 q 608 228 608 236 q 598 206 608 220 q 456 62 523 115 q 284 -16 355 -16 m 484 408 q 472 430 484 419 q 445 441 459 441 q 265 379 370 441 q 137 237 161 316 q 204 233 150 237 q 368 284 266 233 q 484 408 484 343 "},"ˇ":{"x_min":79.171875,"x_max":459.765625,"ha":514,"o":"m 402 634 q 451 657 443 657 q 459 643 459 657 q 376 558 459 629 q 272 486 288 487 l 263 490 q 90 638 215 544 q 79 655 79 650 q 88 662 79 661 q 167 629 118 659 q 232 585 216 598 q 261 559 248 572 q 279 543 275 545 q 402 634 362 612 "},"Ù":{"x_min":19.453125,"x_max":1347.328125,"ha":1113,"o":"m 479 -26 q 419 15 419 -26 q 603 346 419 87 q 826 665 787 605 q 911 843 911 795 q 893 872 911 866 q 815 886 859 886 q 425 723 662 886 q 167 470 269 615 q 65 230 65 325 q 120 152 65 162 q 165 148 143 148 q 311 194 236 148 q 405 268 348 216 l 430 276 q 320 175 404 226 q 147 123 236 123 q 98 129 126 123 q 45 168 70 134 q 19 258 19 202 q 430 770 19 476 q 627 872 513 827 q 834 918 741 918 q 925 900 882 918 q 969 839 969 882 q 920 718 969 797 q 766 497 870 640 q 588 231 661 355 q 515 59 515 108 q 534 36 515 36 q 675 113 572 36 q 1250 718 919 300 q 1334 784 1302 784 q 1347 772 1347 784 q 1343 758 1347 766 q 1344 750 1344 754 q 1311 670 1344 720 l 1147 438 q 970 165 1047 294 q 900 13 894 36 l 925 22 q 1045 112 994 61 q 1068 126 1063 126 l 1070 123 q 1033 70 1070 111 q 894 -13 936 -13 q 852 12 852 -13 q 927 176 852 38 q 1165 555 1001 313 q 1077 456 1137 522 q 668 52 736 106 q 479 -26 566 -26 m 1209 895 q 1201 887 1209 887 q 1125 928 1193 887 q 1038 982 1057 969 q 1020 1011 1020 994 q 1034 1029 1020 1029 q 1204 904 1055 1029 q 1209 895 1209 900 "},"Ÿ":{"x_min":19.453125,"x_max":1319.546875,"ha":1225,"o":"m 466 -352 q 363 -315 413 -352 q 312 -231 312 -277 q 341 -202 312 -202 q 362 -205 348 -202 q 390 -284 379 -263 q 470 -322 413 -322 q 890 144 641 -322 l 1140 590 q 760 192 872 304 q 607 55 648 80 q 469 5 523 5 q 390 98 390 5 q 484 327 390 209 q 543 399 491 336 q 666 550 595 462 q 782 718 736 637 q 829 832 829 800 q 809 875 829 865 q 718 895 769 895 q 311 718 570 895 q 138 547 202 644 q 75 368 75 450 q 154 265 75 286 q 202 258 179 258 q 359 319 273 258 q 473 391 461 387 q 363 279 459 340 q 166 213 258 213 q 120 218 154 213 q 52 269 86 223 q 19 380 19 315 q 295 766 19 569 q 508 872 376 825 q 721 919 640 919 q 845 893 802 919 q 887 811 887 868 q 809 636 887 755 q 563 313 732 518 q 500 209 529 273 q 470 106 470 144 q 500 68 470 68 q 590 111 530 68 q 928 404 759 231 q 1176 693 1097 576 q 1297 775 1233 775 q 1319 761 1319 775 q 1316 750 1319 758 q 840 -61 1141 444 q 650 -279 751 -206 q 466 -352 550 -352 m 995 868 q 976 882 986 868 q 966 913 966 897 q 1007 958 966 929 q 1070 987 1048 987 q 1075 986 1072 987 q 1055 961 1073 986 l 1033 905 q 995 868 1016 868 m 1243 986 q 1223 961 1241 986 l 1201 905 q 1163 868 1184 868 q 1144 882 1154 868 q 1134 913 1134 897 q 1175 958 1134 929 q 1238 987 1216 987 l 1243 986 m 1076 984 q 1075 986 1076 986 l 1076 986 l 1076 984 m 1244 984 q 1243 986 1244 986 l 1244 986 l 1244 984 "},"€":{"x_min":-93.0625,"x_max":1107.03125,"ha":1008,"o":"m 233 362 l 429 359 q 580 363 534 359 q 581 359 581 362 q 472 325 581 338 q 288 301 362 311 q 182 291 215 291 q 122 293 150 291 q 115 220 115 261 q 201 25 115 94 q 415 -43 287 -43 q 701 27 561 -43 q 886 169 808 83 q 920 194 908 194 q 929 179 929 194 q 913 150 929 165 q 701 0 840 72 q 357 -90 530 -90 q 100 23 184 -90 q 43 201 43 98 q 52 294 43 245 l 29 297 q -93 326 -93 305 q -81 350 -93 340 q -59 359 -69 359 l -38 359 q -4 361 -38 359 l 69 361 q 115 465 88 413 q 15 493 15 473 q 27 517 15 508 q 48 526 38 526 l 69 526 l 154 529 q 529 837 304 741 q 825 902 683 902 q 955 884 900 902 q 1107 694 1107 837 q 1043 540 1107 619 q 990 502 1012 502 q 976 505 983 502 q 972 536 958 515 q 986 548 977 543 q 1048 705 1048 616 q 982 837 1048 794 q 832 876 926 876 q 558 808 695 876 q 233 529 376 720 l 533 527 q 723 530 650 527 q 693 508 730 519 q 580 487 655 497 l 376 462 q 309 459 363 459 q 188 461 255 459 q 141 361 156 405 q 233 362 191 362 "},"¢":{"x_min":34.71875,"x_max":426.421875,"ha":410,"o":"m 254 372 l 262 404 q 226 427 262 427 q 158 375 190 427 q 126 279 126 322 q 188 208 126 208 q 352 316 265 208 q 369 330 362 330 q 376 326 376 330 q 329 266 376 309 q 247 201 281 223 q 169 179 213 179 q 147 181 161 179 q 52 -55 100 119 q 48 -58 50 -58 q 34 -48 34 -58 q 41 -8 34 -43 q 116 194 68 129 q 83 272 83 216 q 146 396 83 329 q 262 463 209 463 q 272 463 266 463 q 334 573 284 490 q 393 664 383 657 q 415 672 404 672 q 426 662 426 672 q 404 627 426 658 q 295 454 381 595 q 302 435 302 447 q 286 395 302 423 q 258 366 269 366 q 254 372 254 366 "},"Ω":{"x_min":31.953125,"x_max":883.40625,"ha":942,"o":"m 300 -1 l 79 0 q 31 12 31 0 q 39 36 31 25 q 70 49 47 47 q 178 51 94 51 q 283 52 262 51 q 194 312 194 145 q 255 566 194 444 q 423 763 316 687 q 647 840 530 840 q 816 773 763 840 q 869 595 869 707 q 787 282 869 433 q 584 50 705 131 l 859 52 q 883 40 883 52 q 872 16 883 31 q 845 0 862 1 q 563 0 827 0 q 509 11 509 0 q 536 54 513 43 q 725 277 644 105 q 807 598 807 450 q 652 807 807 807 q 522 769 587 807 q 405 670 456 732 q 316 530 354 609 q 254 281 254 401 q 318 63 254 151 q 338 38 338 45 q 330 7 338 16 q 300 -1 322 -1 "},"ß":{"x_min":-613.546875,"x_max":779.625,"ha":807,"o":"m 221 166 q 196 118 196 166 q 233 33 196 70 q 283 4 253 13 q 232 130 249 38 q 221 166 225 166 m -545 -211 q -582 -305 -582 -258 q -548 -381 -582 -352 q -446 -409 -513 -409 q -326 -366 -380 -409 q -105 -125 -210 -279 q 64 172 -1 29 q 369 782 280 641 q 568 922 458 922 q 708 887 661 922 q 756 751 756 852 q 710 636 756 677 q 571 563 664 594 q 510 540 532 550 q 465 505 489 530 q 440 447 440 480 q 537 365 440 393 q 729 308 693 333 q 779 222 779 270 q 707 87 779 148 q 550 0 635 26 q 393 -27 465 -27 q 328 -18 386 -27 q 380 -40 337 -23 q 433 -61 422 -58 q 443 -66 443 -63 q 429 -72 443 -72 q 370 -52 415 -72 q 304 -15 325 -31 q 219 16 244 -6 q 185 59 200 31 q 171 113 171 87 q 188 161 171 138 q 232 183 205 183 q 260 143 255 183 q 271 80 265 102 q 285 35 278 58 q 308 -2 292 12 q 369 -9 339 -9 q 640 95 508 -9 q 703 199 703 145 q 632 270 703 252 l 482 308 q 410 350 437 320 q 382 415 382 379 q 430 520 382 476 q 545 584 479 563 q 651 652 611 605 q 692 757 692 698 q 660 853 692 816 q 576 890 629 890 q 463 816 522 890 q 346 625 404 743 q 224 365 287 506 q 85 81 160 223 q -68 -179 11 -61 q -248 -370 -148 -297 q -455 -444 -349 -444 q -571 -412 -528 -444 q -613 -333 -613 -380 q -584 -237 -613 -287 l -563 -218 q -546 -209 -559 -209 l -545 -211 "},"é":{"x_min":-45.84375,"x_max":494.484375,"ha":357,"o":"m 395 553 q 315 511 323 511 q 306 519 306 511 q 311 527 306 523 q 456 641 380 580 q 480 652 472 652 q 494 635 494 652 q 480 608 494 618 q 395 553 466 595 m 70 -18 q 43 -13 55 -18 q -45 86 -45 11 q 76 311 -45 183 q 295 438 198 438 q 347 421 327 438 q 368 379 368 404 q 250 230 368 301 q 59 159 133 159 q 40 162 48 159 q 19 83 19 125 q 88 11 19 11 q 266 104 156 11 q 411 250 348 169 q 432 266 423 266 q 441 258 441 266 q 430 234 441 250 q 248 57 352 133 q 70 -18 144 -18 m 333 381 q 297 398 333 398 q 197 344 262 398 q 61 193 109 272 q 79 190 69 190 q 220 246 131 190 q 330 369 308 302 q 333 381 333 376 "},"s":{"x_min":-29.171875,"x_max":570.875,"ha":499,"o":"m 255 20 q 156 -2 215 -2 q 65 36 97 -2 q 12 159 34 75 q -22 134 -12 134 q -29 144 -29 134 q -22 161 -29 154 q 133 325 23 218 l 308 488 q 397 559 383 559 q 441 526 441 559 q 428 493 441 509 q 409 468 415 477 q 395 451 402 459 q 345 273 370 408 q 305 86 319 138 q 543 236 420 87 q 563 250 556 250 q 570 240 570 250 q 558 216 570 231 q 408 84 477 122 q 300 50 366 63 l 255 20 m 68 175 q 99 97 68 127 q 169 68 130 68 q 229 83 208 68 q 284 211 256 98 q 316 409 311 323 l 322 456 q 159 309 245 400 q 69 190 72 219 q 68 175 68 181 "},"B":{"x_min":25,"x_max":1241.765625,"ha":1138,"o":"m 1069 262 q 1047 168 1069 212 q 866 1 1000 68 q 588 -65 733 -65 q 290 84 369 -65 q 86 -34 147 -34 q 66 -30 75 -34 q 25 65 25 -8 q 86 245 25 138 q 193 372 147 352 q 225 379 213 379 q 286 312 265 379 l 327 179 q 437 316 368 222 l 561 483 q 859 807 788 779 q 911 816 884 816 q 954 805 937 816 q 972 777 972 794 q 932 748 972 752 q 772 610 890 725 q 633 465 655 495 q 345 131 477 248 q 600 -36 430 -36 q 804 28 702 -36 q 955 187 905 93 q 977 277 977 227 q 938 372 977 327 q 838 438 898 418 q 750 450 811 443 q 688 476 688 458 q 694 488 688 483 q 737 508 711 508 q 767 502 752 508 q 790 494 782 497 q 809 487 798 491 q 862 484 840 484 q 1029 513 954 484 q 1151 626 1125 551 q 1168 713 1168 675 q 1075 857 1168 809 q 854 898 994 898 q 458 815 633 898 q 289 691 369 773 q 209 551 209 609 q 230 484 209 511 q 259 456 238 473 q 251 452 266 452 q 165 568 165 472 q 262 748 165 663 q 425 850 334 811 q 851 930 612 930 q 1123 880 1022 930 q 1241 712 1241 825 q 1223 622 1241 668 q 1072 495 1194 538 q 875 462 980 463 q 1013 402 957 458 q 1069 262 1069 345 m 181 313 q 175 311 180 313 q 72 72 72 162 q 90 4 72 34 q 104 -2 94 -2 q 275 123 148 -2 l 270 129 q 181 313 215 313 "},"…":{"x_min":158.34375,"x_max":722.28125,"ha":772,"o":"m 663 87 q 703 73 684 87 q 722 42 722 59 q 704 11 722 25 q 665 -1 686 -1 q 627 13 644 -1 q 611 47 611 27 q 663 87 611 87 m 440 87 q 479 73 461 87 q 498 42 498 59 q 480 11 498 25 q 441 -1 462 -1 q 404 13 420 -1 q 387 47 387 27 q 440 87 387 87 m 211 87 q 250 73 231 87 q 269 42 269 59 q 251 11 269 25 q 212 -1 233 -1 q 175 13 191 -1 q 158 47 158 27 q 211 87 158 87 "},"?":{"x_min":113.890625,"x_max":605.609375,"ha":557,"o":"m 230 179 q 209 156 218 156 q 200 168 200 156 q 202 188 200 180 q 325 318 238 262 q 477 422 450 398 q 537 520 537 476 q 486 593 537 565 q 359 620 436 620 q 218 584 281 620 q 147 479 155 548 q 161 445 144 461 q 211 429 179 429 q 284 470 244 429 q 293 475 288 475 q 297 466 297 475 q 290 450 297 456 q 191 402 247 402 q 135 424 156 402 q 113 475 113 445 q 113 481 113 477 q 204 626 122 575 q 375 677 287 677 q 605 545 605 677 q 530 402 605 461 q 363 302 513 390 q 230 179 266 247 m 173 80 q 213 67 194 80 q 231 36 231 54 q 213 6 231 19 q 175 -6 195 -6 q 137 7 154 -6 q 120 41 120 22 q 173 80 120 80 "},"H":{"x_min":26.390625,"x_max":1754.3125,"ha":1321,"o":"m 393 -63 q 552 237 393 -25 q 401 227 438 237 q 308 165 338 212 q 289 148 297 150 q 281 154 281 147 q 287 168 281 162 q 391 265 340 238 q 554 291 443 291 q 587 291 570 291 q 825 675 672 420 q 882 848 882 782 q 751 957 882 955 q 736 957 743 957 q 412 868 558 957 q 181 647 266 779 q 97 409 97 515 q 218 280 97 280 q 381 365 313 280 q 450 526 450 450 q 427 597 450 569 q 425 604 425 600 q 436 613 425 613 q 444 609 441 613 q 472 523 472 573 q 402 350 472 438 q 256 252 333 262 q 211 248 233 248 q 73 305 122 248 q 26 444 26 356 q 34 518 26 480 q 275 845 76 705 q 723 986 475 986 q 888 945 819 986 q 957 830 957 904 q 905 675 957 757 l 654 288 q 813 275 698 287 q 985 263 927 263 q 1062 265 1043 263 l 1115 352 q 1427 775 1250 579 q 1736 1019 1604 972 q 1744 1020 1740 1020 q 1754 1009 1754 1020 q 1750 1002 1754 1005 q 1495 760 1661 952 q 1208 365 1329 568 l 1154 273 q 1245 305 1218 281 q 1255 300 1251 309 q 1254 287 1259 291 q 1136 241 1212 255 q 1038 -12 1038 61 q 1079 -59 1038 -59 q 1143 -40 1107 -59 q 1193 -9 1180 -22 q 1208 4 1205 4 q 1209 -4 1211 4 q 1204 -19 1208 -13 q 1133 -66 1180 -41 q 1057 -91 1086 -91 q 1013 -81 1027 -91 q 969 19 969 -52 q 1043 230 969 91 q 947 226 991 226 q 620 236 932 226 q 462 -47 522 80 q 418 -84 444 -84 q 393 -63 393 -84 "},"î":{"x_min":-20.828125,"x_max":362.53125,"ha":314,"o":"m 61 -16 q -20 76 -20 -16 q 61 284 -20 151 q 193 418 143 416 q 224 406 206 418 q 241 384 241 395 q 225 363 234 375 q 204 337 215 351 q 173 297 193 323 q 136 248 154 272 q 31 63 31 113 q 69 13 31 13 q 207 87 119 13 q 336 205 295 161 q 354 219 345 219 q 359 211 359 219 q 233 76 359 169 q 61 -16 106 -16 m 244 547 q 156 480 163 480 q 148 488 148 480 q 195 536 148 497 q 255 577 243 575 l 259 576 q 358 490 286 547 l 362 483 l 359 477 q 303 502 343 477 q 244 547 263 527 "},"c":{"x_min":-11.109375,"x_max":472.265625,"ha":393,"o":"m 105 -18 q 77 -13 90 -18 q -11 86 -11 11 q 111 311 -11 183 q 330 438 233 438 q 382 421 362 438 q 402 374 402 404 q 384 311 402 344 q 330 279 366 279 q 294 301 294 279 q 313 347 294 316 q 331 381 331 379 q 327 383 331 383 q 221 327 288 379 q 129 241 154 276 l 75 162 q 54 109 61 140 q 48 63 48 79 q 65 29 48 48 q 115 9 83 9 q 287 90 184 9 q 445 245 390 172 q 462 254 452 254 q 472 248 472 254 q 465 234 472 243 q 282 57 388 133 q 105 -18 176 -18 "},"¶":{"x_min":-72.234375,"x_max":868.125,"ha":761,"o":"m 501 841 l 651 847 q 705 841 687 847 q 823 900 761 900 q 868 882 859 900 q 841 874 865 879 q 805 862 816 869 q 629 591 732 819 l 459 183 q 283 -81 347 -81 q 275 -76 275 -81 q 294 -54 277 -69 q 461 288 369 16 q 554 566 511 443 q 691 822 618 733 l 677 822 q 458 563 580 822 q 318 211 405 455 q 175 -65 265 66 q -50 -245 52 -245 q -72 -233 -69 -245 q -58 -225 -68 -225 q 188 29 63 -225 q 333 395 230 116 q 119 552 119 413 q 247 757 119 672 q 501 841 376 841 "},"−":{"x_min":26.390625,"x_max":551.4375,"ha":564,"o":"m 291 361 l 436 359 q 550 363 515 359 q 551 357 551 361 q 541 347 551 354 q 450 322 518 333 q 328 302 383 311 q 240 293 273 293 q 148 297 208 293 q 26 326 26 305 q 38 350 26 340 q 59 359 50 359 l 80 359 l 115 361 l 226 361 q 291 361 261 361 "},"≠":{"x_min":76.390625,"x_max":419.484375,"ha":483,"o":"m 265 133 q 419 109 419 133 q 411 105 419 105 q 175 94 293 105 l 136 41 q 90 5 104 5 q 77 12 77 5 q 134 90 80 18 q 106 88 116 88 q 86 102 97 88 q 76 122 76 115 q 166 130 80 126 l 255 243 q 189 237 245 243 q 104 231 133 231 q 86 244 97 231 q 76 265 76 256 q 165 276 87 276 q 279 273 243 276 q 319 327 291 291 q 368 363 348 363 q 375 358 375 363 q 312 270 375 352 q 419 252 419 263 q 411 247 419 247 q 293 245 323 247 l 204 133 l 230 133 q 265 133 248 133 "},"•":{"x_min":75,"x_max":676.4375,"ha":746,"o":"m 162 115 q 75 329 75 205 q 163 541 75 452 q 375 629 251 629 q 588 541 500 629 q 676 328 676 452 q 588 115 676 204 q 376 27 500 27 q 162 115 252 27 "},"¥":{"x_min":143.0625,"x_max":1332.046875,"ha":763,"o":"m 434 427 q 613 837 613 748 q 541 901 613 901 q 350 817 469 901 q 181 666 230 733 q 163 668 169 648 q 162 690 162 675 q 181 730 162 705 q 352 870 244 809 q 545 932 459 932 q 658 894 630 932 q 672 843 672 875 q 529 494 672 729 l 490 427 l 498 427 q 836 729 629 566 q 1251 943 1098 943 q 1312 928 1293 943 q 1332 902 1332 913 q 1329 883 1332 890 q 1325 876 1326 876 l 1315 900 q 1272 922 1302 922 q 949 750 1188 922 q 566 429 709 577 l 758 430 q 746 417 754 420 q 716 409 738 413 q 673 402 694 405 q 608 395 652 400 q 527 384 563 390 l 490 344 q 464 307 487 340 q 433 261 441 275 l 672 268 q 671 261 673 266 q 633 247 669 255 q 408 218 543 223 q 290 -33 290 18 q 305 -52 290 -52 q 406 2 329 -52 q 412 -5 413 2 q 346 -56 406 -26 q 263 -86 286 -86 q 213 -33 213 -86 q 311 215 213 34 l 204 216 q 143 226 143 216 q 186 261 143 261 l 333 261 l 409 380 q 315 380 352 380 q 261 380 277 380 q 233 394 230 381 q 275 427 241 427 l 434 427 "},"(":{"x_min":-6.9375,"x_max":882.015625,"ha":521,"o":"m 854 1055 q 882 1038 882 1051 q 847 1023 882 1025 q 397 820 604 1000 q 159 523 245 687 q 72 240 72 359 q 125 59 72 122 q 279 -12 179 -4 q 311 -27 311 -15 q 277 -47 311 -47 q 265 -47 272 -47 q 73 53 154 -36 q -6 286 -6 143 q 50 522 -6 397 q 351 858 131 701 q 854 1055 595 1034 "},"U":{"x_min":19.453125,"x_max":1347.328125,"ha":1113,"o":"m 479 -26 q 419 15 419 -26 q 603 346 419 87 q 826 665 787 605 q 911 843 911 795 q 893 872 911 866 q 815 886 859 886 q 425 723 662 886 q 167 470 269 615 q 65 230 65 325 q 120 152 65 162 q 165 148 143 148 q 311 194 236 148 q 405 268 348 216 l 430 276 q 320 175 404 226 q 147 123 236 123 q 98 129 126 123 q 45 168 70 134 q 19 258 19 202 q 430 770 19 476 q 627 874 513 830 q 834 918 741 918 q 925 900 882 918 q 969 839 969 882 q 920 718 969 797 q 766 497 870 640 q 588 231 661 355 q 515 59 515 108 q 534 36 515 36 q 675 113 572 36 q 1250 718 919 300 q 1334 784 1302 784 q 1347 772 1347 784 q 1343 758 1347 766 q 1344 750 1344 754 q 1311 670 1344 720 l 1147 438 q 970 165 1047 294 q 900 13 894 36 l 925 22 q 1045 112 994 61 q 1068 126 1063 126 l 1070 123 q 1033 70 1070 111 q 894 -13 936 -13 q 852 12 852 -13 q 927 176 852 38 q 1165 555 1001 313 q 1077 456 1137 522 q 668 52 736 106 q 479 -26 566 -26 "},"◊":{"x_min":129.171875,"x_max":477.8125,"ha":553,"o":"m 225 25 q 212 73 225 31 q 195 133 200 115 l 129 391 q 251 607 130 420 q 269 634 255 612 q 296 677 283 657 q 325 719 309 697 q 369 769 359 769 q 415 639 379 769 q 477 397 451 509 l 477 380 q 305 91 470 345 q 240 8 255 8 q 225 25 225 8 m 430 358 q 358 702 416 408 q 249 527 297 602 q 180 416 201 451 q 250 72 229 188 q 336 206 273 105 q 430 358 398 308 "},"Ñ":{"x_min":2.78125,"x_max":1529.875,"ha":1285,"o":"m 558 16 q 525 -50 525 -34 q 537 -72 525 -66 q 514 -89 537 -75 q 451 -104 491 -104 q 411 -83 411 -104 q 547 156 411 -47 q 727 437 684 359 q 822 705 822 607 q 807 777 822 744 q 693 827 783 827 q 341 676 527 827 q 123 434 200 559 q 54 223 54 316 q 177 87 54 90 q 188 87 183 87 q 437 202 352 87 q 470 280 470 248 q 455 320 470 312 q 454 326 454 322 q 462 330 454 330 q 498 283 498 330 q 470 204 498 254 q 370 109 443 154 q 204 65 297 65 q 56 119 111 65 q 2 265 2 173 q 300 720 2 481 q 495 820 375 780 q 713 861 615 861 q 851 824 811 861 q 891 722 891 787 q 700 273 891 563 q 840 411 743 327 q 1434 793 1186 701 q 1462 798 1447 798 q 1529 738 1515 798 q 1462 640 1536 715 q 1168 251 1288 462 q 1047 -51 1047 40 q 1055 -82 1047 -73 q 1082 -88 1063 -91 q 1157 -59 1100 -84 q 1233 -30 1215 -34 q 1240 -37 1240 -33 q 1167 -95 1240 -58 q 1058 -133 1094 -133 q 1012 -120 1022 -133 q 987 -33 987 -86 q 1115 309 987 86 q 1368 687 1197 450 q 890 395 1183 670 q 558 16 657 175 m 1418 1016 q 1362 958 1418 995 q 1321 947 1344 947 q 1253 966 1298 947 q 1185 984 1208 984 q 1140 966 1162 984 q 1111 948 1118 948 q 1109 951 1109 950 q 1169 1008 1109 973 q 1216 1022 1191 1022 q 1284 1007 1240 1022 q 1356 993 1327 993 q 1409 1022 1384 993 q 1418 1016 1418 1022 "},"F":{"x_min":-16.671875,"x_max":1011.1875,"ha":878,"o":"m 733 348 q 875 344 868 344 q 884 344 883 344 q 918 334 918 347 q 863 315 918 315 l 745 318 q 702 311 709 315 q 545 102 644 238 q 447 -61 447 -34 q 472 -55 447 -72 q 487 -59 487 -55 q 456 -80 487 -66 l 418 -101 q 357 -123 391 -123 q 326 -106 323 -123 q 425 61 327 -73 q 626 319 522 197 q 473 301 526 301 q 468 310 468 302 q 484 331 468 318 q 520 345 501 345 q 580 347 538 345 l 651 347 q 861 641 698 411 q 927 800 927 737 q 783 897 927 897 q 518 834 670 897 q 238 663 366 772 q 95 501 148 588 q 43 345 43 413 q 173 236 43 236 q 197 237 184 236 q 357 334 281 244 q 433 484 433 423 q 431 497 433 490 q 468 454 468 490 q 390 313 468 394 q 145 204 284 204 q 26 244 69 204 q -16 354 -16 284 q 183 684 -16 518 q 490 863 327 802 q 772 923 652 923 q 952 888 893 923 q 1011 792 1011 854 q 957 652 1011 730 q 733 348 925 601 "},"­":{"x_min":26.390625,"x_max":397.25,"ha":413,"o":"m 145 361 l 280 359 q 395 363 361 359 q 397 359 397 362 q 287 319 397 338 q 175 302 227 311 q 109 293 123 293 q 60 299 94 293 q 26 326 26 305 q 38 350 26 340 q 58 359 50 359 q 75 361 66 359 l 111 361 q 145 361 126 361 "},":":{"x_min":122.234375,"x_max":288.90625,"ha":314,"o":"m 230 356 q 270 343 251 356 q 288 311 288 329 q 271 281 288 294 q 233 268 254 268 q 195 282 212 268 q 177 316 177 297 q 230 356 177 356 m 175 87 q 214 73 195 87 q 233 42 233 59 q 215 11 233 25 q 177 -1 198 -1 q 139 13 156 -1 q 122 47 122 27 q 175 87 122 87 "},"Û":{"x_min":19.453125,"x_max":1394.5625,"ha":1113,"o":"m 479 -26 q 419 15 419 -26 q 603 346 419 87 q 826 665 787 605 q 911 843 911 795 q 893 872 911 866 q 815 886 859 886 q 425 723 662 886 q 167 470 269 615 q 65 230 65 325 q 120 152 65 162 q 165 148 143 148 q 311 194 236 148 q 405 268 348 216 l 430 276 q 320 175 404 226 q 147 123 236 123 q 98 129 126 123 q 45 168 70 134 q 19 258 19 202 q 430 770 19 476 q 627 874 513 830 q 834 918 741 918 q 925 900 882 918 q 969 839 969 882 q 920 718 969 797 q 766 497 870 640 q 588 231 661 355 q 515 59 515 108 q 534 36 515 36 q 675 113 572 36 q 1250 718 919 300 q 1334 784 1302 784 q 1347 772 1347 784 q 1343 758 1347 766 q 1344 750 1344 754 q 1311 670 1344 720 l 1147 438 q 970 165 1047 294 q 900 13 894 36 l 925 22 q 1045 112 994 61 q 1068 126 1063 126 l 1070 123 q 1033 70 1070 111 q 894 -13 936 -13 q 852 12 852 -13 q 927 176 852 38 q 1165 555 1001 313 q 1077 456 1137 522 q 668 52 736 106 q 479 -26 566 -26 m 1082 940 q 1051 950 1051 932 q 1065 966 1051 954 q 1202 1058 1170 1030 q 1252 1093 1244 1093 q 1332 1028 1273 1093 q 1392 956 1390 963 q 1394 945 1394 948 q 1383 932 1394 932 q 1323 976 1372 932 q 1244 1038 1275 1020 q 1198 1009 1236 1033 q 1126 963 1159 986 q 1082 940 1093 941 "},"*":{"x_min":55.5625,"x_max":451.421875,"ha":489,"o":"m 418 505 q 451 495 451 505 q 437 482 451 491 q 397 472 423 473 q 361 469 372 470 q 300 468 325 468 l 363 381 q 390 340 390 347 q 266 440 390 305 l 231 323 q 213 302 223 302 q 201 337 201 302 l 220 443 l 148 388 q 103 366 116 366 q 90 376 90 366 q 106 402 90 386 l 198 469 l 111 469 q 55 487 55 469 q 86 504 55 500 l 209 509 q 158 584 179 555 q 133 627 133 613 q 143 640 133 640 q 170 623 152 640 l 241 534 l 266 637 q 283 683 270 661 q 287 684 286 684 q 297 650 297 684 q 280 529 297 615 l 361 584 q 399 608 394 608 q 404 608 404 608 q 399 581 415 604 q 308 505 383 559 l 418 505 "},"†":{"x_min":38.890625,"x_max":527.8125,"ha":538,"o":"m 527 573 q 512 566 527 566 q 293 561 405 566 q 225 19 256 144 q 218 15 222 15 q 213 20 213 15 q 231 244 213 22 q 255 559 250 466 l 84 550 q 58 561 75 550 q 38 581 41 573 q 256 594 47 590 q 262 844 262 690 q 279 861 262 851 q 306 873 297 872 l 309 872 l 309 845 q 295 594 309 759 q 520 577 450 591 q 527 573 527 575 "},"°":{"x_min":90.28125,"x_max":329.1875,"ha":393,"o":"m 294 648 q 329 563 329 613 q 293 479 329 513 q 209 444 258 444 q 125 479 159 444 q 90 563 90 513 q 125 648 90 613 q 209 683 159 683 q 294 648 259 683 m 272 501 q 298 563 298 527 q 272 626 298 600 q 209 652 245 652 q 147 626 173 652 q 120 563 120 600 q 147 501 120 527 q 209 475 173 475 q 272 501 245 475 "},"V":{"x_min":-26.390625,"x_max":1680.6875,"ha":958,"o":"m 402 397 q 422 351 422 397 q 353 221 422 281 q 195 161 284 161 q 86 188 138 161 q -26 401 -26 250 q 31 611 -26 508 q 263 833 112 751 q 556 915 413 915 q 727 869 661 915 q 802 716 802 818 q 677 311 802 587 q 552 0 552 36 q 559 -6 552 -11 q 891 370 595 16 q 1301 807 1186 723 q 1473 921 1404 883 q 1614 959 1541 959 q 1643 958 1633 959 q 1680 919 1680 955 q 1668 901 1680 901 q 1648 907 1666 901 q 1618 913 1630 913 q 1094 562 1423 913 q 793 206 970 430 q 584 -34 616 -16 q 458 -98 472 -98 q 454 -84 454 -98 q 531 148 454 -38 q 625 365 563 220 l 688 552 q 722 690 722 647 q 666 836 722 786 q 506 886 611 886 q 283 812 402 886 q 90 606 154 729 q 26 400 26 484 q 61 266 26 315 q 212 187 118 187 q 340 235 284 187 q 395 356 395 283 q 392 384 395 372 q 402 397 388 397 "},"Ŗ":{"x_min":-58.34375,"x_max":1266.765625,"ha":1045,"o":"m 794 375 q 665 386 725 375 q 747 109 684 325 q 808 -16 766 47 q 913 -98 865 -98 q 1011 19 972 -98 q 1025 47 1018 47 q 1036 31 1033 47 q 1040 9 1040 15 q 1001 -79 1040 -25 q 888 -155 950 -155 q 776 -94 827 -155 q 675 128 725 -33 q 626 334 626 290 q 627 345 626 341 q 388 54 461 125 q 59 -102 227 -102 q -58 -13 -58 -102 q -30 84 -58 30 q 37 177 -2 137 q 108 218 77 218 q 113 215 113 218 q 79 180 113 208 q 12 102 44 152 q -19 9 -19 51 q 79 -63 -19 -63 q 587 369 263 -63 q 618 402 605 393 l 595 411 q 566 404 577 404 q 537 427 537 404 q 580 469 537 459 q 590 470 586 470 q 648 445 615 470 q 773 584 770 581 q 910 688 875 688 q 945 658 945 688 q 939 632 945 644 q 925 619 933 619 q 916 627 916 616 q 925 644 916 633 q 912 663 926 663 q 697 427 868 663 q 766 425 738 425 q 1169 591 1088 425 q 1186 658 1186 627 q 1130 763 1186 719 q 841 836 1041 836 q 433 734 641 836 q 180 444 180 611 q 248 390 180 390 q 393 440 316 390 q 495 538 469 490 q 514 556 505 556 q 519 545 523 556 q 402 413 493 468 q 212 358 311 358 q 113 420 113 358 q 113 430 113 425 q 336 739 134 612 q 823 866 538 866 q 1200 775 1088 866 q 1266 644 1266 719 q 1251 575 1266 612 q 1075 424 1208 473 q 794 375 941 375 m 502 -197 q 458 -302 502 -255 q 397 -348 413 -348 q 381 -345 381 -348 q 411 -309 381 -343 q 441 -254 441 -275 q 422 -216 441 -233 q 404 -191 404 -200 q 444 -150 404 -150 q 484 -163 465 -150 q 502 -197 502 -177 "},"å":{"x_min":-12.109375,"x_max":662.9375,"ha":572,"o":"m 46 73 q 80 23 46 23 q 300 200 161 23 l 447 402 q 411 422 436 422 q 186 290 326 422 q 46 73 46 159 m 461 415 l 480 419 q 510 406 496 419 q 524 387 524 394 q 437 253 524 380 q 351 76 351 126 q 353 68 351 72 q 383 36 360 36 q 647 275 455 36 q 657 280 651 280 q 662 270 662 280 q 650 243 662 259 q 379 5 472 5 q 355 9 367 5 q 294 101 294 33 q 300 148 294 125 l 214 65 q 95 -6 132 -6 q 25 16 58 -6 q -12 93 -12 44 q 121 325 -12 194 q 385 473 268 472 q 378 510 378 487 q 393 566 378 533 q 432 607 408 600 q 503 651 455 651 q 545 629 528 651 q 562 570 562 608 q 528 493 562 533 q 447 448 493 454 q 453 436 450 444 q 461 415 457 415 m 450 475 q 505 507 482 475 q 529 583 529 540 q 499 626 529 626 q 458 607 485 626 l 474 600 q 451 563 472 595 q 429 502 429 530 q 450 475 429 475 "}," ":{"x_min":0,"x_max":0,"ha":275},"0":{"x_min":45.84375,"x_max":916.734375,"ha":800,"o":"m 872 854 q 836 847 869 834 q 782 861 802 861 q 759 861 762 861 q 838 812 802 847 q 916 629 916 738 q 855 405 916 519 q 691 201 794 291 q 213 -12 451 -12 q 161 -8 186 -12 q 45 154 45 6 q 154 477 45 301 q 342 693 220 588 q 587 852 463 797 q 581 863 581 858 q 627 880 581 880 q 661 879 641 880 q 768 893 701 893 q 872 854 872 893 m 109 133 q 177 22 109 27 q 205 20 191 20 q 618 218 393 20 q 843 640 843 416 q 798 782 843 745 q 670 845 730 834 q 398 669 541 805 q 223 459 293 566 q 109 133 109 283 "},"”":{"x_min":-6.9375,"x_max":255.578125,"ha":286,"o":"m 255 559 q 211 453 255 500 q 150 406 166 406 q 134 410 134 406 q 164 447 134 413 q 194 502 194 481 q 175 538 194 522 q 156 563 156 555 q 198 605 156 605 q 237 592 219 605 q 255 559 255 579 m 115 559 q 70 453 115 500 q 4 406 25 406 q -6 411 -6 406 q 7 427 -1 418 q 25 447 16 437 q 54 500 54 479 q 35 538 54 522 q 16 563 16 555 q 56 605 16 605 q 96 592 77 605 q 115 559 115 579 "},"¾":{"x_min":26.390625,"x_max":1172.3125,"ha":1270,"o":"m 90 657 l 86 627 q 186 537 86 555 q 237 533 212 533 q 386 568 311 533 q 544 723 502 622 q 550 752 550 736 q 516 800 550 784 q 433 815 483 815 q 363 807 383 815 q 334 800 344 800 q 319 813 319 800 q 327 831 319 823 q 344 838 334 838 q 477 862 415 838 q 568 952 558 893 q 569 962 569 957 q 523 998 569 998 q 417 975 477 998 q 341 940 356 951 q 320 929 325 929 q 315 946 315 929 q 331 968 315 963 q 372 995 350 973 q 401 1016 395 1016 q 405 1009 405 1013 q 401 1000 405 1005 q 394 994 400 1000 q 543 1032 484 1032 q 622 957 625 1032 q 472 838 618 884 q 598 750 598 825 q 594 727 598 740 q 447 566 569 629 q 212 513 337 513 q 78 540 130 513 q 26 613 26 566 q 44 672 26 638 q 125 733 62 705 q 202 754 177 754 q 226 748 226 754 q 206 740 226 740 q 145 715 187 740 q 90 657 101 686 m 465 191 q 459 161 459 172 q 466 146 459 150 q 468 136 472 143 q 450 129 463 129 q 437 156 437 129 q 460 245 437 184 q 673 562 483 305 q 883 813 863 813 q 900 806 891 813 q 895 782 908 798 q 638 459 782 651 q 465 191 494 266 m 884 -95 q 861 -31 861 -95 q 897 127 861 31 q 784 145 832 145 q 637 104 737 145 q 620 109 627 101 q 613 134 613 116 q 631 157 613 151 q 679 169 650 163 q 816 259 723 193 q 933 341 908 326 q 1122 487 1102 447 l 1130 498 q 1144 504 1134 504 q 1172 488 1172 504 q 1170 486 1172 486 l 1025 275 q 941 141 976 202 q 1032 122 1002 122 q 1082 136 1061 122 q 1105 176 1105 156 q 1102 205 1105 195 q 1108 215 1100 215 q 1122 206 1116 215 q 1137 155 1137 180 q 1036 98 1137 98 q 927 119 991 98 q 888 -15 888 44 q 893 -58 888 -43 q 898 -80 897 -73 q 884 -95 898 -95 m 737 177 q 809 181 779 181 q 909 154 838 181 q 1066 406 943 230 q 894 289 1011 373 q 737 177 777 205 "},"@":{"x_min":19.453125,"x_max":1140.375,"ha":1170,"o":"m 1113 609 q 936 279 1113 436 q 323 36 663 36 q 265 37 286 36 q 87 111 155 44 q 19 284 19 177 q 76 515 19 390 q 361 823 148 672 q 858 994 600 994 q 1068 942 995 994 q 1140 808 1140 890 q 1121 722 1140 759 q 1104 683 1102 684 q 1113 609 1113 650 m 713 670 l 733 675 q 761 662 748 675 q 775 640 775 650 q 748 589 776 630 q 659 462 720 548 q 605 334 605 373 q 638 294 605 294 q 808 404 687 294 q 1027 634 929 515 l 1027 637 q 958 766 1018 712 q 726 851 862 851 q 620 858 634 854 q 622 863 619 862 q 747 886 687 886 q 880 868 807 886 q 1082 733 1022 834 q 1087 733 1086 727 q 1098 803 1098 766 q 1068 883 1098 840 q 850 966 1009 966 q 511 861 691 966 q 212 592 330 755 q 94 252 94 429 q 279 66 94 76 q 320 65 300 65 q 838 283 594 65 q 1029 572 1008 436 q 1023 575 1026 575 l 854 387 q 644 263 726 263 q 608 269 623 263 q 547 361 547 293 q 550 397 547 372 q 544 400 547 400 q 345 254 391 254 q 280 276 311 254 q 240 350 240 301 q 382 589 240 451 q 641 727 525 727 q 705 687 694 727 l 708 679 l 708 676 q 713 670 711 670 m 298 331 q 333 284 298 284 q 526 426 402 284 q 628 559 556 459 q 700 658 700 658 q 698 659 700 658 q 665 676 688 676 q 438 546 577 676 q 298 331 298 416 "},"Ķ":{"x_min":30.5625,"x_max":2202.953125,"ha":1300,"o":"m 1155 968 q 1184 947 1184 968 q 951 462 1184 862 q 982 375 961 425 l 1395 690 q 1716 922 1633 870 q 2082 1033 1902 1033 q 2176 1016 2133 1033 q 2202 980 2202 1007 q 2189 954 2202 954 q 2171 965 2180 954 q 2118 976 2162 976 q 1976 954 2075 976 q 1623 798 1820 919 q 1293 563 1500 722 q 994 345 1086 405 q 1176 69 1065 197 q 1483 -129 1347 -129 q 1550 -77 1550 -129 q 1548 -58 1550 -68 q 1552 -34 1545 -48 q 1569 -20 1559 -20 q 1593 -63 1587 -20 q 1594 -77 1594 -70 q 1549 -150 1594 -122 q 1442 -179 1504 -179 q 1339 -159 1380 -179 q 1117 30 1229 -105 q 945 316 1005 166 q 819 268 869 272 q 590 33 726 147 q 430 -67 516 -29 q 265 -105 344 -105 q 91 -49 152 -105 q 30 122 30 6 q 52 227 30 179 q 266 444 123 384 q 424 479 345 479 q 529 427 502 479 q 538 389 538 409 q 533 363 538 369 q 518 373 527 358 q 447 441 484 434 q 411 444 422 444 q 208 354 302 444 q 86 98 86 236 q 255 -70 86 -51 q 266 -70 261 -70 q 423 -16 327 -70 q 755 288 579 72 q 723 375 723 318 q 766 482 723 431 q 882 533 808 533 q 920 529 902 533 q 1055 781 990 645 q 1120 937 1120 916 q 1112 940 1120 940 q 1016 896 1104 940 q 890 827 927 852 q 798 749 852 802 q 744 662 744 695 q 766 632 744 647 q 844 616 787 616 q 851 609 851 613 q 813 597 851 604 q 752 591 775 591 q 702 633 702 591 q 762 750 702 682 q 893 857 822 818 q 1155 968 1100 968 m 934 345 q 916 401 923 373 q 861 322 888 361 q 886 324 875 322 q 934 345 897 326 m 882 465 q 845 472 865 472 q 804 447 825 472 q 784 393 784 422 q 800 345 784 365 q 882 465 868 443 m 794 -197 q 750 -302 794 -255 q 689 -348 705 -348 q 673 -345 673 -348 q 703 -309 673 -343 q 733 -254 733 -275 q 714 -216 733 -233 q 695 -191 695 -200 q 736 -150 695 -150 q 775 -163 757 -150 q 794 -197 794 -177 "},"ö":{"x_min":-13.890625,"x_max":519.484375,"ha":390,"o":"m 362 294 q 269 131 362 245 q 81 -2 159 -2 l 59 -2 q 2 34 23 -2 q -13 93 -13 61 q 107 327 -13 176 q 304 477 229 477 q 375 402 375 477 q 368 352 375 383 q 394 348 369 348 q 470 375 419 348 q 361 306 469 351 q 362 294 362 301 m 272 366 q 138 255 225 366 q 51 91 51 144 q 84 38 51 38 q 236 147 144 38 q 327 302 327 255 q 272 366 305 315 m 454 548 q 437 560 445 548 q 429 580 429 572 q 463 622 429 600 q 507 645 498 645 q 518 644 516 645 l 518 645 q 519 643 519 644 q 502 623 511 632 l 483 579 q 454 548 470 548 m 316 548 q 300 560 308 548 q 293 580 293 572 q 327 622 293 600 q 371 645 362 645 q 381 644 380 645 l 381 643 l 366 623 l 347 579 q 316 548 334 548 "},"i":{"x_min":-20.828125,"x_max":373.640625,"ha":314,"o":"m 301 566 q 341 553 322 566 q 359 522 359 540 q 342 491 359 504 q 304 477 325 477 q 265 493 283 477 q 248 527 248 508 q 301 566 248 566 m 50 -15 q -20 76 -20 -15 q 61 284 -20 151 q 193 418 143 416 q 224 406 206 418 q 241 384 241 395 q 225 363 234 375 q 204 337 215 351 q 173 297 193 323 q 136 248 154 272 q 31 63 31 113 q 66 12 31 12 q 145 44 95 12 q 330 202 262 116 q 364 234 355 234 q 373 223 373 234 q 341 179 373 212 q 291 126 309 145 q 265 100 272 106 q 239 77 258 94 q 211 52 220 59 q 183 31 201 45 q 151 11 165 18 q 119 -2 137 5 q 50 -15 90 -15 "},"≤":{"x_min":80.5625,"x_max":369.46875,"ha":442,"o":"m 318 605 q 180 393 318 584 q 315 210 315 223 q 311 191 315 197 q 290 194 306 186 q 211 276 258 237 l 122 347 q 118 355 118 350 q 188 471 118 372 q 277 592 259 570 q 306 613 294 613 q 318 605 318 613 m 80 118 q 217 129 102 129 q 365 112 331 129 q 369 108 369 111 q 361 101 369 101 q 234 93 318 101 q 109 84 151 84 q 92 97 102 84 q 80 118 81 109 "},"Õ":{"x_min":33.34375,"x_max":1169.53125,"ha":1089,"o":"m 1127 494 q 950 162 1127 320 q 337 -81 676 -81 q 279 -80 300 -81 q 100 -7 168 -75 q 33 166 33 59 q 90 400 33 273 q 372 711 162 559 q 872 883 613 883 q 1083 829 1011 883 q 1155 694 1155 775 q 1116 570 1155 644 q 1127 494 1127 533 m 1098 612 q 1112 686 1112 645 q 1082 770 1112 727 q 870 854 1022 854 q 475 724 661 854 q 184 397 288 594 q 108 140 108 254 q 293 -52 108 -43 q 331 -54 312 -54 q 852 166 605 -54 q 1044 468 1030 325 q 794 279 972 388 l 783 276 q 782 277 782 276 q 819 315 782 283 l 897 379 q 1043 522 997 466 q 973 652 1033 600 q 834 727 912 704 q 714 740 795 737 q 633 745 633 743 q 636 751 633 748 q 759 772 700 772 q 894 754 818 772 q 1098 612 1040 719 m 1169 1016 q 1113 958 1169 995 q 1073 947 1095 947 q 1004 966 1050 947 q 936 984 959 984 q 891 966 913 984 q 862 948 869 948 q 861 951 861 950 q 920 1008 861 973 q 967 1022 943 1022 q 1035 1007 991 1022 q 1107 993 1079 993 q 1161 1022 1136 993 q 1169 1016 1169 1022 "},"þ":{"x_min":-109.34375,"x_max":640.71875,"ha":376,"o":"m 443 666 l 392 657 q 385 665 383 657 q 442 686 392 686 q 514 670 493 686 q 535 640 535 655 q 531 611 535 625 q 479 520 528 597 q 386 380 430 443 q 442 405 400 393 q 517 419 494 419 q 603 391 567 419 q 640 313 640 362 q 512 100 640 201 q 289 0 383 0 q 201 7 226 0 q 149 41 175 15 q -71 -338 -71 -281 q -53 -355 -71 -355 l -6 -340 q -5 -343 -2 -340 q -28 -361 -7 -352 q -67 -370 -49 -370 q -97 -350 -85 -370 q -109 -315 -109 -329 q -106 -294 -109 -302 q -14 -95 -82 -205 l 397 516 q 460 637 453 608 q 443 666 468 666 m 569 327 q 507 380 569 380 q 393 354 444 380 q 332 302 374 344 q 165 65 187 98 q 271 38 194 38 q 458 125 347 38 q 569 327 569 212 "},"]":{"x_min":31.953125,"x_max":795.890625,"ha":772,"o":"m 600 968 l 495 961 q 455 977 455 961 q 572 997 455 997 q 795 947 795 997 q 616 437 795 780 q 300 0 436 94 q 147 -23 263 -23 q 31 5 31 -23 q 33 23 31 11 q 52 25 38 25 l 152 19 q 236 33 213 19 q 313 112 258 47 q 566 504 426 245 q 707 890 707 763 q 600 968 707 968 "},"m":{"x_min":-51.390625,"x_max":945.90625,"ha":876,"o":"m 663 16 q 569 104 569 16 q 613 240 569 154 q 707 387 658 327 q 508 236 620 345 q 351 8 395 127 q 327 -2 344 -2 q 294 34 294 -2 q 356 209 308 111 q 447 395 372 241 q 263 243 338 325 q 122 80 187 162 q 50 -1 58 -1 q 18 15 31 -1 q 5 48 5 31 q 77 231 5 73 l -5 144 q -43 113 -36 113 q -51 122 -51 113 q -40 143 -51 131 q 51 245 11 194 q 184 429 91 297 q 227 450 200 450 q 255 423 255 450 q 181 288 255 413 q 100 130 108 162 q 270 298 156 193 q 495 456 441 456 q 526 447 512 456 q 540 425 540 437 q 486 320 540 413 q 427 206 433 225 q 581 337 581 336 q 769 438 712 438 q 800 428 786 438 q 815 404 815 418 q 725 286 815 401 q 623 98 634 172 q 633 61 620 73 q 678 48 645 48 q 774 93 711 48 q 902 215 837 138 q 936 243 927 243 q 945 236 945 243 q 933 213 945 226 q 786 74 865 131 q 663 16 708 16 "},"8":{"x_min":1.390625,"x_max":997.296875,"ha":845,"o":"m 715 513 q 816 363 816 450 q 709 187 816 277 q 453 36 602 97 q 186 -25 304 -25 q 30 20 69 -25 q 1 100 1 54 q 86 273 1 183 q 459 556 244 445 q 373 658 373 609 q 379 686 373 673 q 513 822 409 769 q 707 875 616 875 q 845 847 797 875 q 883 791 883 825 q 858 723 883 758 l 975 761 q 991 758 986 763 q 997 744 997 752 q 957 708 997 718 q 587 576 793 672 q 715 513 670 541 m 815 813 q 704 833 761 833 q 533 788 605 833 q 461 691 461 744 q 547 594 461 633 q 812 708 645 641 q 841 784 841 765 q 815 813 841 804 m 77 91 q 190 1 77 1 q 405 52 280 1 q 737 330 737 188 q 618 475 737 413 l 498 536 q 245 348 376 466 q 77 91 77 194 "},"ž":{"x_min":-18.0625,"x_max":576.4375,"ha":536,"o":"m 93 56 q 13 18 37 18 q -18 52 -18 18 q -9 83 -18 65 q 6 101 -1 101 q 12 80 19 101 q 25 59 8 59 q 65 76 41 59 l 12 116 q 9 126 9 119 q 23 146 9 133 q 45 159 37 159 q 112 112 52 159 q 365 368 284 306 q 202 401 255 401 q 173 399 187 401 q 143 382 159 397 q 127 350 127 368 q 143 320 127 331 q 158 301 158 308 q 147 294 158 294 q 113 322 137 294 q 91 379 91 350 q 162 443 91 427 q 238 450 200 450 q 430 400 277 450 q 472 411 450 411 q 530 376 530 411 q 512 350 530 362 q 469 338 494 338 q 423 348 444 338 q 140 90 291 266 l 190 51 q 329 12 250 12 q 445 37 408 12 q 483 101 483 62 q 476 135 483 119 q 488 151 469 151 q 502 135 495 151 q 509 97 509 119 q 456 5 509 41 q 320 -30 404 -30 q 169 4 229 -30 q 93 56 145 16 m 519 634 q 568 657 559 657 q 576 643 576 657 q 493 558 576 629 q 388 486 405 487 l 380 490 q 206 638 331 544 q 195 655 195 650 q 205 662 195 661 q 284 629 234 659 q 349 585 333 598 q 378 559 365 572 q 395 543 391 545 q 519 634 479 612 "},"R":{"x_min":-58.34375,"x_max":1266.765625,"ha":1045,"o":"m 794 375 q 665 386 725 375 q 747 109 684 325 q 808 -16 766 47 q 913 -98 865 -98 q 1011 19 972 -98 q 1025 47 1018 47 q 1036 31 1033 47 q 1040 9 1040 15 q 1001 -79 1040 -25 q 888 -155 950 -155 q 776 -94 827 -155 q 675 128 725 -33 q 626 334 626 290 q 627 345 626 341 q 388 54 461 125 q 59 -102 227 -102 q -58 -13 -58 -102 q -30 84 -58 30 q 37 177 -2 137 q 108 218 77 218 q 113 215 113 218 q 79 180 113 208 q 12 102 44 152 q -19 9 -19 51 q 79 -63 -19 -63 q 587 369 263 -63 q 618 402 605 393 l 595 411 q 566 404 577 404 q 537 427 537 404 q 580 469 537 459 q 590 470 586 470 q 648 445 615 470 q 773 584 770 581 q 910 688 875 688 q 945 658 945 688 q 939 632 945 644 q 925 619 933 619 q 916 627 916 616 q 925 644 916 633 q 912 663 926 663 q 697 427 868 663 q 766 425 738 425 q 1169 591 1088 425 q 1186 658 1186 627 q 1130 763 1186 719 q 841 836 1041 836 q 433 734 641 836 q 180 444 180 611 q 248 390 180 390 q 393 440 316 390 q 495 538 469 490 q 514 556 505 556 q 519 545 523 556 q 402 413 493 468 q 212 358 311 358 q 113 420 113 358 q 113 430 113 425 q 336 739 134 612 q 823 866 538 866 q 1200 775 1088 866 q 1266 644 1266 719 q 1251 575 1266 612 q 1075 424 1208 473 q 794 375 941 375 "},"á":{"x_min":-12.109375,"x_max":662.9375,"ha":572,"o":"m 461 415 l 480 419 q 510 406 496 419 q 524 386 524 393 q 437 253 524 380 q 351 76 351 126 q 353 68 351 72 q 383 36 360 36 q 647 275 455 36 q 657 280 651 280 q 662 270 662 280 q 650 243 662 259 q 379 5 472 5 q 355 9 367 5 q 294 101 294 33 q 300 148 294 125 l 212 65 q 95 -6 132 -6 q 25 16 58 -6 q -12 90 -12 44 q 129 332 -12 191 q 389 473 271 473 q 450 441 435 473 q 457 422 454 430 q 461 415 460 415 m 46 73 q 80 23 46 23 q 299 200 160 23 q 447 402 435 384 q 411 422 436 422 q 186 290 326 422 q 46 73 46 159 m 565 677 q 479 623 553 668 q 397 579 405 579 q 389 587 389 579 q 393 595 389 591 l 540 709 q 564 722 555 722 q 576 705 576 722 q 565 677 576 688 "},"×":{"x_min":29.171875,"x_max":404.203125,"ha":394,"o":"m 173 415 l 191 416 q 210 400 205 416 q 229 287 215 384 q 314 359 245 304 q 386 415 383 415 q 404 398 404 415 q 398 388 404 394 l 233 262 q 315 136 254 136 q 354 145 322 136 q 358 143 358 145 q 323 120 358 133 q 263 108 288 108 q 221 136 238 108 q 187 234 204 163 q 115 163 176 220 q 41 105 54 105 q 29 112 29 105 q 100 187 36 126 q 181 259 165 248 l 168 337 q 147 384 159 369 q 127 402 134 400 q 119 406 119 404 q 173 415 119 415 "},"o":{"x_min":-13.890625,"x_max":470.875,"ha":390,"o":"m 362 294 q 269 131 362 245 q 81 -2 159 -2 l 59 -2 q 2 34 23 -2 q -13 93 -13 61 q 107 327 -13 176 q 304 477 229 477 q 375 402 375 477 q 368 352 375 383 q 394 348 369 348 q 470 375 419 348 q 361 306 469 351 q 362 294 362 301 m 272 366 q 138 255 225 366 q 51 91 51 144 q 84 38 51 38 q 236 147 144 38 q 327 302 327 255 q 272 366 305 315 "},"5":{"x_min":-45.84375,"x_max":1101.484375,"ha":920,"o":"m 1038 787 q 937 769 997 769 q 761 787 877 769 q 561 805 644 805 q 427 766 479 805 q 413 779 416 758 q 413 816 411 793 q 426 845 416 838 q 488 872 458 869 q 578 876 519 876 q 766 840 637 876 q 941 804 895 804 q 1027 824 986 804 q 1068 877 1068 844 q 1084 898 1068 898 q 1101 862 1101 898 q 1038 787 1101 813 m 191 -11 q 22 25 91 -11 q -45 129 -45 61 q 44 284 -45 198 q 69 298 58 298 q 80 288 80 298 q 66 263 80 277 q 16 162 16 216 q 80 69 16 108 q 230 30 144 30 q 568 150 395 30 q 773 426 741 270 q 776 454 776 445 q 690 559 776 523 q 565 580 630 580 q 386 540 469 580 l 240 469 q 231 468 237 468 q 219 486 219 468 q 237 513 219 505 l 401 720 q 452 736 413 736 q 491 727 491 736 q 488 722 491 725 l 327 547 q 581 618 505 618 q 879 470 879 618 q 870 420 879 447 q 619 119 813 241 q 191 -11 411 -11 "},"ħ":{"x_min":-77.78125,"x_max":583.375,"ha":522,"o":"m 406 515 q 388 508 406 508 q 293 501 369 508 l 262 461 q 97 219 116 276 q 276 345 148 256 q 458 441 413 441 q 502 406 502 441 q 502 399 502 401 q 405 268 501 397 q 309 77 309 138 q 333 45 309 45 q 558 226 408 48 q 577 238 570 238 q 583 230 583 238 q 445 80 583 202 q 329 5 359 5 q 247 101 247 5 q 285 221 247 155 q 379 376 323 287 q 56 113 201 287 q -37 -6 -23 -6 q -77 16 -77 -6 q -61 61 -77 29 q 194 493 84 319 q 147 491 175 491 q 129 504 140 491 q 118 525 119 516 q 223 536 134 533 q 376 700 326 683 q 381 701 379 701 q 406 672 400 701 q 318 534 402 645 q 392 523 377 530 q 406 515 406 516 "},"õ":{"x_min":-13.890625,"x_max":538.9375,"ha":390,"o":"m 362 294 q 269 131 362 245 q 81 -2 159 -2 l 59 -2 q 2 34 23 -2 q -13 93 -13 61 q 107 327 -13 176 q 304 477 229 477 q 375 402 375 477 q 368 352 375 383 q 394 348 369 348 q 470 375 419 348 q 361 306 469 351 q 362 294 362 301 m 272 366 q 138 255 225 366 q 51 91 51 144 q 84 38 51 38 q 236 147 144 38 q 327 302 327 255 q 272 366 305 315 m 538 629 q 483 570 538 608 q 443 559 465 559 q 377 577 420 559 q 309 595 334 595 q 261 577 283 595 q 230 563 230 552 q 290 620 230 586 q 336 634 312 634 q 404 620 361 634 q 478 605 448 605 q 530 634 508 605 q 538 629 538 634 "},"7":{"x_min":150.015625,"x_max":969.515625,"ha":686,"o":"m 206 19 q 209 -4 206 9 q 193 -20 211 -20 q 169 4 170 -20 q 168 27 168 11 q 354 386 168 175 q 802 802 541 597 q 484 833 580 833 q 329 808 388 833 q 219 682 250 773 q 186 654 208 654 q 157 663 165 654 q 150 679 150 672 q 155 709 150 691 l 180 759 q 194 809 194 788 q 208 850 194 852 q 219 807 219 841 q 480 894 316 894 q 666 867 551 894 q 840 832 780 840 l 911 884 q 924 887 915 887 q 951 868 933 887 q 969 841 969 850 q 962 827 969 832 q 400 359 629 586 q 269 190 331 291 q 206 19 206 90 "},"K":{"x_min":30.5625,"x_max":2202.953125,"ha":1300,"o":"m 1155 968 q 1184 947 1184 968 q 951 462 1184 862 q 982 375 961 425 l 1395 690 q 1716 922 1633 870 q 2082 1033 1902 1033 q 2176 1016 2133 1033 q 2202 980 2202 1007 q 2189 954 2202 954 q 2171 965 2180 954 q 2118 976 2162 976 q 1976 954 2075 976 q 1623 798 1820 919 q 1293 563 1500 722 q 994 345 1086 405 q 1176 69 1065 197 q 1483 -129 1347 -129 q 1550 -77 1550 -129 q 1548 -58 1550 -68 q 1552 -34 1545 -48 q 1569 -20 1559 -20 q 1593 -63 1587 -20 q 1594 -77 1594 -70 q 1549 -150 1594 -122 q 1442 -179 1504 -179 q 1339 -159 1380 -179 q 1117 30 1229 -105 q 945 316 1005 166 q 819 268 869 272 q 590 33 726 147 q 430 -67 516 -29 q 265 -105 344 -105 q 91 -49 152 -105 q 30 122 30 6 q 52 227 30 179 q 266 444 123 384 q 424 479 345 479 q 529 427 502 479 q 538 389 538 409 q 533 363 538 369 q 518 373 527 358 q 447 441 484 434 q 411 444 422 444 q 208 354 302 444 q 86 98 86 236 q 255 -70 86 -51 q 266 -70 261 -70 q 423 -16 327 -70 q 755 288 579 72 q 723 375 723 318 q 766 482 723 431 q 882 533 808 533 q 920 529 902 533 q 1055 781 990 645 q 1120 937 1120 916 q 1112 940 1120 940 q 1016 896 1104 940 q 890 827 927 852 q 798 749 852 802 q 744 662 744 695 q 766 632 744 647 q 844 616 787 616 q 851 609 851 613 q 813 597 851 604 q 752 591 775 591 q 702 633 702 591 q 762 750 702 682 q 893 857 822 818 q 1155 968 1100 968 m 934 345 q 916 401 923 373 q 861 322 888 361 q 886 324 875 322 q 934 345 897 326 m 882 465 q 845 472 865 472 q 804 447 825 472 q 784 393 784 422 q 800 345 784 365 q 882 465 868 443 "},",":{"x_min":112.515625,"x_max":233.359375,"ha":269,"o":"m 233 40 q 188 -64 233 -18 q 128 -111 144 -111 q 112 -108 112 -111 q 142 -71 112 -105 q 172 -16 172 -37 q 153 20 172 4 q 134 45 134 37 q 175 87 134 87 q 214 73 195 87 q 233 40 233 59 "},"d":{"x_min":-12.109375,"x_max":717.109375,"ha":649,"o":"m 455 420 q 672 673 611 673 q 699 667 682 673 q 717 648 717 661 q 710 630 717 641 q 544 426 599 494 q 364 129 380 219 q 360 90 360 109 q 411 27 360 27 q 679 218 514 27 q 703 234 693 231 q 712 229 712 236 q 704 212 712 222 q 418 -2 543 19 q 399 -4 411 -4 q 334 25 355 -4 q 312 90 312 55 q 328 176 312 129 l 215 63 q 95 -6 139 -6 q 22 16 51 -6 q -12 90 -12 43 q 129 332 -12 191 q 389 473 271 473 q 443 452 428 473 q 455 420 449 445 m 46 73 q 80 23 46 23 q 279 187 140 23 q 446 405 304 216 q 412 422 436 422 q 186 290 326 422 q 46 73 46 159 "},"¨":{"x_min":44.453125,"x_max":322.25,"ha":363,"o":"m 320 594 q 301 569 319 594 l 279 513 q 241 476 262 476 q 222 491 231 476 q 212 521 212 505 q 252 566 212 537 q 316 595 294 595 l 320 594 m 73 476 q 54 491 63 476 q 44 521 44 505 q 84 566 44 537 q 148 595 126 595 q 152 594 150 595 q 133 569 151 594 l 111 513 q 73 476 94 476 m 154 593 q 152 594 154 594 l 154 594 l 154 593 m 322 594 l 322 593 l 320 594 l 322 594 "},"Ô":{"x_min":33.34375,"x_max":1175.09375,"ha":1089,"o":"m 1127 494 q 950 162 1127 320 q 337 -81 676 -81 q 279 -80 300 -81 q 100 -7 168 -75 q 33 166 33 59 q 90 400 33 273 q 372 711 162 559 q 872 883 613 883 q 1083 829 1011 883 q 1155 694 1155 775 q 1116 570 1155 644 q 1127 494 1127 533 m 1098 612 q 1112 686 1112 645 q 1082 770 1112 727 q 870 854 1022 854 q 475 724 661 854 q 184 397 288 594 q 108 140 108 254 q 293 -52 108 -43 q 331 -54 312 -54 q 852 166 605 -54 q 1044 468 1030 325 q 794 279 972 388 l 783 276 q 782 277 782 276 q 819 315 782 283 l 897 379 q 1043 522 997 466 q 973 652 1033 600 q 834 727 912 704 q 714 740 795 737 q 633 745 633 743 q 636 751 633 748 q 759 772 700 772 q 894 754 818 772 q 1098 612 1040 719 m 798 952 q 791 958 791 954 q 807 976 791 963 q 1023 1125 958 1069 l 1033 1129 q 1116 1057 1050 1127 q 1175 974 1175 990 q 1162 958 1175 958 q 1102 997 1147 958 q 1023 1072 1057 1036 q 977 1043 1015 1066 q 890 987 938 1019 q 798 952 841 955 "},"E":{"x_min":4.171875,"x_max":1077.859375,"ha":960,"o":"m 700 565 q 836 513 836 565 q 827 488 836 502 q 707 437 794 437 q 590 457 650 437 q 500 500 530 477 q 270 384 370 462 q 119 208 169 306 q 93 105 93 155 q 157 -20 93 27 q 347 -69 222 -69 q 419 -65 381 -69 q 770 76 640 -41 q 880 280 880 173 q 798 365 880 365 q 572 259 700 365 q 518 193 540 233 q 495 113 495 152 q 534 65 495 75 q 548 51 548 59 q 520 40 548 37 q 454 127 454 41 q 541 288 454 213 q 794 391 661 391 q 920 329 894 391 q 932 270 932 300 q 788 27 932 141 q 355 -111 618 -111 q 98 -50 193 -111 q 4 106 4 9 q 40 220 4 163 q 476 522 168 423 q 430 634 430 575 q 459 734 430 694 q 630 862 516 812 q 902 922 766 922 q 1029 896 982 922 q 1077 817 1077 870 q 1038 727 1077 763 q 955 690 998 690 q 912 711 912 690 q 930 723 912 723 l 958 719 q 1009 749 986 719 q 1032 811 1032 779 q 977 880 1032 858 q 912 894 943 894 q 869 893 882 894 q 636 809 750 886 q 502 612 502 722 q 530 537 502 572 q 700 565 619 565 m 554 515 q 691 468 613 468 q 769 511 769 468 q 700 530 769 530 q 554 515 630 530 "},"Y":{"x_min":19.453125,"x_max":1319.546875,"ha":1225,"o":"m 466 -352 q 363 -315 413 -352 q 312 -231 312 -277 q 341 -202 312 -202 q 362 -205 348 -202 q 390 -284 379 -263 q 470 -322 413 -322 q 890 144 641 -322 l 1140 590 q 760 192 872 304 q 607 55 648 80 q 469 5 523 5 q 390 98 390 5 q 484 327 390 209 q 543 399 491 336 q 666 550 595 462 q 782 718 736 637 q 829 832 829 800 q 809 875 829 865 q 718 895 769 895 q 311 718 570 895 q 138 547 202 644 q 75 368 75 450 q 154 265 75 286 q 202 258 179 258 q 359 319 273 258 q 473 391 461 387 q 363 279 459 340 q 166 213 258 213 q 120 218 154 213 q 52 269 86 223 q 19 380 19 315 q 295 766 19 569 q 508 872 376 825 q 721 919 640 919 q 845 893 802 919 q 887 811 887 868 q 809 636 887 755 q 563 313 732 518 q 500 209 529 273 q 470 106 470 144 q 500 68 470 68 q 590 111 530 68 q 928 404 759 231 q 1176 693 1097 576 q 1297 775 1233 775 q 1319 761 1319 775 q 1316 750 1319 758 q 840 -61 1141 444 q 650 -279 751 -206 q 466 -352 550 -352 "},"\"":{"x_min":23.609375,"x_max":286.140625,"ha":286,"o":"m 286 608 q 241 503 286 550 q 181 456 197 456 q 165 460 165 456 q 195 497 165 463 q 225 552 225 531 q 206 588 225 572 q 187 613 187 605 q 229 655 187 655 q 268 641 250 655 q 286 608 286 627 m 145 608 q 100 503 145 550 q 34 456 55 456 q 23 461 23 456 q 38 477 29 468 q 55 497 47 487 q 84 550 84 529 q 65 588 84 572 q 47 613 47 605 q 87 655 47 655 q 127 641 108 655 q 145 608 145 627 "},"‹":{"x_min":118.0625,"x_max":318.078125,"ha":472,"o":"m 180 384 q 316 195 316 211 q 304 180 316 180 q 290 186 301 180 q 122 338 251 240 q 118 351 118 341 q 187 460 118 361 q 276 582 256 559 q 306 605 295 605 q 318 597 318 605 q 180 384 318 576 "},"˙":{"x_min":76.390625,"x_max":187.515625,"ha":240,"o":"m 181 793 q 186 791 184 793 q 166 766 184 791 l 143 711 q 105 673 127 673 q 86 688 95 673 q 76 718 76 702 q 118 763 76 734 q 181 793 159 793 m 187 790 q 186 791 187 791 q 187 790 186 790 "},"ê":{"x_min":-45.84375,"x_max":452.8125,"ha":357,"o":"m 70 -18 q 43 -13 55 -18 q -45 86 -45 11 q 76 311 -45 183 q 295 438 198 438 q 347 421 327 438 q 368 379 368 404 q 250 230 368 301 q 59 159 133 159 q 40 162 48 159 q 19 83 19 125 q 88 11 19 11 q 266 104 156 11 q 411 250 348 169 q 432 266 423 266 q 441 258 441 266 q 430 234 441 250 q 248 57 352 133 q 70 -18 144 -18 m 333 381 q 297 398 333 398 q 197 344 262 398 q 61 193 109 272 q 79 190 69 190 q 220 246 131 190 q 330 369 308 302 q 333 381 333 376 m 333 554 q 245 488 252 488 q 237 497 237 488 q 284 544 237 505 q 344 586 331 583 l 350 583 q 448 498 381 548 l 452 491 l 448 484 q 388 513 430 487 q 333 554 347 540 "},"Ï":{"x_min":29.171875,"x_max":1220.9375,"ha":800,"o":"m 991 550 l 982 587 q 993 598 982 598 q 1004 594 997 598 q 1036 531 1036 570 q 986 456 1036 493 q 859 419 936 419 q 812 423 836 419 q 579 98 716 247 q 245 -95 395 -95 q 29 159 29 -95 q 141 500 29 370 q 358 611 236 611 q 423 600 390 611 q 505 464 505 568 q 420 248 505 361 q 247 136 336 136 q 147 244 147 136 q 160 308 147 275 q 190 341 173 341 q 202 329 202 341 q 190 294 202 322 q 177 245 177 266 q 200 204 177 223 q 248 186 223 186 q 400 286 330 186 q 470 483 470 387 q 418 580 470 556 q 380 587 400 587 q 183 451 281 587 q 87 150 87 313 q 126 2 87 59 q 237 -55 166 -55 q 715 443 420 -55 q 562 623 562 488 q 744 909 562 802 q 968 976 859 976 q 1120 948 1052 976 q 1216 834 1216 911 q 1209 802 1216 818 q 1193 787 1201 787 q 1150 805 1175 805 q 826 454 1032 805 q 850 452 837 452 q 944 480 897 452 q 991 550 991 508 m 1001 937 q 838 896 930 937 q 691 776 745 855 q 636 597 636 697 q 738 477 636 497 q 936 727 815 602 q 1137 851 1057 851 q 1173 841 1158 851 q 1119 909 1172 880 q 1001 937 1072 937 m 1140 1026 q 1120 1041 1130 1026 q 1111 1071 1111 1055 q 1151 1116 1111 1087 q 1215 1145 1193 1145 q 1219 1144 1216 1145 q 1200 1119 1218 1144 l 1177 1063 q 1140 1026 1161 1026 m 1051 1144 q 1032 1119 1050 1144 l 1009 1063 q 972 1026 993 1026 q 952 1041 962 1026 q 943 1071 943 1055 q 983 1116 943 1087 q 1047 1145 1025 1145 l 1051 1144 m 1220 1144 l 1220 1143 l 1219 1144 l 1220 1144 m 1052 1144 l 1052 1143 l 1051 1144 l 1052 1144 "},"„":{"x_min":75,"x_max":216.6875,"ha":217,"o":"m 216 98 q 205 17 216 86 q 190 -58 194 -51 q 181 -63 188 -63 q 177 -52 177 -63 q 170 98 177 36 q 207 102 200 102 q 216 101 215 102 l 216 98 m 120 98 q 109 17 120 86 q 94 -58 98 -51 q 86 -63 93 -63 q 81 -52 81 -63 q 75 98 81 36 q 111 102 104 102 q 120 101 119 102 l 120 98 "},"Â":{"x_min":-1.390625,"x_max":1734.859375,"ha":1417,"o":"m 1314 397 l 1448 400 q 1498 393 1498 400 q 1295 361 1498 375 q 1166 16 1166 108 q 1207 -47 1166 -47 q 1245 -28 1222 -47 q 1273 -9 1268 -9 q 1277 -16 1277 -9 q 1235 -58 1270 -41 q 1175 -75 1200 -75 q 1137 -72 1151 -75 q 1104 8 1104 -59 q 1211 365 1104 148 l 1044 361 q 670 41 858 179 q 231 -162 390 -162 q 212 -161 222 -162 q -1 58 -1 -143 q 73 311 -1 177 q 347 614 173 488 q 658 740 520 740 q 795 638 795 740 q 754 487 795 570 q 669 381 712 404 q 660 380 665 380 q 655 383 655 380 l 701 458 q 748 587 748 531 q 724 677 748 643 q 647 711 700 711 q 388 590 538 711 q 159 293 237 469 q 80 18 80 116 q 231 -130 80 -130 q 623 55 376 -130 q 980 365 733 137 q 890 355 932 362 q 807 361 801 338 q 859 412 812 412 q 1013 401 951 401 q 1370 761 1133 511 q 1565 929 1530 929 q 1580 905 1580 929 q 1568 832 1580 882 q 1540 770 1555 782 q 1480 710 1508 748 q 1401 567 1452 672 q 1314 397 1350 462 m 1425 736 l 1069 402 l 1151 402 q 1223 401 1180 401 q 1425 736 1263 480 m 1422 990 q 1391 1000 1391 982 q 1405 1016 1391 1004 q 1543 1108 1511 1080 q 1593 1143 1584 1143 q 1672 1078 1614 1143 q 1732 1006 1730 1013 q 1734 995 1734 998 q 1723 982 1734 982 q 1664 1026 1712 982 q 1584 1088 1615 1070 q 1538 1059 1576 1083 q 1466 1013 1500 1036 q 1422 990 1433 991 "},"ķ":{"x_min":-38.890625,"x_max":608.375,"ha":547,"o":"m 284 -16 q 98 156 175 -16 q 11 -6 79 127 q -38 45 -38 12 q 140 373 -38 105 q 386 688 319 641 q 408 693 391 693 q 451 670 451 693 q 354 545 451 659 q 247 408 258 431 q 448 473 373 473 q 522 438 491 473 q 551 379 551 409 q 551 370 551 375 q 440 240 540 291 q 290 197 359 197 q 193 215 220 197 q 179 211 184 216 q 177 197 175 205 q 306 25 216 25 q 428 77 354 25 q 583 226 502 130 q 600 236 593 236 q 608 228 608 236 q 598 206 608 220 q 456 62 523 115 q 284 -16 355 -16 m 484 408 q 472 430 484 419 q 445 441 459 441 q 265 379 370 441 q 137 237 161 316 q 204 233 150 237 q 368 284 266 233 q 484 408 484 343 m 176 -197 q 131 -302 176 -255 q 71 -348 87 -348 q 55 -345 55 -348 q 85 -309 55 -343 q 115 -254 115 -275 q 96 -216 115 -233 q 77 -191 77 -200 q 118 -150 77 -150 q 157 -163 138 -150 q 176 -197 176 -177 "},"Í":{"x_min":29.171875,"x_max":1247.328125,"ha":800,"o":"m 991 550 l 982 587 q 993 598 982 598 q 1004 594 997 598 q 1036 531 1036 570 q 986 456 1036 493 q 859 419 936 419 q 812 423 836 419 q 579 98 716 247 q 245 -95 395 -95 q 29 159 29 -95 q 141 500 29 370 q 358 611 236 611 q 423 600 390 611 q 505 464 505 568 q 420 248 505 361 q 247 136 336 136 q 147 244 147 136 q 160 308 147 275 q 190 341 173 341 q 202 329 202 341 q 190 294 202 322 q 177 245 177 266 q 200 204 177 223 q 248 186 223 186 q 400 286 330 186 q 470 483 470 387 q 418 580 470 556 q 380 587 400 587 q 183 451 281 587 q 87 150 87 313 q 126 2 87 59 q 237 -55 166 -55 q 715 443 420 -55 q 562 623 562 488 q 744 909 562 802 q 968 976 859 976 q 1120 948 1052 976 q 1216 834 1216 911 q 1209 802 1216 818 q 1193 787 1201 787 q 1150 805 1175 805 q 826 454 1032 805 q 850 452 837 452 q 944 480 897 452 q 991 550 991 508 m 1001 937 q 838 896 930 937 q 691 776 745 855 q 636 597 636 697 q 738 477 636 497 q 936 727 815 602 q 1137 851 1057 851 q 1173 841 1158 851 q 1119 909 1172 880 q 1001 937 1072 937 m 1151 1047 q 1069 1002 1079 1002 q 1059 1009 1059 1002 q 1065 1020 1059 1016 l 1211 1133 q 1236 1145 1225 1145 q 1247 1129 1247 1145 q 1236 1101 1247 1112 q 1151 1047 1223 1091 "},"´":{"x_min":66.671875,"x_max":254.1875,"ha":307,"o":"m 158 404 q 76 359 86 359 q 66 366 66 359 q 72 377 66 373 l 218 490 q 241 502 233 502 q 254 486 254 502 q 243 458 254 469 q 158 404 230 448 "},"ì":{"x_min":-20.828125,"x_max":359.75,"ha":314,"o":"m 61 -16 q -20 76 -20 -16 q 61 284 -20 151 q 193 418 143 416 q 224 406 206 418 q 241 384 241 395 q 225 363 234 375 q 204 337 215 351 q 173 297 193 323 q 136 248 154 272 q 31 63 31 113 q 69 13 31 13 q 207 87 119 13 q 336 205 295 161 q 354 219 345 219 q 359 211 359 219 q 233 76 359 169 q 61 -16 106 -16 m 148 575 q 137 599 137 586 q 147 612 137 612 q 215 568 158 612 q 284 515 273 525 q 294 500 294 505 q 286 494 294 494 q 220 529 279 494 q 148 575 161 563 "},"±":{"x_min":84.734375,"x_max":561.15625,"ha":608,"o":"m 304 402 l 111 395 q 94 405 102 395 q 84 425 86 415 l 91 431 q 214 437 148 437 q 304 437 280 437 l 295 629 q 306 645 295 637 q 326 654 316 654 l 333 647 q 338 526 338 591 q 338 437 338 461 q 552 427 450 434 q 561 419 561 423 l 561 413 l 548 405 q 338 404 440 405 q 331 204 337 218 q 318 191 325 191 q 304 330 304 191 l 304 402 m 155 123 q 292 134 177 134 q 440 118 406 134 q 444 113 444 116 q 436 106 444 106 q 309 98 393 106 q 184 90 226 90 q 167 102 177 90 q 155 123 156 115 "},"Ú":{"x_min":19.453125,"x_max":1347.328125,"ha":1113,"o":"m 479 -26 q 419 15 419 -26 q 603 346 419 87 q 826 665 787 605 q 911 843 911 795 q 893 872 911 866 q 815 886 859 886 q 425 723 662 886 q 167 470 269 615 q 65 230 65 325 q 120 152 65 162 q 165 148 143 148 q 311 194 236 148 q 405 268 348 216 l 430 276 q 320 175 404 226 q 147 123 236 123 q 98 129 126 123 q 45 168 70 134 q 19 258 19 202 q 430 770 19 476 q 627 872 513 827 q 834 918 741 918 q 925 900 882 918 q 969 839 969 882 q 920 718 969 797 q 766 497 870 640 q 588 231 661 355 q 515 59 515 108 q 534 36 515 36 q 675 113 572 36 q 1250 718 919 300 q 1334 784 1302 784 q 1347 772 1347 784 q 1343 758 1347 766 q 1344 750 1344 754 q 1311 670 1344 720 l 1147 438 q 970 165 1047 294 q 900 13 894 36 l 925 22 q 1045 112 994 61 q 1068 126 1063 126 l 1070 123 q 1033 70 1070 111 q 894 -13 936 -13 q 852 12 852 -13 q 927 176 852 38 q 1165 555 1001 313 q 1077 456 1137 522 q 668 52 736 106 q 479 -26 566 -26 m 1250 988 q 1275 1001 1263 1001 q 1286 985 1286 1001 q 1272 956 1286 969 q 1188 900 1258 943 q 1109 858 1118 858 q 1100 868 1100 858 q 1104 876 1100 872 l 1250 988 "},"|":{"x_min":70.84375,"x_max":219.46875,"ha":304,"o":"m 72 -141 q 70 -139 70 -141 q 76 -113 70 -137 q 119 81 97 -26 q 165 611 165 348 q 156 775 165 719 q 140 857 140 844 q 163 869 140 869 q 219 746 219 869 q 179 276 219 623 q 105 -118 140 -70 q 72 -141 88 -141 "},"§":{"x_min":-38.5,"x_max":939.359375,"ha":792,"o":"m 221 458 q 264 352 228 390 q 340 296 304 313 q 392 272 375 279 q 489 234 439 251 q 611 172 565 204 q 740 250 686 197 q 793 359 793 304 q 746 449 793 413 q 638 503 699 484 q 506 558 578 522 q 399 640 435 594 q 272 564 324 612 q 221 458 221 516 m 7 -63 q 164 -165 7 -165 q 443 -102 304 -165 q 576 -1 530 -68 q 592 38 592 20 q 529 137 592 95 q 424 187 496 158 q 300 238 351 216 q 206 308 249 261 q 164 426 164 355 q 224 566 164 497 q 379 675 283 636 q 364 741 364 708 q 435 886 364 815 q 612 1002 505 958 q 839 1052 731 1052 q 922 1024 906 1052 q 939 970 939 995 q 935 927 939 944 q 917 884 932 909 q 885 857 901 858 q 881 875 875 857 q 887 930 887 922 q 786 1001 887 1001 q 642 974 725 1001 q 490 894 558 947 q 421 780 421 841 q 478 659 428 704 q 591 590 528 613 q 717 544 654 566 q 865 406 865 494 q 800 260 865 333 q 637 147 735 187 q 667 88 667 118 q 652 27 667 58 q 601 -36 637 -4 q 453 -133 530 -98 q 154 -208 297 -208 q -35 -95 -9 -208 q -38 -70 -38 -83 q 22 41 -38 -12 q 157 126 78 94 q 177 133 168 133 q 190 127 186 133 q 140 95 190 120 q 53 29 90 70 q 7 -63 7 -15 "},"Ý":{"x_min":19.453125,"x_max":1319.546875,"ha":1225,"o":"m 466 -352 q 363 -315 413 -352 q 312 -231 312 -277 q 341 -202 312 -202 q 362 -205 348 -202 q 390 -284 379 -263 q 470 -322 413 -322 q 890 144 641 -322 l 1140 590 q 760 192 872 304 q 607 55 648 80 q 469 5 523 5 q 390 98 390 5 q 484 327 390 209 q 543 399 491 336 q 666 550 595 462 q 782 718 736 637 q 829 832 829 800 q 809 875 829 865 q 718 895 769 895 q 311 718 570 895 q 138 547 202 644 q 75 368 75 450 q 154 265 75 286 q 202 258 179 258 q 359 319 273 258 q 473 391 461 387 q 363 279 459 340 q 166 213 258 213 q 120 218 154 213 q 52 269 86 223 q 19 380 19 315 q 295 766 19 569 q 508 872 376 825 q 721 919 640 919 q 845 893 802 919 q 887 811 887 868 q 809 636 887 755 q 563 313 732 518 q 500 209 529 273 q 470 106 470 144 q 500 68 470 68 q 590 111 530 68 q 928 404 759 231 q 1176 693 1097 576 q 1297 775 1233 775 q 1319 761 1319 775 q 1316 750 1319 758 q 840 -61 1141 444 q 650 -279 751 -206 q 466 -352 550 -352 m 1136 951 q 1054 907 1063 907 q 1044 913 1044 907 q 1050 925 1044 920 l 1195 1037 q 1219 1050 1211 1050 q 1232 1033 1232 1050 q 1220 1005 1232 1016 q 1136 951 1208 995 "},"b":{"x_min":-6.9375,"x_max":556.328125,"ha":507,"o":"m 316 345 q 375 440 316 440 q 387 438 380 440 q 411 402 411 434 q 400 322 411 370 q 384 268 388 286 q 407 207 388 244 q 459 170 426 170 q 531 215 491 170 q 547 225 540 225 q 556 215 555 225 q 545 191 556 206 q 455 140 502 140 q 345 240 387 140 q 223 70 302 141 q 66 -1 144 -1 q -6 109 -6 -1 q 156 431 -6 197 q 405 666 319 666 q 438 655 423 666 q 452 629 452 644 q 432 608 452 630 q 322 488 412 586 q 147 275 233 391 q 61 94 61 158 q 70 58 61 77 q 100 38 79 38 q 243 133 161 38 q 326 273 311 216 q 316 345 316 302 "},"q":{"x_min":-38.890625,"x_max":473.65625,"ha":461,"o":"m 170 66 q 29 5 81 5 q -38 80 -38 5 q 34 225 -38 138 q 163 333 100 297 q 412 418 316 418 q 450 394 443 418 l 450 350 q 473 327 473 331 q 469 316 473 322 l 359 212 q 216 16 255 105 q 262 19 225 19 q 320 -13 300 19 q 341 -77 341 -45 q 283 -234 341 -144 q 144 -336 219 -336 q 72 -229 72 -336 q 106 -81 72 -163 l 170 66 m 379 348 q 165 256 308 348 q 4 68 23 163 q 2 59 2 63 q 36 33 2 33 q 222 154 105 33 l 397 340 q 379 348 394 348 m 202 -12 q 145 -131 176 -54 q 115 -237 115 -209 q 126 -286 115 -265 q 156 -308 137 -308 q 247 -219 208 -308 q 286 -86 286 -130 q 266 -27 286 -41 q 202 -12 247 -13 "},"Ö":{"x_min":33.34375,"x_max":1155.640625,"ha":1089,"o":"m 1127 494 q 950 162 1127 320 q 337 -81 676 -81 q 279 -80 300 -81 q 100 -7 168 -75 q 33 166 33 59 q 90 400 33 273 q 372 711 162 559 q 872 883 613 883 q 1083 829 1011 883 q 1155 694 1155 775 q 1116 570 1155 644 q 1127 494 1127 533 m 1098 612 q 1112 686 1112 645 q 1082 770 1112 727 q 870 854 1022 854 q 475 724 661 854 q 184 397 288 594 q 108 140 108 254 q 293 -52 108 -43 q 331 -54 312 -54 q 852 166 605 -54 q 1044 468 1030 325 q 794 279 972 388 l 783 276 q 782 277 782 276 q 819 315 782 283 l 897 379 q 1043 522 997 466 q 973 652 1033 600 q 834 727 912 704 q 714 740 795 737 q 633 745 633 743 q 636 751 633 748 q 759 772 700 772 q 894 754 818 772 q 1098 612 1040 719 m 1132 1094 q 1112 1069 1130 1094 l 1090 1013 q 1052 976 1073 976 q 1033 991 1043 976 q 1023 1021 1023 1005 q 1063 1066 1023 1037 q 1127 1095 1105 1095 l 1132 1094 m 884 976 q 865 991 875 976 q 855 1021 855 1005 q 895 1066 855 1037 q 959 1095 937 1095 q 963 1094 961 1095 q 944 1069 962 1094 l 922 1013 q 884 976 905 976 m 1133 1094 l 1133 1093 l 1132 1094 l 1133 1094 m 965 1094 l 965 1093 l 963 1094 l 965 1094 "},"ﬂ":{"x_min":-337.53125,"x_max":759.78125,"ha":696,"o":"m 390 69 q 436 27 390 27 q 554 76 481 27 q 694 208 626 125 q 720 230 711 230 q 730 222 730 230 q 673 150 730 213 q 441 -2 534 -2 q 363 18 395 -2 q 331 85 331 40 q 355 190 331 130 q 484 427 395 284 l 484 429 q 389 409 450 419 q 269 388 329 400 q 165 177 226 300 q 0 -112 40 -55 q -236 -284 -120 -284 q -306 -250 -276 -284 q -337 -175 -336 -216 q -325 -158 -333 -158 q -319 -168 -320 -158 q -291 -223 -311 -204 q -251 -243 -272 -243 q -36 -97 -133 -243 q 115 202 19 -13 l 190 383 q 51 416 51 384 q 64 440 51 430 q 87 450 77 450 l 218 447 q 468 750 354 750 q 555 708 511 750 q 566 679 566 697 q 541 636 566 636 q 527 647 534 636 q 486 669 515 669 q 366 577 422 669 q 297 447 355 559 l 313 447 q 498 450 461 447 q 715 691 648 691 q 743 681 729 691 q 759 658 758 670 q 636 493 727 615 q 511 317 545 370 q 459 237 476 263 q 433 196 441 211 q 413 158 425 181 q 390 69 390 111 "},"z":{"x_min":-18.0625,"x_max":530.59375,"ha":536,"o":"m 93 56 q 13 18 37 18 q -18 52 -18 18 q -9 83 -18 65 q 6 101 -1 101 q 12 80 19 101 q 25 59 8 59 q 65 76 41 59 l 12 116 q 9 126 9 119 q 23 146 9 133 q 45 159 37 159 q 112 112 52 159 q 365 368 284 306 q 202 401 255 401 q 173 399 187 401 q 143 382 159 397 q 127 350 127 368 q 143 320 127 331 q 158 301 158 308 q 147 294 158 294 q 113 322 137 294 q 91 379 91 350 q 162 443 91 427 q 238 450 200 450 q 430 400 277 450 q 472 411 450 411 q 530 376 530 411 q 512 350 530 362 q 469 338 494 338 q 423 348 444 338 q 140 90 291 266 l 190 51 q 329 12 250 12 q 445 37 408 12 q 483 101 483 62 q 476 135 483 119 q 488 151 469 151 q 502 135 495 151 q 509 97 509 119 q 456 5 509 41 q 320 -30 404 -30 q 169 4 229 -30 q 93 56 145 16 "},"™":{"x_min":37.5,"x_max":880.625,"ha":911,"o":"m 880 829 q 873 787 880 819 q 862 730 866 755 q 843 495 858 630 q 794 472 827 472 q 779 484 779 472 q 825 725 779 505 q 612 537 679 537 q 488 725 541 537 q 449 600 473 691 q 408 481 425 508 q 372 455 391 455 q 352 462 352 455 q 405 602 352 469 q 468 762 459 736 q 475 832 469 786 q 508 879 481 879 q 526 848 518 879 q 552 686 536 794 q 626 566 580 566 q 763 716 668 566 q 863 866 861 866 q 880 829 880 866 m 172 840 l 72 833 q 37 851 43 833 q 208 881 47 869 q 418 893 369 893 q 468 882 468 893 q 368 854 468 863 q 259 825 269 844 q 204 681 234 777 q 164 551 175 584 q 127 459 154 518 q 96 447 119 447 q 73 464 73 447 q 122 599 73 481 q 194 769 170 716 q 211 828 211 816 q 172 840 211 840 "},"ã":{"x_min":-12.109375,"x_max":662.9375,"ha":572,"o":"m 461 415 l 480 419 q 510 406 496 419 q 524 386 524 393 q 437 253 524 380 q 351 76 351 126 q 353 68 351 72 q 383 36 360 36 q 647 275 455 36 q 657 280 651 280 q 662 270 662 280 q 650 243 662 259 q 379 5 472 5 q 355 9 367 5 q 294 101 294 33 q 300 148 294 125 l 212 65 q 95 -6 132 -6 q 25 16 58 -6 q -12 90 -12 44 q 129 332 -12 191 q 389 473 271 473 q 450 441 435 473 q 457 422 454 430 q 461 415 460 415 m 46 73 q 80 23 46 23 q 299 200 160 23 q 447 402 435 384 q 411 422 436 422 q 186 290 326 422 q 46 73 46 159 m 446 613 l 542 593 q 583 613 567 593 q 588 615 586 615 q 590 611 590 615 q 564 579 590 597 q 521 561 537 561 q 472 573 505 561 q 426 587 443 587 q 367 561 408 587 q 365 563 365 562 q 408 604 365 581 q 446 613 426 613 "},"æ":{"x_min":18.0625,"x_max":466.703125,"ha":392,"o":"m 461 129 q 466 125 466 129 q 465 118 466 120 q 377 34 438 75 q 275 -5 315 -5 q 219 9 234 -5 q 195 50 209 29 q 190 97 190 77 q 191 131 190 118 q 54 -5 113 -5 q 18 33 18 -5 q 75 177 18 91 q 227 290 152 290 q 286 262 266 290 q 359 294 322 294 q 388 259 388 294 q 337 177 388 225 q 245 113 286 129 q 237 65 237 86 q 279 19 237 19 q 445 118 359 19 q 461 129 456 129 m 354 248 q 340 261 354 261 q 291 211 322 261 q 252 137 261 162 q 320 186 286 152 q 354 248 354 219 m 223 252 q 115 179 175 252 q 56 52 56 105 q 75 29 56 29 q 168 122 112 29 q 234 251 209 188 q 223 252 231 252 "},"®":{"x_min":56.953125,"x_max":807.015625,"ha":886,"o":"m 807 505 q 637 192 807 344 q 301 40 468 40 q 129 99 202 40 q 56 256 56 158 q 229 572 56 420 q 569 725 402 725 q 737 663 668 725 q 807 505 807 602 m 754 494 q 698 640 754 583 q 555 697 643 697 q 258 561 402 697 q 493 609 383 609 q 609 588 559 609 q 679 504 679 561 q 580 394 679 434 q 422 362 509 365 q 472 244 440 297 q 566 170 515 173 q 754 494 754 320 m 644 513 q 487 593 644 593 q 352 568 434 593 q 216 516 269 544 q 106 255 106 386 q 173 119 106 170 q 331 69 233 69 q 540 150 429 69 q 444 231 488 162 q 380 366 400 300 q 363 370 368 366 l 379 376 l 388 383 l 401 379 q 644 513 644 412 m 208 105 q 193 161 193 105 q 304 377 193 216 q 466 584 394 512 l 497 569 q 420 470 493 562 q 312 323 348 377 q 213 120 225 195 q 208 105 211 105 "},"É":{"x_min":4.171875,"x_max":1084.8125,"ha":960,"o":"m 700 565 q 836 513 836 565 q 827 488 836 502 q 707 437 794 437 q 590 457 650 437 q 500 500 530 477 q 270 384 370 462 q 119 208 169 306 q 93 105 93 155 q 157 -20 93 27 q 347 -69 222 -69 q 419 -65 381 -69 q 770 76 640 -41 q 880 280 880 173 q 798 365 880 365 q 572 259 700 365 q 518 193 540 233 q 495 113 495 152 q 534 65 495 75 q 548 51 548 59 q 520 40 548 37 q 454 127 454 41 q 541 288 454 213 q 794 391 661 391 q 920 329 894 391 q 932 270 932 300 q 788 27 932 141 q 355 -111 618 -111 q 98 -50 193 -111 q 4 106 4 9 q 40 220 4 163 q 476 522 168 423 q 430 634 430 575 q 459 734 430 694 q 630 862 516 812 q 902 922 766 922 q 1029 896 982 922 q 1077 817 1077 870 q 1038 727 1077 763 q 955 690 998 690 q 912 711 912 690 q 930 723 912 723 l 958 719 q 1009 749 986 719 q 1032 811 1032 779 q 977 880 1032 858 q 912 894 943 894 q 869 893 882 894 q 636 809 750 886 q 502 612 502 722 q 530 537 502 572 q 700 565 619 565 m 554 515 q 691 468 613 468 q 769 511 769 468 q 700 530 769 530 q 554 515 630 530 m 988 1047 q 907 1002 916 1002 q 897 1009 897 1002 q 902 1020 897 1016 l 1048 1133 q 1072 1145 1063 1145 q 1084 1129 1084 1145 q 1073 1101 1084 1112 q 988 1047 1061 1091 "},"~":{"x_min":66.671875,"x_max":373.640625,"ha":421,"o":"m 373 620 q 319 562 373 600 q 277 550 300 550 q 210 568 255 550 q 142 587 165 587 q 97 569 119 587 q 68 551 75 551 q 66 555 66 552 q 125 611 66 575 q 172 625 147 625 q 240 610 197 625 q 313 595 284 595 q 365 626 343 595 q 373 620 373 626 "},"³":{"x_min":26.390625,"x_max":622.359375,"ha":661,"o":"m 90 659 l 86 630 q 186 540 86 558 q 237 536 212 536 q 386 570 311 536 q 544 726 502 625 q 550 755 550 738 q 516 802 550 787 q 433 818 483 818 q 363 810 383 818 q 334 802 344 802 q 319 816 319 802 q 327 834 319 826 q 344 841 334 841 q 477 865 415 841 q 568 955 558 895 q 569 965 569 959 q 523 1001 569 1001 q 417 977 477 1001 q 341 943 356 954 q 320 932 325 932 q 315 949 315 932 q 331 970 315 966 q 372 998 350 976 q 401 1019 395 1019 q 405 1012 405 1016 q 401 1002 405 1008 q 394 997 400 1002 q 543 1034 484 1034 q 622 959 625 1034 q 472 841 618 887 q 598 752 598 827 q 594 730 598 743 q 447 569 569 632 q 212 516 337 516 q 78 543 130 516 q 26 616 26 569 q 44 675 26 641 q 125 736 62 708 q 202 757 177 757 q 226 751 226 757 q 206 743 226 743 q 145 718 187 743 q 90 659 101 688 "},"¡":{"x_min":-69.453125,"x_max":350.03125,"ha":410,"o":"m 350 270 q 297 230 350 230 q 257 244 276 230 q 238 275 238 258 q 256 306 238 293 q 295 319 275 319 q 332 304 315 319 q 350 270 350 290 m -12 -298 q -49 -292 -29 -298 q -69 -275 -69 -286 q -63 -265 -69 -270 q 105 -56 -2 -201 q 233 123 218 87 q 263 159 248 159 q 270 150 270 159 q 149 -115 270 66 q -12 -298 27 -298 "},"[":{"x_min":31.953125,"x_max":795.890625,"ha":813,"o":"m 227 5 l 331 12 q 372 -4 372 12 q 255 -23 372 -23 q 31 26 31 -23 q 211 536 31 191 q 527 973 391 880 q 679 997 563 997 q 795 968 795 997 q 794 950 795 962 q 775 948 788 948 l 675 954 q 591 940 613 954 q 513 861 569 926 q 261 468 401 727 q 120 83 120 209 q 227 5 120 5 "},"L":{"x_min":4.171875,"x_max":1193.15625,"ha":914,"o":"m 1193 822 q 1086 563 1193 712 q 864 376 1002 447 q 609 305 726 305 q 537 315 566 305 q 350 80 479 240 q 525 -50 398 11 q 744 -111 652 -111 q 880 -86 836 -111 q 941 5 941 -54 q 938 34 941 20 q 947 48 936 48 q 968 28 959 48 q 977 -6 977 8 q 926 -98 977 -55 q 748 -151 861 -151 q 515 -98 636 -151 q 316 44 394 -45 q 105 -66 205 -66 q 52 -55 75 -66 q 4 50 4 -27 q 68 241 4 127 q 170 362 133 355 q 227 305 195 362 l 315 136 q 469 348 388 233 q 355 497 355 400 q 420 627 355 577 q 497 654 456 654 q 559 611 538 654 q 560 600 563 602 q 555 600 556 598 q 495 627 527 627 q 493 627 494 627 q 422 584 452 627 q 393 505 393 541 q 393 497 393 501 q 493 373 393 425 q 546 452 509 397 q 604 537 583 506 q 1063 943 880 943 q 1193 822 1193 943 m 1069 919 q 897 802 1000 919 q 731 582 826 720 q 559 345 636 444 q 600 341 577 341 q 822 408 697 341 q 1019 576 947 475 q 1145 844 1145 752 q 1097 915 1145 900 q 1069 919 1084 919 m 280 90 q 211 207 247 136 q 163 293 175 279 q 147 306 151 306 q 141 306 143 306 q 87 218 116 302 q 58 52 58 133 q 108 -29 58 -29 q 195 8 144 -29 q 280 90 245 45 "}," ":{"x_min":0,"x_max":0,"ha":275},"∑":{"x_min":27.78125,"x_max":513.9375,"ha":550,"o":"m 513 0 l 27 0 l 322 297 l 72 600 l 513 600 l 488 569 l 180 569 l 388 313 l 108 41 l 477 41 l 513 0 "},"%":{"x_min":131.953125,"x_max":936.1875,"ha":974,"o":"m 895 979 q 909 982 901 982 q 927 972 918 982 q 936 954 936 963 q 923 929 936 944 q 493 388 736 713 q 206 -54 251 62 q 198 -102 198 -79 q 209 -130 198 -125 q 213 -145 219 -136 q 184 -159 204 -159 q 161 -113 161 -159 q 193 22 161 -68 q 459 432 226 112 q 841 923 691 752 q 672 861 772 890 q 506 829 573 832 q 508 816 508 823 q 415 654 508 768 q 227 519 305 519 l 205 519 q 148 556 169 519 q 131 615 131 583 q 253 849 131 698 q 450 1000 375 1000 q 520 925 520 1000 q 513 875 520 905 q 527 872 515 872 q 570 876 540 872 q 895 979 711 893 m 816 226 q 784 195 816 208 q 786 183 786 190 q 693 20 786 134 q 505 -113 583 -113 l 483 -113 q 426 -76 447 -113 q 409 -18 409 -50 q 531 215 409 65 q 727 366 652 366 q 798 291 798 366 q 791 241 798 272 q 804 236 791 240 q 816 226 816 233 m 418 888 q 284 777 370 888 q 197 613 197 666 q 230 561 197 561 q 381 669 290 561 q 473 825 473 777 q 418 888 451 837 m 695 255 q 561 144 648 255 q 475 -19 475 33 q 508 -72 475 -72 q 659 36 568 -72 q 751 191 751 144 q 695 255 729 204 "},"P":{"x_min":59.734375,"x_max":1661.25,"ha":1468,"o":"m 1661 620 q 1590 465 1661 550 q 1375 327 1519 380 q 1096 275 1232 275 q 882 309 961 275 q 654 0 707 52 q 295 -150 504 -150 q 118 -95 177 -150 q 59 47 59 -40 q 156 275 59 168 q 426 393 263 393 q 538 362 493 393 q 584 269 584 331 q 537 169 584 227 q 479 111 490 111 q 476 116 476 111 q 480 127 476 122 q 525 247 525 193 q 491 332 525 302 q 406 362 456 362 q 200 256 290 362 q 111 41 111 150 q 154 -70 111 -27 q 290 -113 198 -113 q 583 1 461 -113 q 726 195 654 68 l 847 413 q 1054 838 936 556 q 1029 838 1041 838 q 652 797 841 838 q 366 680 463 757 q 325 618 325 648 q 357 568 325 587 q 434 550 390 550 q 545 567 479 550 q 644 613 611 584 q 663 625 658 625 q 668 613 675 625 q 516 526 618 555 q 393 508 454 508 q 293 535 331 508 q 254 609 254 562 q 304 702 254 655 q 641 838 398 794 q 1037 869 813 869 q 1075 869 1055 869 q 1130 895 1105 895 q 1155 876 1155 895 q 1154 866 1155 872 q 1502 794 1369 851 q 1661 620 1661 727 m 1595 634 q 1454 777 1595 722 q 1144 836 1330 826 l 1100 697 q 897 333 1047 566 q 944 318 911 326 q 1030 308 1000 308 q 1273 352 1136 308 q 1503 479 1411 395 q 1595 634 1595 563 "},"∏":{"x_min":13.890625,"x_max":629.21875,"ha":650,"o":"m 380 266 q 333 86 333 145 q 366 27 333 27 q 384 29 370 29 q 397 22 397 29 q 387 12 397 16 q 364 4 377 8 q 347 0 351 1 q 291 68 291 0 q 294 102 291 77 q 383 425 326 304 q 255 452 366 430 q 185 191 234 327 q 86 -30 136 55 q 72 -36 76 -36 l 61 -33 q 151 187 127 104 q 205 452 175 270 l 200 452 q 77 413 138 452 q 18 377 22 377 q 13 386 13 377 q 36 413 18 405 q 241 511 137 511 q 358 489 266 511 q 477 468 450 468 q 625 527 537 468 q 629 524 629 527 q 627 519 629 520 q 561 452 627 481 q 441 422 494 422 l 380 266 "},"À":{"x_min":-1.390625,"x_max":1636.234375,"ha":1417,"o":"m 1314 397 l 1448 400 q 1498 393 1498 400 q 1295 361 1498 375 q 1166 16 1166 108 q 1207 -47 1166 -47 q 1245 -28 1222 -47 q 1273 -9 1268 -9 q 1277 -16 1277 -9 q 1235 -58 1270 -41 q 1175 -75 1200 -75 q 1137 -72 1151 -75 q 1104 8 1104 -59 q 1211 365 1104 148 l 1044 361 q 670 41 858 179 q 231 -162 390 -162 q 212 -161 222 -162 q -1 58 -1 -143 q 73 311 -1 177 q 347 614 173 488 q 658 740 520 740 q 795 638 795 740 q 754 487 795 570 q 669 381 712 404 q 660 380 665 380 q 655 383 655 380 l 701 458 q 748 587 748 531 q 724 677 748 643 q 647 711 700 711 q 388 590 538 711 q 159 293 237 469 q 80 18 80 116 q 231 -130 80 -130 q 623 55 376 -130 q 980 365 733 137 q 890 355 932 362 q 807 361 801 338 q 859 412 812 412 q 1013 401 951 401 q 1370 761 1133 511 q 1565 929 1530 929 q 1580 905 1580 929 q 1568 832 1580 882 q 1540 770 1555 782 q 1480 710 1508 748 q 1401 567 1452 672 q 1314 397 1350 462 m 1425 736 l 1069 402 l 1151 402 q 1223 401 1180 401 q 1425 736 1263 480 m 1630 1020 q 1636 1010 1636 1016 q 1627 1004 1636 1004 q 1545 1048 1619 1004 q 1459 1102 1472 1093 q 1447 1128 1447 1111 q 1461 1145 1447 1145 q 1630 1020 1477 1145 "},"_":{"x_min":11.109375,"x_max":1101.484375,"ha":1120,"o":"m 1091 -83 q 34 -101 618 -83 q 11 -68 11 -101 q 34 -34 11 -34 l 1062 -34 q 1101 -73 1097 -34 l 1091 -83 "},"Ŕ":{"x_min":-58.34375,"x_max":1266.765625,"ha":1045,"o":"m 794 375 q 665 386 725 375 q 747 109 684 325 q 808 -16 766 47 q 913 -98 865 -98 q 1011 19 972 -98 q 1025 47 1018 47 q 1036 31 1033 47 q 1040 9 1040 15 q 1001 -79 1040 -25 q 888 -155 950 -155 q 776 -94 827 -155 q 675 128 725 -33 q 626 334 626 290 q 627 345 626 341 q 388 54 461 125 q 59 -102 227 -102 q -58 -13 -58 -102 q -30 84 -58 30 q 37 177 -2 137 q 108 218 77 218 q 113 215 113 218 q 79 180 113 208 q 12 102 44 152 q -19 9 -19 51 q 79 -63 -19 -63 q 587 369 263 -63 q 618 402 605 393 l 595 411 q 566 404 577 404 q 537 427 537 404 q 580 469 537 459 q 590 470 586 470 q 648 445 615 470 q 773 584 770 581 q 910 688 875 688 q 945 658 945 688 q 939 632 945 644 q 925 619 933 619 q 916 627 916 616 q 925 644 916 633 q 912 663 926 663 q 697 427 868 663 q 766 425 738 425 q 1169 591 1088 425 q 1186 658 1186 627 q 1130 763 1186 719 q 841 836 1041 836 q 433 734 641 836 q 180 444 180 611 q 248 390 180 390 q 393 440 316 390 q 495 538 469 490 q 514 556 505 556 q 519 545 523 556 q 402 413 493 468 q 212 358 311 358 q 113 420 113 358 q 113 430 113 425 q 336 739 134 612 q 823 866 538 866 q 1200 775 1088 866 q 1266 644 1266 719 q 1251 575 1266 612 q 1075 424 1208 473 q 794 375 941 375 m 1032 962 q 950 918 959 918 q 940 925 940 918 q 945 936 940 932 l 1091 1048 q 1116 1061 1105 1061 q 1127 1044 1127 1061 q 1116 1016 1127 1027 q 1032 962 1104 1007 "},"ñ":{"x_min":-48.609375,"x_max":601.4375,"ha":560,"o":"m 493 331 q 347 81 347 159 q 366 37 347 37 q 464 92 398 37 q 579 205 530 147 q 595 216 590 216 q 601 209 601 216 q 568 157 601 201 q 472 55 536 113 q 369 -2 408 -2 q 286 91 286 -2 q 341 244 286 147 l 430 388 q 262 236 336 319 q 128 76 188 154 q 58 -1 68 -1 q 25 15 37 -1 q 13 47 13 33 q 98 252 13 87 q -13 136 83 229 q -39 119 -30 119 q -48 123 -48 119 q -14 164 -48 130 q 114 318 19 198 q 223 438 209 438 q 261 409 261 438 q 256 393 261 401 q 106 130 131 219 q 500 454 430 454 q 512 455 506 455 q 551 420 551 455 q 548 406 551 413 q 493 331 545 400 m 581 607 q 586 608 583 608 q 588 601 588 608 q 534 543 588 580 q 493 531 516 531 q 425 550 470 531 q 357 569 380 569 q 312 551 334 569 q 283 533 290 533 q 281 536 281 534 q 341 593 281 558 q 388 607 363 607 q 456 592 412 607 q 528 577 500 577 q 581 607 556 577 "},"+":{"x_min":26.390625,"x_max":551.4375,"ha":564,"o":"m 326 607 q 341 568 341 607 q 320 361 341 530 l 344 361 q 439 361 379 361 q 550 363 500 361 q 551 359 551 361 q 463 323 551 340 q 309 300 412 316 q 263 162 291 231 q 219 93 236 93 q 197 108 205 93 q 194 136 190 123 l 237 294 q 26 326 26 294 q 38 350 26 340 q 66 359 50 359 q 127 361 83 359 l 256 361 q 325 607 305 505 q 326 607 326 607 "},"‚":{"x_min":75,"x_max":120.84375,"ha":119,"o":"m 120 98 q 109 17 120 86 q 94 -58 98 -51 q 86 -63 93 -63 q 81 -52 81 -63 q 75 98 81 36 q 111 102 104 102 q 120 101 119 102 l 120 98 "},"½":{"x_min":-1.390625,"x_max":1016.75,"ha":1115,"o":"m 1016 448 q 938 305 1011 380 q 820 203 905 270 q 580 55 734 136 q 711 20 619 51 q 845 -9 802 -9 q 921 4 888 -9 q 954 47 954 19 q 902 98 954 80 q 897 105 897 102 q 911 112 897 116 q 980 45 980 91 q 938 -16 980 6 q 849 -40 897 -40 q 730 -16 801 -40 l 615 25 q 552 36 575 36 q 437 -4 458 -4 q 416 12 416 -4 q 437 44 416 29 q 527 66 470 66 q 559 65 543 66 q 816 231 761 188 q 902 313 870 275 q 948 423 943 362 q 893 469 948 469 q 759 433 837 469 q 634 356 680 397 q 623 354 629 354 q 618 363 618 354 q 623 373 618 372 q 777 466 683 425 q 944 508 872 508 q 1016 448 1016 508 m 251 580 q 259 572 259 580 q 247 559 259 559 q 140 544 187 559 q 15 497 93 529 q 3 501 8 494 q -1 519 -1 508 q 13 536 -1 530 q 90 563 27 541 l 300 945 q 183 890 256 918 q 170 898 170 886 q 177 909 170 905 q 336 1009 233 930 l 340 1018 q 376 1033 350 1033 q 402 1020 402 1033 q 131 570 402 1018 q 251 580 184 580 m 709 813 q 723 808 718 813 q 729 797 729 802 q 722 782 729 791 q 463 458 608 651 q 286 165 286 220 q 293 146 286 150 q 295 136 300 143 q 277 129 290 129 q 263 156 263 129 q 286 245 263 184 q 500 562 309 305 q 709 813 690 813 "},"Æ":{"x_min":-1.390625,"x_max":2062.671875,"ha":1945,"o":"m 1570 841 q 1887 922 1726 922 q 2014 896 1966 922 q 2062 817 2062 870 q 2023 727 2062 763 q 1940 690 1983 690 q 1897 711 1897 690 q 1915 723 1897 723 l 1943 719 q 1993 749 1970 719 q 2016 811 2016 779 q 1962 880 2016 858 q 1897 894 1927 894 q 1854 893 1866 894 q 1620 809 1736 886 q 1487 612 1487 722 q 1515 537 1487 572 q 1684 565 1604 565 q 1820 513 1820 565 q 1812 488 1820 502 q 1691 437 1779 437 q 1575 457 1634 437 q 1484 500 1516 477 q 1332 433 1447 488 l 1314 397 q 1227 104 1227 229 q 1248 12 1227 50 q 1347 -55 1282 -45 q 1407 -59 1372 -59 q 1504 -47 1441 -59 q 1639 0 1568 -34 q 1755 76 1711 36 q 1865 280 1865 173 q 1783 365 1865 365 q 1557 259 1684 365 q 1502 193 1525 233 q 1480 113 1480 152 q 1519 65 1480 75 q 1533 51 1533 59 q 1505 40 1533 37 q 1439 127 1439 41 q 1526 288 1439 213 q 1779 391 1645 391 q 1877 361 1839 391 q 1916 270 1916 330 q 1773 27 1916 136 q 1648 -40 1723 -9 q 1415 -86 1536 -86 q 1332 -79 1372 -86 q 1208 -9 1258 -66 q 1152 158 1152 52 q 1170 269 1152 206 q 1211 365 1190 334 l 1044 361 q 670 41 858 179 q 231 -162 390 -162 q 212 -161 222 -162 q -1 58 -1 -143 q 73 311 -1 177 q 347 614 173 488 q 658 740 520 740 q 795 638 795 740 q 754 487 795 570 q 669 381 712 404 q 660 380 665 380 q 655 383 655 380 l 701 458 q 748 587 748 531 q 724 677 748 643 q 647 711 700 711 q 388 590 538 711 q 159 293 237 469 q 80 18 80 116 q 231 -130 80 -130 q 623 55 376 -130 q 980 365 733 137 q 890 355 932 362 q 807 361 801 338 q 859 412 812 412 q 1013 401 951 401 q 1370 761 1133 511 q 1565 929 1530 929 q 1580 902 1580 929 q 1570 841 1580 876 m 1425 736 l 1069 402 l 1151 402 q 1223 401 1180 401 q 1425 736 1263 480 m 1539 515 q 1675 468 1597 468 q 1754 511 1754 468 q 1684 530 1754 530 q 1539 515 1615 530 m 1419 602 q 1359 484 1364 493 q 1461 522 1398 501 q 1419 602 1427 558 "},"Ë":{"x_min":4.171875,"x_max":1138.984375,"ha":960,"o":"m 700 565 q 836 513 836 565 q 827 488 836 502 q 707 437 794 437 q 590 457 650 437 q 500 500 530 477 q 270 384 370 462 q 119 208 169 306 q 93 105 93 155 q 157 -20 93 27 q 347 -69 222 -69 q 419 -65 381 -69 q 770 76 640 -41 q 880 280 880 173 q 798 365 880 365 q 572 259 700 365 q 518 193 540 233 q 495 113 495 152 q 534 65 495 75 q 548 51 548 59 q 520 40 548 37 q 454 127 454 41 q 541 288 454 213 q 794 391 661 391 q 920 329 894 391 q 932 270 932 300 q 788 27 932 141 q 355 -111 618 -111 q 98 -50 193 -111 q 4 106 4 9 q 40 220 4 163 q 476 522 168 423 q 430 634 430 575 q 459 734 430 694 q 630 862 516 812 q 902 922 766 922 q 1029 896 982 922 q 1077 817 1077 870 q 1038 727 1077 763 q 955 690 998 690 q 912 711 912 690 q 930 723 912 723 l 958 719 q 1009 749 986 719 q 1032 811 1032 779 q 977 880 1032 858 q 912 894 943 894 q 869 893 882 894 q 636 809 750 886 q 502 612 502 722 q 530 537 502 572 q 700 565 619 565 m 554 515 q 691 468 613 468 q 769 511 769 468 q 700 530 769 530 q 554 515 630 530 m 1137 1101 q 1118 1076 1136 1101 l 1095 1020 q 1058 983 1079 983 q 1038 997 1048 983 q 1029 1028 1029 1012 q 1069 1073 1029 1044 q 1133 1102 1111 1102 l 1137 1101 m 965 1102 l 969 1101 q 950 1076 968 1101 l 927 1020 q 890 983 911 983 q 870 997 880 983 q 861 1028 861 1012 q 901 1073 861 1044 q 965 1102 943 1102 m 1138 1101 l 1138 1100 l 1137 1101 l 1138 1101 m 970 1100 q 969 1101 970 1101 l 970 1101 l 970 1100 "},"'":{"x_min":101.390625,"x_max":237.515625,"ha":181,"o":"m 109 373 q 101 379 101 373 q 138 432 101 384 q 176 501 176 480 q 157 538 176 522 q 138 563 138 555 q 179 605 138 605 q 218 592 200 605 q 237 559 237 579 q 184 436 237 500 q 109 373 131 373 "},"Š":{"x_min":-23.609375,"x_max":1266.765625,"ha":1039,"o":"m 1098 594 q 1010 573 1047 573 q 973 588 973 573 q 1014 600 973 598 q 1073 609 1055 601 q 1126 691 1126 637 q 1111 750 1126 719 q 895 829 1066 829 q 698 799 797 829 q 533 707 600 769 q 466 593 466 645 q 626 475 466 512 l 790 444 q 937 394 888 426 q 1001 283 1001 355 q 991 220 1001 254 q 762 -8 947 70 q 398 -76 608 -76 q 294 -70 338 -76 q 411 -113 338 -95 q 416 -119 416 -115 q 387 -131 416 -131 q 245 -63 330 -131 q 73 0 130 -45 q 6 86 37 29 q -23 188 -23 143 q -5 265 -23 234 q 100 338 36 338 q 156 256 148 338 q 183 76 176 98 q 254 -38 204 8 q 380 -51 312 -51 q 675 8 530 -51 q 883 177 819 68 q 909 254 909 220 q 794 355 909 319 l 550 411 q 429 470 475 429 q 384 566 384 512 q 488 733 384 650 q 682 832 568 797 q 907 868 797 868 q 1090 836 1018 868 q 1183 710 1183 793 q 1098 594 1183 627 m 204 -25 q 101 218 123 63 q 77 305 88 305 q 56 299 66 305 q 37 272 47 293 q 27 218 27 251 q 102 34 27 111 q 204 -25 140 -4 m 1209 1118 q 1258 1140 1250 1140 q 1266 1126 1266 1140 q 1183 1041 1266 1112 q 1079 969 1095 970 l 1070 973 q 897 1122 1022 1027 q 886 1138 886 1133 q 895 1145 886 1144 q 974 1112 925 1143 q 1039 1068 1023 1082 q 1068 1042 1055 1055 q 1086 1026 1082 1029 q 1209 1118 1169 1095 "},"ª":{"x_min":-12.109375,"x_max":662.9375,"ha":333,"o":"m 461 748 l 480 752 q 510 740 496 752 q 524 720 524 727 q 437 586 524 713 q 351 409 351 459 q 353 401 351 405 q 383 369 360 369 q 647 608 455 369 q 657 613 651 613 q 662 603 662 613 q 650 576 662 593 q 379 338 472 338 q 355 343 367 338 q 294 434 294 366 q 300 481 294 458 l 214 398 q 95 326 132 326 q 25 350 58 326 q -12 423 -12 377 q 129 666 -12 525 q 389 807 271 807 q 450 775 435 807 q 457 756 454 763 q 461 748 460 748 m 46 406 q 80 356 46 356 q 300 533 161 356 l 447 736 q 411 755 436 755 q 186 624 326 755 q 46 406 46 493 "},"ĳ":{"x_min":-54.171875,"x_max":655.609375,"ha":593,"o":"m 570 377 q 461 180 570 369 q 295 -104 354 -23 q 58 -284 169 -284 q -18 -257 16 -284 q -54 -203 -54 -230 q -41 -176 -54 -176 q -13 -211 -40 -176 q 50 -247 13 -247 q 302 4 161 -247 q 422 258 390 161 q 232 75 340 166 q 61 -16 125 -16 q -20 76 -20 -16 q 61 284 -20 151 q 193 418 143 416 q 224 406 206 418 q 241 384 241 395 q 225 363 234 375 q 204 337 215 351 q 173 297 193 323 q 136 248 154 272 q 31 63 31 113 q 69 13 31 13 q 231 105 129 13 q 379 262 334 197 q 431 333 425 327 l 477 381 q 538 408 505 408 q 570 377 570 408 m 597 569 q 636 555 618 569 q 655 524 655 541 q 638 493 655 506 q 600 480 620 480 q 561 495 579 480 q 544 529 544 509 q 597 569 544 569 m 301 566 q 341 553 322 566 q 359 522 359 540 q 342 491 359 504 q 304 477 325 477 q 265 493 283 477 q 248 527 248 508 q 301 566 248 566 "},"Œ":{"x_min":33.34375,"x_max":1957.09375,"ha":1839,"o":"m 1579 565 q 1715 513 1715 565 q 1707 488 1715 502 q 1586 437 1673 437 q 1470 457 1529 437 q 1379 500 1411 477 q 1083 326 1200 447 q 1000 211 1051 266 q 972 105 972 155 q 1036 -20 972 27 q 1226 -69 1101 -69 q 1298 -65 1261 -69 q 1650 76 1519 -41 q 1759 280 1759 173 q 1677 365 1759 365 q 1451 259 1579 365 q 1397 193 1419 233 q 1375 113 1375 152 q 1414 65 1375 75 q 1427 51 1427 59 q 1400 40 1427 37 q 1333 127 1333 41 q 1420 288 1333 213 q 1673 391 1540 391 q 1800 329 1772 391 q 1811 270 1811 300 q 1668 27 1811 141 q 1234 -111 1497 -111 q 977 -50 1072 -111 q 883 106 883 9 q 337 -81 633 -81 q 279 -80 300 -81 q 100 -7 168 -75 q 33 166 33 59 q 90 400 33 273 q 372 711 162 559 q 872 883 613 883 q 1083 829 1011 883 q 1155 694 1155 775 q 1116 570 1155 644 q 1127 496 1127 533 q 1118 413 1127 459 q 1355 522 1218 477 q 1309 634 1309 575 q 1339 734 1309 694 q 1509 862 1395 812 q 1782 922 1645 922 q 1909 896 1861 922 q 1957 817 1957 870 q 1917 727 1957 763 q 1834 690 1877 690 q 1791 711 1791 690 q 1809 723 1791 723 l 1837 719 q 1888 749 1865 719 q 1911 811 1911 779 q 1857 880 1911 858 q 1791 894 1822 894 q 1748 893 1761 894 q 1515 809 1630 886 q 1382 612 1382 722 q 1409 537 1382 572 q 1579 565 1498 565 m 1098 612 q 1112 686 1112 645 q 1082 770 1112 727 q 870 854 1022 854 q 475 724 661 854 q 184 397 288 594 q 108 140 108 254 q 293 -52 108 -43 q 331 -54 312 -54 q 852 166 605 -54 q 1044 468 1030 325 q 794 279 972 388 l 783 276 q 782 277 782 276 q 819 315 782 283 l 897 379 q 1043 522 997 466 q 973 652 1033 600 q 834 727 912 704 q 714 740 795 737 q 633 745 633 743 q 636 751 633 748 q 759 772 700 772 q 894 754 818 772 q 1098 612 1040 719 m 1433 515 q 1570 468 1491 468 q 1648 511 1648 468 q 1579 530 1648 530 q 1433 515 1509 530 "},"˛":{"x_min":52.78125,"x_max":279.1875,"ha":325,"o":"m 279 -152 q 218 -190 279 -169 q 129 -211 158 -211 q 52 -152 52 -211 q 81 -52 52 -115 q 140 11 109 9 l 144 6 q 97 -115 97 -58 q 159 -172 97 -172 q 222 -155 183 -172 l 263 -140 q 279 -152 279 -140 "},"ð":{"x_min":13.890625,"x_max":611.15625,"ha":526,"o":"m 172 447 q 272 533 220 506 q 365 559 323 559 q 437 536 406 559 q 438 555 438 544 q 379 783 438 625 q 256 766 283 766 q 217 771 229 766 q 209 790 205 776 q 241 814 209 805 q 363 830 273 823 q 311 932 347 870 q 278 1007 276 994 q 291 1027 280 1019 q 310 1034 302 1034 q 325 1032 318 1034 q 434 837 368 1018 q 573 847 545 847 q 611 841 611 847 q 447 793 607 820 q 490 522 490 658 q 474 361 490 450 q 396 179 458 272 q 248 38 334 86 q 136 5 190 5 q 13 122 13 5 q 33 229 13 165 q 172 447 70 326 m 86 101 q 144 38 86 38 q 233 70 179 38 q 347 183 287 101 q 427 395 416 281 q 431 427 431 413 q 398 480 431 469 l 386 483 q 363 490 380 490 q 273 434 329 490 q 170 305 218 377 q 86 101 86 176 "},"T":{"x_min":25,"x_max":1495.953125,"ha":918,"o":"m 38 93 q 127 390 38 243 q 25 583 25 455 q 161 857 25 737 q 555 991 313 991 q 794 959 666 991 q 1043 852 823 952 q 1358 751 1262 751 q 1454 787 1422 751 q 1470 826 1470 805 q 1452 863 1470 847 q 1443 882 1443 877 q 1450 886 1443 886 q 1477 861 1458 886 q 1495 804 1495 837 q 1452 742 1495 772 q 1341 712 1408 712 q 1018 813 1237 712 q 742 925 798 913 q 613 936 686 936 q 161 750 326 936 q 115 666 141 729 q 88 544 88 602 q 145 419 88 463 q 316 587 218 525 q 516 650 415 650 q 641 552 641 650 q 504 299 641 436 q 251 162 368 162 q 176 226 176 162 q 188 265 176 248 q 216 277 200 281 l 213 245 q 277 225 213 225 q 477 322 372 225 q 604 512 581 419 q 609 550 609 533 q 529 612 609 612 q 364 551 450 612 q 204 390 279 490 q 247 379 209 387 l 330 376 q 391 362 391 373 q 333 343 391 343 q 325 343 329 343 q 186 363 240 343 q 79 62 79 200 q 216 -115 79 -115 q 540 101 372 -115 l 812 506 q 1077 734 965 729 l 1130 722 q 1155 680 1155 708 q 1141 652 1155 652 l 1097 659 q 851 452 1001 659 l 575 66 q 234 -140 397 -140 q 81 -80 123 -140 q 38 93 38 -20 "},"š":{"x_min":-29.171875,"x_max":663.9375,"ha":499,"o":"m 255 20 q 156 -2 215 -2 q 65 36 97 -2 q 12 159 34 75 q -22 134 -12 134 q -29 144 -29 134 q -22 161 -29 154 q 133 325 23 218 l 308 488 q 397 559 383 559 q 441 526 441 559 q 428 493 441 509 q 409 468 415 477 q 395 451 402 459 q 345 273 370 408 q 305 86 319 138 q 543 236 420 87 q 563 250 556 250 q 570 240 570 250 q 558 216 570 231 q 408 84 477 122 q 300 50 366 63 l 255 20 m 68 175 q 99 97 68 127 q 169 68 130 68 q 229 83 208 68 q 284 211 256 98 q 316 409 311 323 l 322 456 q 159 309 245 400 q 69 190 72 219 q 68 175 68 181 m 607 783 q 655 805 647 805 q 663 791 663 805 q 580 707 663 777 q 476 634 493 636 l 468 638 q 294 787 419 693 q 283 804 283 798 q 293 811 283 809 q 371 777 322 808 q 436 734 420 747 q 466 707 452 720 q 483 691 479 694 q 607 783 566 761 "},"Þ":{"x_min":-73.21875,"x_max":704.609375,"ha":229,"o":"m 554 851 l 503 841 q 496 850 494 841 q 553 870 503 870 q 625 855 604 870 q 646 825 646 840 q 642 795 646 809 q 603 725 639 782 q 517 586 568 669 q 450 480 467 504 q 505 505 464 493 q 581 519 558 519 q 667 491 631 519 q 704 408 704 462 q 671 290 704 354 q 574 176 639 227 q 353 100 475 100 q 264 107 290 100 q 212 141 239 115 q -28 -273 -28 -212 q -10 -290 -28 -290 l 36 -275 q 37 -277 40 -275 q 14 -296 35 -287 q -17 -305 -6 -305 q -73 -255 -73 -305 q 28 -30 -73 -186 l 508 701 q 571 822 564 793 q 554 851 579 851 m 633 427 q 571 480 633 480 q 457 454 508 480 q 396 402 437 444 q 229 165 251 198 q 335 138 258 138 q 518 198 442 138 q 633 427 633 290 "},"j":{"x_min":-368.078125,"x_max":341.6875,"ha":279,"o":"m 283 569 q 322 555 304 569 q 341 524 341 541 q 324 493 341 506 q 286 480 306 480 q 247 495 265 480 q 230 529 230 509 q 283 569 230 569 m 256 377 q 147 180 256 369 q -18 -104 40 -23 q -255 -284 -144 -284 q -332 -257 -297 -284 q -368 -203 -368 -230 q -355 -176 -368 -176 q -327 -211 -354 -176 q -263 -247 -300 -247 q -11 4 -152 -247 q 108 258 76 161 q 50 201 91 238 q 0 163 9 163 q -8 168 -8 163 q 13 200 -8 180 q 73 273 36 219 q 118 333 111 327 l 163 381 q 224 408 191 408 q 256 377 256 408 "},"1":{"x_min":-1.390625,"x_max":670.890625,"ha":485,"o":"m 418 109 q 433 94 433 109 q 412 75 433 75 q 213 41 319 75 q 92 -4 162 23 q 17 -31 22 -31 q 5 -21 12 -31 q -1 7 -1 -11 q 11 30 -1 26 q 151 81 48 47 q 500 716 325 400 q 305 625 423 669 q 284 638 284 616 q 297 657 284 650 q 559 823 391 691 l 568 837 q 626 863 581 863 q 670 843 670 863 q 666 832 670 838 l 219 93 q 418 109 313 109 "},"›":{"x_min":118.0625,"x_max":318.078125,"ha":417,"o":"m 255 400 q 119 588 119 573 q 131 604 119 604 q 145 598 134 604 q 313 445 184 544 q 318 434 318 444 q 248 324 318 423 q 159 202 179 225 q 129 179 140 179 q 118 187 118 179 q 255 400 118 208 "},"ı":{"x_min":-20.828125,"x_max":359.75,"ha":314,"o":"m 61 -16 q -20 76 -20 -16 q 61 284 -20 151 q 193 418 143 416 q 224 406 206 418 q 241 384 241 395 q 225 363 234 375 q 204 337 215 351 q 173 297 193 323 q 136 248 154 272 q 31 63 31 113 q 69 13 31 13 q 207 87 119 13 q 336 205 295 161 q 354 219 345 219 q 359 211 359 219 q 233 76 359 169 q 61 -16 106 -16 "},"ä":{"x_min":-12.109375,"x_max":662.9375,"ha":572,"o":"m 461 415 l 480 419 q 510 406 496 419 q 524 386 524 393 q 437 253 524 380 q 351 76 351 126 q 353 68 351 72 q 383 36 360 36 q 647 275 455 36 q 657 280 651 280 q 662 270 662 280 q 650 243 662 259 q 379 5 472 5 q 355 9 367 5 q 294 101 294 33 q 300 148 294 125 l 212 65 q 95 -6 132 -6 q 25 16 58 -6 q -12 90 -12 44 q 129 332 -12 191 q 389 473 271 473 q 450 441 435 473 q 457 422 454 430 q 461 415 460 415 m 46 73 q 80 23 46 23 q 299 200 160 23 q 447 402 435 384 q 411 422 436 422 q 186 290 326 422 q 46 73 46 159 m 528 552 q 511 564 519 552 q 503 584 503 576 q 537 626 503 602 q 581 650 572 650 q 592 648 590 650 l 592 650 q 593 647 593 648 q 576 627 585 636 l 557 583 q 528 552 544 552 m 390 552 q 374 564 382 552 q 367 584 367 576 q 401 626 367 602 q 445 650 436 650 q 455 648 454 650 l 455 647 l 440 627 l 421 583 q 390 552 408 552 "},"<":{"x_min":118.0625,"x_max":318.078125,"ha":442,"o":"m 118 355 q 190 473 118 375 l 281 598 q 305 613 293 613 q 318 605 318 613 q 180 393 318 584 q 315 204 315 220 q 301 188 315 188 l 290 194 q 122 347 243 261 q 118 355 118 350 "},"£":{"x_min":52.78125,"x_max":1215.375,"ha":1224,"o":"m 1136 163 q 1215 56 1215 105 q 1191 -26 1215 6 q 1127 -75 1168 -59 q 737 -69 969 -137 q 494 29 613 -33 q 297 -38 387 -38 q 129 20 206 -38 q 52 162 52 79 q 112 213 52 213 q 494 63 197 213 q 677 438 588 179 l 454 438 q 437 450 437 438 q 470 481 437 481 l 693 481 q 901 923 802 809 q 1077 1015 983 1015 q 1163 981 1130 1015 q 1197 891 1197 947 q 1045 683 1197 755 q 1028 677 1036 677 q 1020 688 1020 677 q 1035 710 1020 700 q 1061 731 1050 720 q 1080 747 1073 741 q 1154 907 1154 815 q 1134 955 1154 938 q 1086 972 1115 972 q 1025 952 1057 972 q 963 893 993 932 q 883 768 926 843 q 752 481 840 694 l 991 481 q 1002 472 1002 481 q 962 438 1002 438 l 736 438 q 647 233 673 287 q 527 50 583 101 q 716 -22 601 4 q 917 -52 829 -52 q 1073 -27 1005 -52 q 1169 75 1169 2 q 1143 128 1169 102 q 1118 161 1118 154 q 1124 169 1118 169 q 1136 163 1130 169 m 450 38 q 306 109 413 66 q 171 151 200 151 q 143 140 143 151 q 193 37 143 83 q 316 -4 244 -4 q 450 38 388 -4 "},"¹":{"x_min":-1.390625,"x_max":402.8125,"ha":485,"o":"m 251 580 q 259 572 259 580 q 247 559 259 559 q 140 544 187 559 q 53 512 93 529 q 10 495 13 495 q 2 502 6 495 q -1 519 -1 508 q 13 536 -1 530 q 90 563 27 541 l 300 945 q 183 890 256 918 q 170 898 170 886 q 177 909 170 905 q 336 1009 233 930 l 340 1018 q 376 1033 350 1033 q 402 1020 402 1033 q 131 570 402 1018 q 251 580 184 580 "},"t":{"x_min":-9.71875,"x_max":566.71875,"ha":413,"o":"m 362 447 l 562 450 q 566 445 566 447 q 393 411 566 433 q 206 384 220 388 q 109 243 180 361 q 38 72 38 126 q 109 20 38 20 q 197 41 143 20 q 280 80 251 62 q 447 223 358 129 q 473 243 466 243 q 477 234 477 243 q 456 201 477 226 q 294 58 384 112 q 87 -8 186 -8 q 17 10 44 -8 q -9 86 -9 29 q 40 242 -9 143 q 116 390 90 341 q 83 386 97 386 q 43 418 43 386 q 76 451 43 441 q 88 452 80 451 l 169 452 q 226 526 194 484 q 279 576 265 576 q 313 565 293 576 q 334 538 334 554 q 268 448 334 523 q 362 447 304 447 "},"¬":{"x_min":4.171875,"x_max":547.265625,"ha":360,"o":"m 52 30 q 104 -31 52 -22 q 108 -34 108 -33 q 77 -44 108 -44 q 15 9 33 -44 q 4 81 4 45 q 225 480 4 166 q 490 794 445 794 q 547 770 547 794 q 541 761 547 766 q 221 356 390 595 q 52 30 52 118 "},"ù":{"x_min":-19.453125,"x_max":652.828125,"ha":590,"o":"m 388 -8 q 359 -9 381 -9 q 313 8 336 -9 q 290 54 290 26 q 300 118 290 83 q 315 170 311 152 l 193 48 q 64 -15 120 -15 q 2 55 8 -15 q 2 63 2 59 q 70 218 2 120 l 2 156 q -12 148 -5 148 q -19 156 -19 148 q -5 177 -19 163 l 177 393 q 252 434 215 434 q 288 409 288 434 q 280 391 288 400 q 140 220 225 340 q 56 44 56 101 q 73 19 56 19 q 168 72 100 19 l 243 134 q 384 304 265 151 q 526 438 493 438 q 576 400 576 438 q 518 319 576 386 q 397 163 438 223 q 355 65 355 102 q 376 27 355 27 q 398 33 386 27 q 627 225 498 77 q 644 234 636 234 q 652 227 652 234 q 512 76 652 200 q 388 -8 422 -1 m 447 527 q 451 518 451 523 q 445 512 451 512 q 379 548 438 512 q 308 593 320 584 q 295 617 295 602 q 306 632 295 632 q 447 527 323 632 "},"W":{"x_min":20.828125,"x_max":1745.96875,"ha":1577,"o":"m 879 37 q 972 -55 879 -55 q 1273 125 1097 -55 q 1517 453 1433 286 q 1601 708 1601 620 q 1598 736 1601 722 q 1536 768 1568 736 l 1536 766 q 1515 800 1515 783 q 1529 829 1515 818 q 1565 840 1543 840 q 1596 822 1587 840 q 1619 791 1605 805 q 1632 772 1633 777 q 1657 759 1640 759 q 1697 776 1675 759 q 1732 793 1719 793 q 1745 784 1745 793 q 1719 755 1745 769 q 1686 743 1705 744 l 1641 743 q 1658 661 1658 686 q 1552 372 1658 550 q 1279 56 1445 194 q 974 -84 1111 -84 q 837 48 837 -84 q 926 350 837 154 l 1026 568 l 890 462 q 760 346 826 409 q 530 86 694 283 l 369 -111 q 300 -155 330 -155 q 276 -125 276 -155 q 301 -45 276 -94 l 569 340 q 812 793 812 697 q 715 845 812 845 q 386 701 597 845 q 186 506 272 623 q 100 311 100 388 q 202 234 100 234 q 400 323 298 234 q 441 354 436 354 q 445 344 447 354 q 332 243 430 291 q 159 195 234 195 q 133 197 140 195 l 131 197 q 20 306 20 220 q 116 513 20 393 q 552 832 286 727 q 779 884 690 884 q 888 812 888 884 q 511 161 888 662 q 383 -6 384 -6 q 528 150 387 -6 q 795 418 669 306 q 963 576 844 461 q 1098 682 1026 634 q 1150 693 1116 693 q 1197 673 1184 693 q 974 318 1069 515 q 879 37 879 122 m 1686 743 l 1687 743 l 1686 743 "},"ï":{"x_min":-20.828125,"x_max":373.640625,"ha":314,"o":"m 61 -16 q -20 76 -20 -16 q 61 284 -20 151 q 193 418 143 416 q 224 406 206 418 q 241 384 241 395 q 225 363 234 375 q 204 337 215 351 q 173 297 193 323 q 136 248 154 272 q 31 63 31 113 q 69 13 31 13 q 207 87 119 13 q 336 205 295 161 q 354 219 345 219 q 359 211 359 219 q 233 76 359 169 q 61 -16 106 -16 m 308 495 q 292 507 300 495 q 284 533 284 519 q 318 569 284 547 q 369 594 351 594 q 373 593 372 594 l 373 591 l 358 572 l 338 526 q 308 495 326 495 m 172 495 q 156 507 163 495 q 148 533 148 519 q 181 569 148 547 q 233 594 215 594 q 237 593 236 594 l 237 591 q 220 572 229 580 q 202 526 213 556 q 172 495 188 495 "},">":{"x_min":118.0625,"x_max":318.078125,"ha":442,"o":"m 318 437 q 152 194 318 409 q 129 179 141 179 q 118 187 118 179 q 255 400 118 208 q 119 588 119 573 q 134 604 119 604 l 145 598 q 313 445 195 531 q 318 437 318 444 "},"v":{"x_min":-19.0625,"x_max":476.8125,"ha":418,"o":"m 376 545 q 447 518 418 545 q 476 440 476 490 q 294 165 476 330 q 46 -4 140 26 q 5 12 30 -4 q -19 43 -19 29 q 47 250 -19 73 q 139 447 114 426 q 157 452 144 452 q 183 439 169 452 q 199 408 197 426 q 130 247 199 406 q 65 56 61 87 q 278 202 125 75 q 432 431 432 330 q 371 520 432 493 q 361 533 361 525 q 376 545 361 545 "},"û":{"x_min":-19.453125,"x_max":652.828125,"ha":590,"o":"m 388 -8 q 359 -9 381 -9 q 313 8 336 -9 q 290 54 290 26 q 300 118 290 83 q 315 170 311 152 l 193 48 q 64 -15 120 -15 q 2 55 8 -15 q 2 63 2 59 q 70 218 2 120 l 2 156 q -12 148 -5 148 q -19 156 -19 148 q -5 177 -19 163 l 177 393 q 252 434 215 434 q 288 409 288 434 q 280 391 288 400 q 140 220 225 340 q 56 44 56 101 q 73 19 56 19 q 168 72 100 19 l 243 134 q 384 304 265 151 q 526 438 493 438 q 576 400 576 438 q 518 319 576 386 q 397 163 438 223 q 355 65 355 102 q 376 27 355 27 q 398 33 386 27 q 627 225 498 77 q 644 234 636 234 q 652 227 652 234 q 512 76 652 200 q 388 -8 422 -1 m 351 527 q 345 536 345 527 q 393 583 345 544 q 452 625 440 622 l 458 623 q 556 538 490 587 l 561 530 l 556 525 q 502 549 541 525 q 441 594 462 573 q 351 527 361 527 "},"Ò":{"x_min":33.34375,"x_max":1155.640625,"ha":1089,"o":"m 1127 494 q 950 162 1127 320 q 337 -81 676 -81 q 279 -80 300 -81 q 100 -7 168 -75 q 33 166 33 59 q 90 400 33 273 q 372 711 162 559 q 872 883 613 883 q 1083 829 1011 883 q 1155 694 1155 775 q 1116 570 1155 644 q 1127 494 1127 533 m 1098 612 q 1112 686 1112 645 q 1082 770 1112 727 q 870 854 1022 854 q 475 724 661 854 q 184 397 288 594 q 108 140 108 254 q 293 -52 108 -43 q 331 -54 312 -54 q 852 166 605 -54 q 1044 468 1030 325 q 794 279 972 388 l 783 276 q 782 277 782 276 q 819 315 782 283 l 897 379 q 1043 522 997 466 q 973 652 1033 600 q 834 727 912 704 q 714 740 795 737 q 633 745 633 743 q 636 751 633 748 q 759 772 700 772 q 894 754 818 772 q 1098 612 1040 719 m 1097 993 q 1102 982 1102 988 q 1094 976 1102 976 q 1012 1020 1086 976 q 926 1074 938 1065 q 913 1100 913 1083 q 927 1118 913 1118 q 1097 993 944 1118 "},"&":{"x_min":18.0625,"x_max":1034.8125,"ha":1046,"o":"m 541 618 q 619 586 619 618 q 613 572 619 577 q 535 541 595 541 q 426 577 475 541 q 251 483 351 555 q 95 256 95 368 q 263 119 95 133 q 463 427 297 325 q 580 477 518 462 q 666 496 643 491 q 743 510 688 501 q 807 520 798 519 q 972 570 936 543 q 1009 623 1009 598 q 1007 638 1009 630 q 1011 648 1005 647 q 1023 644 1016 650 q 1034 606 1034 629 q 1007 552 1034 584 q 891 494 965 511 q 817 478 863 487 q 750 463 770 469 q 776 388 776 438 q 654 187 776 286 q 293 79 519 79 q 291 44 291 68 q 356 -109 291 -52 q 519 -165 420 -165 q 579 -142 554 -165 q 604 -90 604 -119 q 598 -68 604 -80 q 609 -55 593 -55 q 625 -92 625 -55 q 593 -157 625 -129 q 519 -186 561 -186 q 338 -126 411 -186 q 256 44 256 -61 q 258 80 256 68 q 75 141 137 91 q 18 248 18 190 q 223 505 18 383 q 411 593 319 563 q 372 705 372 636 q 388 765 372 741 q 527 869 434 830 q 750 918 637 918 q 895 825 898 918 q 861 754 893 784 q 793 725 830 725 q 755 744 755 725 q 773 758 755 758 l 797 754 q 835 777 816 754 q 854 825 854 801 q 811 879 854 862 q 758 888 783 888 q 563 840 641 888 q 450 732 486 791 q 429 659 429 697 q 445 602 429 622 q 541 618 500 618 m 730 398 q 677 459 730 459 q 609 447 661 459 q 297 118 341 347 q 358 122 327 118 q 643 236 537 141 q 730 398 730 315 m 577 581 q 541 594 577 594 q 462 586 504 594 q 537 563 497 563 q 577 581 577 563 "},"˝":{"x_min":195.84375,"x_max":425.03125,"ha":614,"o":"m 233 786 q 243 798 236 798 q 259 782 250 798 q 265 754 268 765 q 239 700 263 744 q 209 655 215 655 q 199 661 202 655 q 195 669 195 666 q 233 786 195 670 m 391 786 q 401 798 394 798 q 416 784 408 798 q 425 759 425 769 q 399 702 425 748 q 366 655 373 655 q 354 673 354 655 l 391 786 "},"Ð":{"x_min":20.828125,"x_max":1286.21875,"ha":1279,"o":"m 730 384 q 551 334 730 359 q 294 62 433 177 q 538 -52 372 -52 q 593 -50 556 -52 q 1140 284 979 -13 q 1205 520 1205 404 q 1120 730 1205 637 q 972 825 1052 807 q 809 843 893 843 q 415 744 595 843 q 225 511 225 640 q 243 454 225 476 q 269 429 262 431 l 261 429 q 197 465 225 436 q 166 541 166 501 q 341 780 166 680 q 750 880 515 880 q 972 855 858 880 q 1179 736 1086 830 q 1286 484 1286 625 q 1225 269 1286 380 q 909 -11 1119 77 q 547 -81 741 -81 q 259 34 352 -81 q 80 -59 137 -59 q 35 -29 50 -59 q 20 34 20 0 q 77 234 20 101 q 184 368 133 368 q 229 263 211 368 q 268 112 248 159 q 441 318 330 176 q 404 322 425 318 q 359 351 359 330 q 371 375 359 365 q 391 384 383 384 q 408 386 400 384 l 495 386 l 541 445 q 840 769 766 741 q 891 779 865 779 q 935 768 918 779 q 952 740 952 757 q 912 712 952 716 q 762 584 863 686 q 588 384 666 491 q 729 388 680 384 q 730 384 730 387 m 70 40 q 87 -34 70 -2 q 231 75 147 -8 q 181 179 191 141 q 166 280 170 218 q 70 40 70 143 m 269 429 q 272 430 270 429 q 271 427 272 427 q 269 429 270 427 "},"I":{"x_min":29.171875,"x_max":1216.765625,"ha":800,"o":"m 991 550 l 982 587 q 993 598 982 598 q 1004 594 997 598 q 1036 531 1036 570 q 986 456 1036 493 q 859 419 936 419 q 812 423 836 419 q 579 98 716 247 q 245 -95 395 -95 q 29 159 29 -95 q 141 500 29 370 q 358 611 236 611 q 423 600 390 611 q 505 464 505 568 q 420 248 505 361 q 247 136 336 136 q 147 244 147 136 q 160 308 147 275 q 190 341 173 341 q 202 329 202 341 q 190 294 202 322 q 177 245 177 266 q 200 204 177 223 q 248 186 223 186 q 400 286 330 186 q 470 483 470 387 q 418 580 470 556 q 380 587 400 587 q 183 451 281 587 q 87 150 87 313 q 126 2 87 59 q 237 -55 166 -55 q 715 443 420 -55 q 562 623 562 488 q 744 909 562 802 q 968 976 859 976 q 1120 948 1052 976 q 1216 834 1216 911 q 1209 802 1216 818 q 1193 787 1201 787 q 1150 805 1175 805 q 826 454 1032 805 q 850 452 837 452 q 944 480 897 452 q 991 550 991 508 m 1001 937 q 838 896 930 937 q 691 776 745 855 q 636 597 636 697 q 738 477 636 497 q 936 727 815 602 q 1137 851 1057 851 q 1173 841 1158 851 q 1119 909 1172 880 q 1001 937 1072 937 "},"G":{"x_min":-20.828125,"x_max":1316.765625,"ha":1150,"o":"m 761 676 l 758 632 q 855 541 758 541 q 1018 597 936 541 q 1100 709 1100 652 q 1033 805 1100 766 q 894 832 988 832 q 581 765 754 832 q 256 551 408 698 q 58 194 58 356 q 131 40 58 98 q 322 -18 204 -18 q 702 105 486 -18 q 973 320 883 206 l 1013 380 q 807 366 988 380 q 598 345 625 351 q 555 338 572 338 q 509 361 509 338 q 615 418 509 395 q 972 441 720 441 q 1304 422 1223 441 q 1316 415 1316 419 q 1220 393 1316 400 q 1098 383 1101 383 q 732 -191 957 197 q 707 -213 719 -213 q 695 -195 695 -213 q 773 -8 695 -147 l 870 173 q 644 30 782 97 q 306 -54 465 -54 q 63 14 147 -54 q -20 198 -20 83 q 236 630 -20 411 q 548 815 365 741 q 870 888 732 888 q 1082 834 1008 888 q 1138 734 1138 790 q 1041 582 1138 655 q 847 509 943 509 q 718 658 718 509 q 741 715 718 715 q 761 676 761 715 "},"`":{"x_min":51.390625,"x_max":240.296875,"ha":307,"o":"m 234 433 q 240 422 240 429 q 231 416 240 416 q 150 461 223 416 q 63 514 76 505 q 51 541 51 523 q 65 558 51 558 q 234 433 81 558 "},"·":{"x_min":122.234375,"x_max":233.359375,"ha":314,"o":"m 175 481 q 214 468 195 481 q 233 436 233 454 q 215 406 233 419 q 177 393 198 393 q 139 407 156 393 q 122 441 122 422 q 175 481 122 481 "},"r":{"x_min":-6.9375,"x_max":604.21875,"ha":547,"o":"m 283 -6 q 179 108 179 -6 q 209 236 179 166 q 276 352 240 305 q 258 351 269 351 q 202 398 225 351 l 100 265 q 0 158 13 158 q -6 163 -6 158 q 16 204 -6 177 q 187 441 137 344 q 268 562 219 562 q 300 534 300 562 q 265 463 300 506 l 231 419 q 275 390 231 390 q 330 408 300 390 l 366 430 q 380 431 369 431 q 404 418 391 431 q 412 393 416 404 l 316 272 q 227 92 227 158 q 288 26 227 26 q 445 94 352 26 q 547 184 501 134 q 594 234 590 234 q 604 224 604 234 q 591 200 604 213 l 547 150 q 463 75 509 111 q 283 -6 354 -6 "},"¿":{"x_min":-11.109375,"x_max":479.203125,"ha":557,"o":"m 473 351 q 419 311 473 311 q 381 325 400 311 q 362 356 362 338 q 379 386 362 373 q 418 400 397 400 q 456 385 438 400 q 473 351 473 370 m 218 -286 q -11 -154 -11 -286 q 62 -11 -11 -69 q 229 88 80 2 q 362 212 326 144 q 384 236 375 236 q 393 223 393 236 q 390 202 393 211 q 268 73 355 130 q 116 -29 143 -4 q 56 -129 56 -83 q 106 -202 56 -175 q 234 -229 156 -229 q 372 -193 311 -229 q 445 -87 434 -156 q 431 -53 448 -69 q 381 -37 413 -37 q 309 -79 350 -37 q 297 -79 300 -88 q 302 -58 293 -68 q 392 -11 348 -11 q 457 -32 436 -11 q 479 -83 479 -54 q 479 -90 479 -86 q 388 -234 470 -183 q 218 -286 305 -286 "},"ý":{"x_min":-77.84375,"x_max":569.484375,"ha":514,"o":"m -77 -161 q 37 -244 -11 -244 q 208 -118 116 -244 q 338 116 275 -25 l 391 244 l 187 84 q 36 11 93 11 q -12 31 5 11 q -30 79 -30 52 q 72 275 -30 138 q 222 412 175 412 q 269 380 269 412 q 146 236 269 368 q 23 59 23 105 q 47 41 23 41 q 225 145 91 41 q 427 318 359 250 q 470 372 443 336 q 529 402 497 402 q 561 372 561 402 q 498 273 561 366 q 433 175 436 180 q 301 -68 390 91 q 31 -284 166 -284 q -45 -246 -12 -284 q -77 -161 -79 -208 m 473 509 q 391 465 401 465 q 381 472 381 465 q 387 483 381 479 l 533 595 q 558 608 547 608 q 569 591 569 608 q 558 563 569 575 q 473 509 545 554 "},"x":{"x_min":-48.609375,"x_max":655.609375,"ha":593,"o":"m 502 61 q 336 -22 402 -22 q 250 73 270 -22 q 240 190 243 112 q -13 -136 70 9 q -25 -141 -18 -141 q -41 -126 -41 -141 q -38 -119 -41 -122 q 240 238 90 84 q 247 452 245 429 q 111 291 215 445 q 20 172 59 213 q -25 124 -18 130 q -40 118 -33 118 q -48 125 -48 118 q -4 181 -48 131 q 113 342 40 230 q 219 483 187 454 q 279 512 251 512 q 319 504 306 512 q 328 478 331 497 q 322 445 325 459 q 319 413 320 431 q 309 306 311 348 q 616 575 377 372 q 626 577 619 577 q 644 566 633 577 q 655 542 655 554 q 644 519 655 530 q 489 403 600 483 q 306 256 379 323 q 305 177 305 227 q 318 86 305 127 q 379 31 334 31 q 623 222 458 31 q 644 236 637 236 q 651 227 651 236 q 640 205 651 218 q 502 61 554 104 "},"è":{"x_min":-45.84375,"x_max":441.703125,"ha":357,"o":"m 70 -18 q 43 -13 55 -18 q -45 86 -45 11 q 76 311 -45 183 q 295 438 198 438 q 347 421 327 438 q 368 379 368 404 q 250 230 368 301 q 59 159 133 159 q 40 162 48 159 q 19 83 19 125 q 88 11 19 11 q 266 104 156 11 q 411 250 348 169 q 432 266 423 266 q 441 258 441 266 q 430 234 441 250 q 248 57 352 133 q 70 -18 144 -18 m 333 381 q 297 398 333 398 q 197 344 262 398 q 61 193 109 272 q 79 190 69 190 q 220 246 131 190 q 330 369 308 302 q 333 381 333 376 m 366 505 q 361 498 366 498 q 219 579 350 498 q 209 602 209 587 q 219 616 209 616 q 252 600 229 616 q 362 512 275 583 q 366 505 366 508 "},"º":{"x_min":-13.890625,"x_max":470.875,"ha":265,"o":"m 362 619 q 269 456 362 570 q 81 322 159 322 l 59 322 q 2 359 23 322 q -13 418 -13 386 q 107 652 -13 501 q 304 802 229 802 q 375 727 375 802 q 368 677 375 708 q 394 673 369 673 q 470 700 419 673 q 361 632 469 676 q 362 619 362 626 m 272 691 q 138 580 225 691 q 51 416 51 469 q 84 363 51 363 q 236 472 144 363 q 327 627 327 580 q 272 691 305 640 "},"Ø":{"x_min":33.34375,"x_max":1155.640625,"ha":1089,"o":"m 918 882 q 1008 969 993 969 q 1032 960 1023 969 q 1041 941 1041 951 q 1029 916 1041 932 l 988 870 q 1084 827 1047 855 q 1155 694 1155 775 q 1116 570 1155 644 q 1127 494 1127 533 q 950 162 1127 320 q 337 -81 676 -81 l 306 -81 q 304 -114 304 -91 q 314 -142 304 -137 q 319 -158 325 -147 q 290 -172 309 -172 q 266 -138 266 -172 q 272 -79 266 -105 q 98 -5 163 -72 q 33 167 33 61 q 90 400 33 273 q 372 711 162 559 q 872 883 613 883 q 918 882 904 883 m 636 751 q 746 772 700 772 q 826 766 793 772 q 864 816 840 786 q 894 852 888 845 q 870 854 887 854 q 475 724 661 854 q 184 397 288 594 q 108 140 108 254 q 279 -51 108 -34 q 297 2 281 -38 q 659 550 340 120 q 800 733 775 701 q 703 740 773 737 q 633 745 633 743 q 636 751 633 748 m 333 -52 q 852 166 607 -52 q 1044 468 1030 325 q 794 279 972 388 l 783 276 q 782 277 782 276 q 819 315 782 283 l 897 379 q 1043 522 997 466 q 968 655 1033 600 q 862 718 922 695 q 618 401 770 604 q 316 -52 369 70 q 333 -52 325 -52 m 1098 612 q 1112 686 1112 645 q 1077 776 1112 727 q 966 843 1043 825 q 893 754 957 832 l 894 754 q 1098 612 1040 719 "},"∞":{"x_min":29.171875,"x_max":977.859375,"ha":1011,"o":"m 977 540 q 861 338 977 438 q 640 238 744 238 q 518 376 518 238 q 423 309 487 351 q 336 255 359 266 q 181 213 258 213 q 29 334 29 213 q 155 555 29 454 q 398 652 273 652 q 508 623 461 652 q 572 476 570 583 q 872 669 765 669 q 948 628 919 669 q 977 540 977 587 m 938 518 q 837 626 938 626 q 697 544 791 626 l 572 423 q 680 283 575 283 q 814 331 740 283 q 919 433 888 379 q 938 518 938 465 m 520 468 q 470 588 520 555 q 366 613 429 613 q 225 564 302 613 q 103 442 148 515 q 58 316 58 369 q 150 237 58 237 q 343 293 241 237 q 519 423 444 350 q 520 468 520 441 "},"÷":{"x_min":26.390625,"x_max":551.4375,"ha":564,"o":"m 291 361 l 436 359 q 550 363 515 359 q 551 357 551 361 q 541 347 551 354 q 450 322 518 333 q 328 302 383 311 q 240 293 273 293 q 148 297 208 293 q 26 326 26 305 q 38 350 26 340 q 59 359 50 359 l 80 359 l 115 361 l 226 361 q 291 361 261 361 m 250 234 q 289 220 270 234 q 308 189 308 206 q 291 159 308 172 q 252 145 273 145 q 214 159 231 145 q 197 194 197 173 q 250 234 197 234 m 313 512 q 353 498 334 512 q 372 467 372 484 q 354 436 372 450 q 316 423 337 423 q 278 437 295 423 q 261 472 261 451 q 313 512 261 512 "},"h":{"x_min":-77.78125,"x_max":583.375,"ha":522,"o":"m 329 5 q 247 101 247 5 q 285 221 247 155 q 379 376 323 287 q 56 113 201 287 q -37 -6 -23 -6 q -77 16 -77 -6 q -61 61 -77 29 q 143 412 73 301 q 376 700 308 677 q 381 701 379 701 q 406 672 400 701 q 262 461 402 643 q 97 219 116 276 q 276 345 148 256 q 458 441 413 441 q 502 406 502 441 q 502 399 502 401 q 405 268 501 397 q 309 77 309 138 q 333 45 309 45 q 558 226 408 48 q 577 238 570 238 q 583 230 583 238 q 445 80 583 202 q 329 5 359 5 "},".":{"x_min":122.234375,"x_max":233.359375,"ha":314,"o":"m 175 87 q 214 73 195 87 q 233 42 233 59 q 215 11 233 25 q 177 -1 198 -1 q 139 13 156 -1 q 122 47 122 27 q 175 87 122 87 "},";":{"x_min":112.515625,"x_max":288.90625,"ha":314,"o":"m 230 356 q 270 343 251 356 q 288 311 288 329 q 271 281 288 294 q 233 268 254 268 q 195 282 212 268 q 177 316 177 297 q 230 356 177 356 m 233 40 q 188 -64 233 -18 q 128 -111 144 -111 q 112 -108 112 -111 q 142 -71 112 -105 q 172 -16 172 -37 q 153 20 172 4 q 134 45 134 37 q 175 87 134 87 q 214 73 195 87 q 233 40 233 59 "},"f":{"x_min":-337.53125,"x_max":566.71875,"ha":336,"o":"m 566 679 q 541 636 566 636 q 527 647 534 636 q 486 669 515 669 q 366 577 422 669 q 297 447 355 559 l 313 447 q 515 451 465 447 q 520 445 520 450 q 422 415 520 434 q 269 388 329 400 q 165 177 226 300 q 0 -112 40 -55 q -236 -284 -120 -284 q -306 -250 -276 -284 q -337 -175 -336 -216 q -325 -158 -333 -158 q -319 -168 -320 -158 q -291 -223 -311 -204 q -251 -243 -272 -243 q -36 -97 -133 -243 q 115 202 19 -13 l 190 383 q 51 416 51 384 q 64 440 51 430 q 87 450 77 450 l 218 447 q 468 750 354 750 q 555 708 511 750 q 566 679 566 697 "},"“":{"x_min":19.453125,"x_max":281.96875,"ha":286,"o":"m 159 470 q 204 577 159 530 q 265 623 250 623 q 281 620 281 623 q 251 583 281 616 q 220 528 220 550 q 239 491 220 506 q 258 466 258 475 q 218 425 258 425 q 178 438 197 425 q 159 470 159 451 m 19 470 q 64 577 19 530 q 125 623 109 623 q 140 620 140 623 q 110 583 140 616 q 80 528 80 550 q 99 491 80 506 q 118 466 118 475 q 76 425 118 425 q 38 438 56 425 q 19 470 19 452 "},"A":{"x_min":-1.390625,"x_max":1580.6875,"ha":1417,"o":"m 1314 397 l 1448 400 q 1498 393 1498 400 q 1295 361 1498 375 q 1166 16 1166 108 q 1207 -47 1166 -47 q 1245 -28 1222 -47 q 1273 -9 1268 -9 q 1277 -16 1277 -9 q 1235 -58 1270 -41 q 1175 -75 1200 -75 q 1137 -72 1151 -75 q 1104 8 1104 -59 q 1211 365 1104 148 l 1044 361 q 670 41 858 179 q 231 -162 390 -162 q 212 -161 222 -162 q -1 58 -1 -143 q 73 311 -1 177 q 347 614 173 488 q 658 740 520 740 q 795 638 795 740 q 754 487 795 570 q 669 381 712 404 q 660 380 665 380 q 655 383 655 380 l 701 458 q 748 587 748 531 q 724 677 748 643 q 647 711 700 711 q 388 590 538 711 q 159 293 237 469 q 80 18 80 116 q 231 -130 80 -130 q 623 55 376 -130 q 980 365 733 137 q 890 355 932 362 q 807 361 801 338 q 859 412 812 412 q 1013 401 951 401 q 1370 761 1133 511 q 1565 929 1530 929 q 1580 905 1580 929 q 1568 832 1580 882 q 1540 770 1555 782 q 1480 710 1508 748 q 1401 567 1452 672 q 1314 397 1350 462 m 1425 736 l 1069 402 l 1151 402 q 1223 401 1180 401 q 1425 736 1263 480 "},"6":{"x_min":69.453125,"x_max":1034.8125,"ha":850,"o":"m 832 834 l 959 841 q 1012 827 990 841 q 1034 796 1034 813 q 1019 776 1034 779 q 515 593 805 734 q 262 405 381 529 q 118 136 118 258 q 291 9 118 9 q 536 54 387 9 q 673 129 604 75 q 743 245 743 184 q 679 294 743 294 q 470 231 580 294 q 341 66 359 168 q 318 40 337 40 q 305 63 301 40 q 447 266 327 191 q 697 343 569 343 q 825 248 825 343 q 738 105 825 175 q 584 26 669 52 q 294 -26 411 -26 q 123 20 177 -26 q 69 140 69 66 q 184 404 69 259 q 473 643 298 548 q 825 805 688 759 q 797 813 802 811 q 794 820 793 815 q 810 831 797 826 q 832 834 823 836 "},"‘":{"x_min":19.453125,"x_max":140.28125,"ha":175,"o":"m 19 470 q 64 577 19 530 q 125 623 109 623 q 140 620 140 623 q 110 583 140 616 q 80 528 80 550 q 99 491 80 506 q 118 466 118 475 q 76 425 118 425 q 38 438 56 425 q 19 470 19 452 "},"π":{"x_min":13.890625,"x_max":461.140625,"ha":469,"o":"m 269 16 l 250 13 q 213 62 213 13 q 283 333 213 175 l 188 352 q 168 252 183 305 q 55 -13 93 -13 q 47 -11 47 -13 q 133 243 113 129 l 152 352 l 150 352 q 22 297 77 352 l 16 297 q 13 302 13 297 q 27 325 20 319 q 172 397 104 397 q 264 380 190 397 q 368 363 338 363 q 458 408 397 363 q 461 402 461 408 q 410 351 461 375 q 325 327 359 327 l 280 213 q 245 78 245 123 q 269 33 245 33 q 282 34 273 34 q 291 29 291 34 q 272 15 280 15 l 269 16 "},"O":{"x_min":33.34375,"x_max":1155.640625,"ha":1089,"o":"m 1127 494 q 950 162 1127 320 q 337 -81 676 -81 q 279 -80 300 -81 q 100 -7 168 -75 q 33 166 33 59 q 90 400 33 273 q 372 711 162 559 q 872 883 613 883 q 1083 829 1011 883 q 1155 694 1155 775 q 1116 570 1155 644 q 1127 494 1127 533 m 1098 612 q 1112 686 1112 645 q 1082 770 1112 727 q 870 854 1022 854 q 475 724 661 854 q 184 397 288 594 q 108 140 108 254 q 293 -52 108 -43 q 331 -54 312 -54 q 852 166 605 -54 q 1044 468 1030 325 q 794 279 972 388 l 783 276 q 782 277 782 276 q 819 315 782 283 l 897 379 q 1043 522 997 466 q 973 652 1033 600 q 834 727 912 704 q 714 740 795 737 q 633 745 633 743 q 636 751 633 748 q 759 772 700 772 q 894 754 818 772 q 1098 612 1040 719 "},"n":{"x_min":-51.390625,"x_max":618.109375,"ha":560,"o":"m 223 438 q 261 409 261 438 q 256 393 261 401 q 106 130 131 219 q 500 454 430 454 q 512 455 506 455 q 551 420 551 455 q 548 406 551 413 q 493 331 545 400 q 389 193 431 259 q 347 81 347 126 q 366 37 347 37 q 579 205 427 37 q 588 218 581 208 q 613 243 609 243 q 618 229 618 243 q 598 193 618 215 q 354 -2 426 -2 q 286 72 286 -2 q 341 244 286 147 l 430 388 q 262 236 336 319 q 128 76 188 154 q 58 -1 68 -1 q 25 15 37 -1 q 13 59 13 33 q 31 127 13 84 q 77 231 50 170 l -5 144 q -43 113 -36 113 q -51 122 -51 113 q -40 143 -51 131 q 48 241 11 194 q 197 422 84 288 q 223 438 209 438 "},"3":{"x_min":44.453125,"x_max":1036.1875,"ha":997,"o":"m 905 850 q 1036 733 1036 850 q 1036 723 1036 729 q 787 527 1029 602 q 997 380 997 505 q 991 341 997 359 q 745 75 950 177 q 354 -13 566 -13 q 131 29 218 -13 q 44 152 44 72 q 75 251 44 195 q 200 347 105 306 q 359 387 295 387 q 376 376 376 387 q 356 362 376 362 q 238 317 311 362 q 151 223 165 272 q 144 176 144 195 q 309 26 144 55 q 397 18 352 18 q 644 76 518 18 q 907 336 838 166 q 916 383 916 359 q 858 463 916 438 q 719 488 800 488 q 584 468 638 488 q 558 462 572 462 q 533 486 533 462 q 545 515 533 502 q 573 527 556 527 q 797 568 693 527 q 947 716 930 620 q 948 734 948 723 q 874 794 948 794 q 705 759 800 794 q 545 682 611 723 q 536 677 538 677 q 526 695 526 677 q 552 743 526 737 q 654 818 584 752 q 669 823 662 826 q 676 813 676 820 q 670 800 676 805 q 657 786 663 794 q 905 850 805 850 "},"9":{"x_min":104.171875,"x_max":862.5625,"ha":611,"o":"m 186 434 q 104 501 104 434 q 252 713 104 619 q 535 829 372 788 q 807 869 698 869 q 829 869 818 869 q 837 856 838 869 q 823 825 836 843 q 792 809 811 808 q 745 811 773 811 q 391 730 573 811 q 168 518 175 634 q 212 472 165 472 q 518 608 305 472 q 779 795 655 695 q 804 801 784 801 q 862 772 862 801 q 850 751 862 761 q 697 616 777 690 q 225 -126 225 180 q 245 -187 225 -180 q 252 -205 266 -195 q 238 -211 247 -211 q 223 -211 229 -211 q 166 -126 166 -204 q 309 240 166 20 q 630 636 451 461 q 186 434 340 434 "},"l":{"x_min":-4.171875,"x_max":423.640625,"ha":338,"o":"m 54 69 q 100 27 54 27 q 218 76 145 27 q 358 208 290 125 q 384 230 375 230 q 394 222 394 230 q 337 150 394 213 q 105 -2 198 -2 q 27 18 59 -2 q -4 85 -4 40 q 19 190 -4 130 q 148 427 59 284 q 379 691 311 691 q 407 681 393 691 q 423 658 422 670 q 300 493 391 615 q 175 317 209 370 q 122 237 140 263 q 97 196 105 211 q 77 158 88 181 q 54 69 54 111 "},"¤":{"x_min":68.0625,"x_max":607,"ha":720,"o":"m 491 705 q 531 621 531 676 q 501 524 531 566 q 420 458 470 481 q 508 325 487 348 l 462 325 q 395 447 456 343 q 306 433 355 433 q 226 448 258 433 l 112 323 l 68 323 l 209 456 q 161 547 161 487 q 254 698 161 643 l 180 811 l 220 823 q 275 709 226 798 q 384 733 329 733 q 475 716 438 733 q 575 820 534 775 l 607 808 q 584 788 604 805 q 491 705 534 745 m 332 473 q 436 513 393 473 q 479 600 479 552 q 379 698 479 698 q 261 661 306 698 q 215 576 215 625 q 243 500 215 527 q 332 473 272 473 "},"∂":{"x_min":13.890625,"x_max":488.921875,"ha":571,"o":"m 172 447 q 272 533 220 506 q 365 559 323 559 q 437 536 406 559 q 438 579 438 548 q 416 689 438 611 q 371 814 393 768 q 325 902 350 861 q 278 1004 276 990 q 291 1027 280 1019 q 311 1034 302 1034 q 404 913 359 1034 q 483 636 466 747 q 488 523 488 587 q 477 376 488 459 q 396 179 458 272 q 248 38 334 86 q 136 5 190 5 q 13 122 13 5 q 33 229 13 165 q 172 447 70 326 m 86 101 q 144 38 86 38 q 233 70 179 38 q 347 183 287 101 q 427 395 416 281 q 431 427 431 413 q 398 480 431 469 l 386 483 q 363 490 380 490 q 273 434 329 490 q 170 305 218 377 q 86 101 86 176 "},"4":{"x_min":18.0625,"x_max":950.078125,"ha":789,"o":"m 563 283 q 713 250 661 250 q 798 273 766 250 q 838 354 838 306 q 834 386 838 369 q 844 404 830 404 q 865 390 858 404 q 891 305 891 343 q 722 211 891 211 q 541 244 650 211 q 475 30 488 145 q 473 -15 473 13 q 490 -75 473 -44 q 493 -87 493 -83 q 470 -112 493 -112 q 448 -104 455 -112 q 429 -4 429 -62 q 491 258 429 101 q 304 288 384 288 q 56 219 225 288 q 29 227 40 213 q 18 262 18 241 q 48 308 18 298 q 126 327 69 316 q 354 477 201 368 q 550 615 508 587 q 866 858 816 783 l 879 877 q 902 887 886 887 q 950 861 950 887 q 702 504 950 859 q 563 283 622 384 m 320 348 q 511 304 394 348 q 740 677 572 437 l 772 725 q 491 531 684 670 q 225 341 297 393 q 320 348 281 348 "},"p":{"x_min":-138.90625,"x_max":523.65625,"ha":524,"o":"m 523 313 q 395 100 523 201 q 172 0 266 0 q 81 8 109 0 q 18 58 52 16 q -45 -40 -5 38 q -86 -177 -86 -120 q -59 -247 -86 -204 q -63 -259 -56 -254 q -74 -263 -70 -263 q -80 -262 -77 -263 q -138 -138 -138 -230 q 14 181 -138 -45 q 226 427 168 408 q 244 430 240 430 q 268 379 268 430 q 325 405 281 393 q 400 419 377 419 q 486 391 450 419 q 523 313 523 362 m 452 327 q 390 380 452 380 q 276 354 327 380 q 145 231 252 343 q 38 88 38 120 q 77 51 38 63 q 154 38 115 38 q 341 125 230 38 q 452 327 452 212 "},"‡":{"x_min":2.78125,"x_max":575.046875,"ha":620,"o":"m 48 -370 q 44 -372 47 -372 q 2 -283 2 -372 q 190 280 2 -84 q 130 262 184 279 q 69 248 94 248 q 44 272 44 248 q 118 305 44 290 q 209 320 148 309 l 265 419 q 193 398 254 418 q 127 383 136 383 q 98 406 98 383 q 181 443 98 425 l 287 459 q 491 757 412 677 q 546 783 518 783 q 575 775 575 783 q 569 766 575 772 q 348 469 477 661 q 471 484 444 484 q 502 476 498 484 q 322 429 490 459 q 259 329 288 379 q 411 350 377 350 q 448 341 444 350 q 350 308 436 325 l 237 288 q 40 -284 40 -55 l 48 -370 "},"à":{"x_min":-12.109375,"x_max":662.9375,"ha":572,"o":"m 461 415 l 480 419 q 510 406 496 419 q 524 386 524 393 q 437 253 524 380 q 351 76 351 126 q 353 68 351 72 q 383 36 360 36 q 647 275 455 36 q 657 280 651 280 q 662 270 662 280 q 650 243 662 259 q 379 5 472 5 q 355 9 367 5 q 294 101 294 33 q 300 148 294 125 l 212 65 q 95 -6 132 -6 q 25 16 58 -6 q -12 90 -12 44 q 129 332 -12 191 q 389 473 271 473 q 450 441 435 473 q 457 422 454 430 q 461 415 460 415 m 46 73 q 80 23 46 23 q 299 200 160 23 q 447 402 435 384 q 411 422 436 422 q 186 290 326 422 q 46 73 46 159 m 471 551 q 464 543 471 543 q 399 576 454 543 q 325 626 344 609 q 315 646 315 632 q 326 661 315 661 q 397 614 336 661 q 465 561 458 568 q 471 551 471 554 "},"Ü":{"x_min":19.453125,"x_max":1347.328125,"ha":1113,"o":"m 479 -26 q 419 15 419 -26 q 603 346 419 87 q 826 665 787 605 q 911 843 911 795 q 893 872 911 866 q 815 886 859 886 q 425 723 662 886 q 167 470 269 615 q 65 230 65 325 q 120 152 65 162 q 165 148 143 148 q 311 194 236 148 q 405 268 348 216 l 430 276 q 320 175 404 226 q 147 123 236 123 q 98 129 126 123 q 45 168 70 134 q 19 258 19 202 q 430 770 19 476 q 627 874 513 830 q 834 918 741 918 q 925 900 882 918 q 969 839 969 882 q 920 718 969 797 q 766 497 870 640 q 588 231 661 355 q 515 59 515 108 q 534 36 515 36 q 675 113 572 36 q 1250 718 919 300 q 1334 784 1302 784 q 1347 772 1347 784 q 1343 758 1347 766 q 1344 750 1344 754 q 1311 670 1344 720 l 1147 438 q 970 165 1047 294 q 900 13 894 36 l 925 22 q 1045 112 994 61 q 1068 126 1063 126 l 1070 123 q 1033 70 1070 111 q 894 -13 936 -13 q 852 12 852 -13 q 927 176 852 38 q 1165 555 1001 313 q 1077 456 1137 522 q 668 52 736 106 q 479 -26 566 -26 m 1087 890 q 1068 904 1077 890 q 1058 935 1058 919 q 1098 980 1058 951 q 1162 1009 1140 1009 q 1166 1008 1163 1009 q 1147 983 1165 1008 l 1125 927 q 1087 890 1108 890 m 1334 1008 q 1315 983 1333 1008 l 1293 927 q 1255 890 1276 890 q 1236 904 1245 890 q 1226 935 1226 919 q 1266 980 1226 951 q 1330 1009 1308 1009 l 1334 1008 m 1168 1007 q 1166 1008 1168 1008 l 1168 1008 l 1168 1007 m 1336 1007 q 1334 1008 1336 1008 l 1336 1008 l 1336 1007 "},"ó":{"x_min":-13.890625,"x_max":541.703125,"ha":390,"o":"m 362 294 q 269 131 362 245 q 81 -2 159 -2 l 59 -2 q 2 34 23 -2 q -13 93 -13 61 q 107 327 -13 176 q 304 477 229 477 q 375 402 375 477 q 368 352 375 383 q 394 348 369 348 q 470 375 419 348 q 361 306 469 351 q 362 294 362 301 m 272 366 q 138 255 225 366 q 51 91 51 144 q 84 38 51 38 q 236 147 144 38 q 327 302 327 255 q 272 366 305 315 m 442 581 q 362 538 370 538 q 354 547 354 538 q 358 555 354 551 q 504 669 427 608 q 527 680 519 680 q 541 663 541 680 q 527 636 541 645 q 442 581 513 623 "},"ŗ":{"x_min":-37.5,"x_max":604.21875,"ha":547,"o":"m 283 -6 q 179 108 179 -6 q 209 236 179 166 q 276 352 240 305 q 258 351 269 351 q 202 398 225 351 l 100 265 q 0 158 13 158 q -6 163 -6 158 q 16 204 -6 177 q 187 441 137 344 q 268 562 219 562 q 300 534 300 562 q 265 463 300 506 l 231 419 q 275 390 231 390 q 330 408 300 390 l 366 430 q 380 431 369 431 q 404 418 391 431 q 412 393 416 404 l 316 272 q 227 92 227 158 q 288 26 227 26 q 445 94 352 26 q 547 184 501 134 q 594 234 590 234 q 604 224 604 234 q 591 200 604 213 l 547 150 q 463 75 509 111 q 283 -6 354 -6 m 83 -197 q 38 -302 83 -255 q -21 -348 -5 -348 q -37 -345 -37 -348 q -7 -309 -37 -343 q 22 -254 22 -275 q 3 -216 22 -233 q -15 -191 -15 -200 q 25 -150 -15 -150 q 64 -163 45 -150 q 83 -197 83 -177 "},"√":{"x_min":20.828125,"x_max":645.890625,"ha":640,"o":"m 645 920 l 644 915 q 481 632 555 787 q 311 1 338 333 q 297 -9 308 -9 q 270 4 287 -9 q 251 29 252 19 q 193 244 236 131 q 116 356 150 356 q 73 303 100 356 q 40 222 47 250 q 30 194 33 194 q 20 210 20 194 q 31 256 20 226 q 65 331 41 287 q 126 411 100 398 q 140 413 134 413 q 227 311 184 413 q 293 86 270 208 q 402 545 308 243 q 594 943 497 848 q 613 950 601 950 q 635 941 625 950 q 645 920 645 932 "}}}
